<?xml version="1.0" standalone="no"?>
<!DOCTYPE svg PUBLIC "-//W3C//DTD SVG 1.1//EN" "http://www.w3.org/Graphics/SVG/1.1/DTD/svg11.dtd" >
<svg xmlns="http://www.w3.org/2000/svg" xmlns:xlink="http://www.w3.org/1999/xlink" version="1.1">
<metadata>
Created by FontForge 20200427 at Thu Mar 21 20:16:40 2013
 By www
Copyright (c) Active Images, 2009. All rights reserved.
</metadata>
<defs>
<font id="CCMarianChurchland" horiz-adv-x="430" >
  <font-face 
    font-family="CCMarianChurchland"
    font-weight="400"
    font-stretch="normal"
    units-per-em="1000"
    panose-1="3 5 5 2 3 0 0 2 0 4"
    ascent="956"
    descent="-44"
    x-height="742"
    cap-height="760.5"
    bbox="-38.5185 -105.2 1479 894.52"
    underline-thickness="20"
    underline-position="-133"
    unicode-range="U+0020-FB02"
  />
<missing-glyph horiz-adv-x="250" 
 />
    <glyph glyph-name="A_a" unicode="AA" horiz-adv-x="835" 
d="M395 155q4 -20 10.5 -43.5t8 -44.5t-6 -35t-33.5 -16q-14 -1 -24.5 6.5t-18 18.5t-12.5 25t-8 26q-12 51 -19 91.5t-16 89.5q-35 8 -70 3.5t-70 -3.5q-1 -32 -4 -54t-6 -42t-5.5 -41.5t-4.5 -51.5q-1 -9 1 -19t3 -19t-1.5 -17t-11.5 -13q-14 -7 -26.5 -6t-23 7t-18 16
t-11.5 19q-10 21 -9 51.5t6.5 65t13.5 71t12 71.5q11 93 27 190t38 185q3 13 12.5 31.5t24.5 34t35.5 23.5t45.5 1q17 -5 26 -18t14 -29.5t8 -34.5t8 -34q17 -49 31.5 -111.5t27 -130t24 -135.5t22.5 -128zM260 381q-7 33 -12.5 67.5t-12 67t-15.5 61t-23 50.5
q-8 -31 -15 -59.5t-13 -57t-10.5 -58.5t-7.5 -65q17 2 47 -2.5t62 -3.5zM818 72q2 -17 -7.5 -30t-22.5 -20.5t-27 -8.5t-22 6q-12 11 -16.5 24.5t-5 26.5t0.5 25t-1 21q-3 14 -5.5 27.5t-5.5 30t-6.5 36.5t-9.5 48q-38 -2 -74 -8.5t-70 0.5q-5 -44 -8 -70.5t2 -43.5
q5 -18 7.5 -34.5t-1.5 -30.5t-16.5 -25.5t-37.5 -19.5t-36.5 6t-15 38t-1 51.5t3.5 46.5q4 48 13 103t17 109q5 40 13.5 81.5t17.5 80t17.5 70.5t13.5 52q6 24 21.5 45t41.5 28q38 10 63 -4t41.5 -40t25.5 -59t14 -60q12 -62 23.5 -130t21.5 -134t18.5 -127t12.5 -111z
M675 374q-8 30 -13 63t-10 64.5t-12 59.5t-20 49q-23 -57 -37.5 -123.5t-22.5 -128.5q32 -1 63.5 2t51.5 14z" />
    <glyph glyph-name="B_b" unicode="BB" horiz-adv-x="901" 
d="M418 197q-7 -36 -31.5 -72.5t-60 -65.5t-77.5 -47t-86 -18q-40 -1 -66 8.5t-32 46.5q-10 65 -11.5 146t-2 166.5t-3.5 169.5t-16 156q-3 16 -9.5 30t0.5 28q8 17 26 20.5t41 7.5q28 4 58 1.5t58.5 -9.5t54 -18.5t43.5 -25.5q33 -25 44.5 -59.5t6.5 -69.5t-25 -66t-50 -49
q36 -22 66.5 -48.5t50 -60.5t26 -76t-4.5 -95zM262 623q-3 18 -15.5 28t-30 14.5t-37 5t-37.5 -1.5q-8 -20 -9.5 -42t0.5 -43.5t5 -42t4 -38.5q29 4 52.5 14.5t40 26.5t24 36t3.5 43zM161 113q47 1 85 7.5t57 32.5q12 16 17 35t6 38t-1.5 36.5t-6.5 30.5q-7 22 -19 40.5
t-31.5 32.5t-48 21.5t-67.5 7.5q8 -52 6.5 -85.5t-4.5 -62.5t-3.5 -59t10.5 -75zM847 358q31 -69 12.5 -148t-85.5 -147q-14 -15 -37 -27.5t-48.5 -22t-50 -15.5t-42.5 -6q-24 -1 -40 0.5t-27 8.5t-18 21t-13 38q-7 29 -10 71t-3 90t1.5 99.5t1.5 98.5q1 52 0.5 87.5
t-2 64.5t-2.5 56t-2 60q-15 11 -19.5 25.5t1 27.5t20 22t37.5 9q29 0 64.5 -4t70.5 -13t67 -23.5t55 -36.5t33.5 -52t3.5 -69q-7 -37 -22.5 -68t-47.5 -53l41 -20.5t25 -16t17.5 -21.5t18.5 -36zM720 574q2 26 -12.5 43t-37 27.5t-48 14.5t-46.5 4q3 -49 2 -94t4 -84
q24 -1 48 4t43.5 16t32.5 28t14 41zM765 265q-1 38 -16 59t-39.5 32t-57 14.5t-67.5 5.5q-5 -40 -5 -77t1.5 -70.5t3.5 -63t2 -55.5q38 -9 71 1.5t57 33t37.5 54.5t12.5 66z" />
    <glyph glyph-name="C_c" unicode="CC" horiz-adv-x="789" 
d="M354 120q-5 -19 -16.5 -37t-26.5 -33t-31.5 -25.5t-30.5 -13.5q-25 -5 -57 1t-59 19q-24 11 -42 45.5t-31 83t-19.5 108.5t-6.5 122q0 65 10 127.5t28.5 114t45.5 87.5t63 47q27 9 55.5 2.5t52 -24t40.5 -44.5t21 -60q2 -16 -2 -39.5t-28 -38.5q-18 -11 -34 -10.5
t-24 12.5q-6 9 -11 27t-10.5 35t-13 27.5t-20.5 5.5q-26 -10 -43 -42.5t-26.5 -77t-11.5 -94.5t2 -97q3 -33 6.5 -72t11 -73t21.5 -59.5t37 -31.5q11 -3 21.5 2.5t20.5 14.5t19 20t16 19q6 6 10.5 12.5t9.5 11.5t11.5 7.5t15.5 0.5q18 -3 26.5 -24t-0.5 -56zM740 165
q-14 -52 -46.5 -90t-71.5 -53.5t-78 -6t-68 52.5q-19 29 -30.5 70t-16.5 87.5t-5.5 95t0.5 92.5q2 49 9.5 94.5t18.5 83t23.5 65.5t22.5 41q33 45 78.5 62t85.5 -1q23 -10 41 -37t25.5 -59.5t1.5 -63.5t-32 -50q-18 -13 -30 -9t-20 18t-13.5 32.5t-11 34t-11.5 24t-15 0.5
q-26 -22 -43.5 -60t-27 -84t-11.5 -96.5t2.5 -99t15 -90.5t25.5 -71q9 -16 24.5 -16.5t32.5 8.5t33 24t25 31q4 6 6.5 14t6 14.5t8.5 11t12 3.5q14 -1 22 -8.5t12 -18t3.5 -22.5t-3.5 -23z" />
    <glyph glyph-name="D_d" unicode="DD" horiz-adv-x="869" 
d="M315 108q-10 -13 -24 -29.5t-29.5 -31.5t-32 -27t-32.5 -16q-19 -4 -41 -5t-41 2.5t-32.5 12.5t-15.5 24q-11 81 -12.5 160.5t-1 157.5t0 155t-9.5 152q-1 10 -5 18.5t-6.5 16.5t-2 17t8.5 19q19 25 45.5 29t51.5 0q34 -5 67.5 -14t64 -24.5t56 -39.5t44.5 -59
q20 -37 33 -85t17 -99t-1.5 -101t-22.5 -93q-12 -32 -33.5 -71t-45.5 -69zM137 641q7 -76 7.5 -137.5t-1 -120.5t-1 -121t7.5 -140q37 -1 69 23.5t56 64.5t39 90t16 100q1 39 -13.5 81.5t-41 78.5t-62 59t-76.5 22zM832 294q-22 -82 -72 -153t-116 -116q-19 -13 -46 -25.5
t-48 -10.5q-12 1 -19.5 7t-12 15t-6.5 20t-3 22q-3 19 -2 40.5t2.5 44l3 45t-0.5 44.5q-5 53 -8.5 102t-5 99t-1.5 104t3 117q-15 9 -20.5 28t-0.5 38t21 31.5t43 9.5q69 -8 123.5 -37.5t94.5 -86.5q25 -36 43 -79t27.5 -88.5t10 -89.5t-9.5 -81zM755 359q2 94 -39.5 162.5
t-113.5 97.5q-9 -73 -10 -136.5t1.5 -122t5 -115.5t-0.5 -117q35 23 63.5 47t49 51.5t32 60t12.5 72.5z" />
    <glyph glyph-name="E_e" unicode="EE" horiz-adv-x="756" 
d="M314 36q-40 -8 -81.5 -13t-94.5 -10q-25 -2 -39 2t-21 12t-9 20t-3 26q-8 93 -8 180.5t-1 169t-8 158t-30 147.5q-2 6 3.5 16t22.5 10q18 -1 41.5 -0.5t48 1t50 0t47.5 -3.5q11 -2 26.5 0t23.5 -1q24 -8 35 -23t8.5 -30t-19 -26t-46.5 -11q-26 0 -62 1.5t-64 -2.5
q3 -38 11 -82.5t6 -87.5q31 -8 59.5 -9t54.5 -10q15 -5 26 -18.5t12.5 -27.5t-8.5 -24t-36 -8q-29 2 -55.5 -4.5t-55.5 -11.5q1 -50 3 -82.5t3 -58.5t-0.5 -51t-7.5 -59q27 -2 57.5 0t62.5 4q15 0 30.5 4.5t29.5 2.5q19 -2 26.5 -17t5 -32t-13.5 -32.5t-30 -18.5zM666 172
q32 0 45.5 -13.5t10.5 -32.5t-21.5 -37.5t-52.5 -28.5q-25 -7 -45.5 -12t-39.5 -8t-39 -6t-44 -6q-23 -3 -40.5 10.5t-25.5 28.5q-6 11 -3.5 21.5t7.5 20.5l9.5 19t4.5 18q-2 78 -4.5 146.5t-4 133.5t-2.5 130t0 136q0 12 4 24.5t12 21.5t19.5 12t26.5 -4q18 -8 34.5 -9.5
t33 -0.5t32.5 2.5t32 -0.5q27 -3 44 -16.5t20.5 -29.5t-9 -31t-45.5 -21q-27 -5 -51.5 -2.5t-47.5 -6.5q-1 -17 -1.5 -30.5t-1.5 -26.5t-1.5 -27t-0.5 -33q14 -3 32 -3.5t37 0t37.5 0.5t33.5 -3q22 -4 32.5 -18.5t9 -31t-14.5 -29.5t-39 -15q-16 -1 -33 -0.5t-33.5 -0.5
t-31 -3t-25.5 -7q-1 -45 -1 -73.5v-54t-1.5 -53.5t-7.5 -71q16 -2 28 -1.5t23.5 2t25 4t31.5 4.5q11 2 21.5 7t20.5 5z" />
    <glyph glyph-name="F_f" unicode="FF" horiz-adv-x="835" 
d="M387 696q-4 -5 -12.5 -10t-18.5 -9.5t-20.5 -7.5t-18.5 -3q-43 -4 -79.5 -2.5t-74.5 -6.5q-7 -15 -7.5 -33t1 -36.5t4 -35.5t2.5 -30q23 -12 50.5 -13.5t56 0.5t57 4.5t53.5 -1.5q18 -3 22 -14t-2.5 -24.5t-21.5 -25.5t-34 -16q-27 -6 -48 -11.5t-41 -9.5t-41 -4t-50 5
q-8 -43 -3 -91.5t12 -98.5t10.5 -100t-6.5 -95q-2 -9 -15.5 -12.5t-28.5 -1.5t-28 9t-15 18q-11 71 -14 143t-4 149t-3.5 159t-12.5 172q-1 7 -3.5 19.5l-5 25t-2.5 23.5t5 16q9 9 18.5 10t19 -1.5t20 -5t20.5 -1.5q53 7 105 8t85 -5q15 -3 30.5 -8t27 -12t16 -16t-4.5 -20z
M761 738q20 -7 30 -24t9 -34.5t-13 -31t-36 -14.5q-13 0 -28.5 2.5t-27.5 3.5q-35 1 -69 0t-66 -12q4 -23 6.5 -56t-1.5 -75q14 -10 33.5 -14t42 -5.5t47 -1t47.5 -0.5q56 -2 60.5 -24.5t-54.5 -49.5q-39 -18 -85 -26.5t-84 -3.5q-10 -32 -9 -69.5t4.5 -76.5t7 -79.5
t-1.5 -78.5q-2 -19 -15 -32.5t-28 -19.5t-27.5 -3.5t-15.5 14.5q-12 62 -11 136.5t4 154t3 159.5t-13 152q-2 11 -6.5 20.5t-7.5 20t-3.5 22.5t6.5 28q8 19 32 23.5t54 6.5q35 2 78.5 1.5t83.5 -8.5q12 -2 28 -1.5t26 -3.5z" />
    <glyph glyph-name="G_g" unicode="GG" horiz-adv-x="845" 
d="M386 360q3 -13 2 -20.5t-4.5 -12t-9.5 -8.5t-13 -9q5 -25 4.5 -62.5t-5.5 -74t-13 -67t-18 -42.5q-10 -13 -33 -26.5t-51.5 -21.5t-57.5 -9.5t-51 9.5q-28 14 -47.5 49.5t-31.5 83.5t-17 104.5t-4 113.5q1 54 6 111.5t18 111.5t36.5 99t61.5 73q5 3 16 7t25 5.5t28.5 0
t24.5 -8.5q29 -20 48.5 -46.5t28.5 -65.5q2 -9 3 -21t-1 -24.5t-7 -23t-16 -15.5q-20 -10 -32 -4.5t-18 21.5q-5 14 -11.5 29t-14 26t-16 16t-18.5 -1q-18 -10 -32 -39t-23.5 -68.5t-13.5 -86.5t-3 -92q2 -41 5.5 -90t13 -89.5t25.5 -65t41 -16.5q17 5 31 9t19 21
q6 20 8 46.5t0.5 50.5t-6.5 41t-15 18q-43 7 -52.5 29.5t7.5 57.5q2 3 11 5.5t20.5 4t23 2t17.5 1.5q41 7 73 -1.5t38 -34.5zM826 328q-11 -3 -15.5 -5.5t-7.5 -4t-7.5 -3.5t-16.5 -5q2 -18 5.5 -46t6 -58t3 -58t-2.5 -46q-3 -16 -6.5 -35.5t-12 -32t-23.5 -13t-40 20.5
q-39 -22 -74 -26.5t-65 6t-53.5 34.5t-39.5 58q-21 46 -31.5 104t-11 120t9 124.5t27.5 118t44.5 100t60.5 69.5q6 5 27 9.5t46 6t48.5 -1.5t33.5 -14q8 -8 15 -21.5t12.5 -29.5t9 -33t3.5 -32q0 -12 -6 -26t-14.5 -26t-18.5 -20t-17 -8q-24 0 -34 14.5t-15 30t-9.5 26.5
t-17.5 5q-37 -18 -60 -50t-35 -72.5t-15 -88t-2 -95.5q1 -31 5.5 -61.5t14.5 -57.5t26.5 -47.5t41.5 -31.5q24 -10 39.5 -4t24.5 22t12 38.5t2.5 45.5t-4.5 42t-10 28q-20 4 -33 16t-16.5 26.5t2.5 29t24 23.5q37 18 75.5 22.5t80.5 -3.5q21 -4 30.5 -16t10 -26t-6.5 -26
t-20 -16z" />
    <glyph glyph-name="H_h" unicode="HH" horiz-adv-x="909" 
d="M414 364q0 -46 3.5 -87t5 -80t-1.5 -76.5t-17 -76.5q-5 -15 -18.5 -20t-28 -3t-25 8.5t-10.5 12.5q0 42 1.5 74.5t2 66t0.5 72.5t-3 93q-51 -5 -91 -10t-82 -8q-3 -31 -2 -62.5t3 -60t4.5 -54.5t3.5 -47q1 -23 1 -42.5t-5 -33.5t-16.5 -22t-32.5 -9q-19 0 -28.5 20
t-13 51t-4 67t-0.5 67q-2 125 -11 251t-12 256q0 11 5.5 20t8.5 12q14 15 29 20.5t28.5 3.5t24 -9.5t16.5 -18.5q6 -13 2 -25.5t-4 -23.5q-2 -43 -5 -72t-4.5 -54.5t0.5 -54t10 -72.5q18 2 36 2.5t38 1t44.5 1t54.5 1.5q7 28 5.5 58.5t-5 61t-7.5 59.5t-3 55v28.5t3 25.5
t11 17t25 3t28.5 -14.5t18 -27t10 -32.5t3.5 -32q2 -63 3.5 -134.5t0.5 -146.5zM852 419q0 -39 3 -79t6 -79t4 -76.5t-2 -70.5q-1 -10 0 -20t1.5 -19.5t-1 -18.5t-8.5 -18q-5 -6 -17.5 -9.5t-26.5 -3.5t-27 4t-19 11q-6 8 -6.5 17t1.5 19t4.5 20t2.5 20q1 56 3 116.5
t-8 111.5q-25 -1 -44.5 -3.5t-36 -4t-32 -1.5t-34.5 3q-8 -25 -9 -60.5t1.5 -70.5t6 -64t5.5 -41q2 -10 0 -21.5t-7 -22t-13 -18t-19 -9.5q-12 -3 -23.5 0.5t-21 11t-16 17t-9.5 18.5q-6 18 -6.5 43t1.5 51.5t5.5 52t4.5 44.5q9 112 6.5 225t-28.5 230q-2 11 8.5 21t26 14.5
t31.5 1.5t24 -18q17 -33 22 -64t5 -65t-1 -73.5t4 -90.5q17 -2 33 -2t33 0.5t35.5 0t40.5 -4.5q6 35 8 67t1.5 63.5t-3 64t-6.5 67.5q-1 13 10 21t27 10t31.5 -2.5t21.5 -16.5q15 -30 18 -65t0.5 -73.5t-7 -79t-4.5 -81.5z" />
    <glyph glyph-name="J_j" unicode="JJ" horiz-adv-x="840" 
d="M341 175q-2 -26 -9.5 -56t-20.5 -55.5t-32 -43.5t-43 -20q-27 -2 -56.5 13t-55.5 37.5t-44.5 48t-23.5 44.5q-4 18 -8.5 37.5t-6.5 40.5q-3 29 9 44.5t27.5 20t30.5 -2.5t19 -23q12 -52 30 -91t59 -65q25 44 34 95.5t8 106t-8.5 112t-14.5 113t-10 109t4 100.5
q3 18 15.5 27t27 10.5t26.5 -4t13 -15.5q7 -60 15 -128t13.5 -141.5t6.5 -152.5t-5 -161zM782 363q1 -32 -0.5 -70t-7.5 -76.5t-16 -75.5t-25 -66.5t-35 -48.5t-46 -23q-31 -4 -56.5 3t-45 22t-34.5 36.5t-27 45.5q-10 20 -18 35t-14.5 30t-12 31.5t-10.5 39.5q-7 37 5 57
t30.5 27t36 2.5t20.5 -16.5q17 -69 40 -118t62 -78q39 45 52.5 94t13 106t-9.5 123t-14 143q-2 31 -6 62t-3 56t10.5 41.5t34.5 17.5q17 1 29.5 -20t20.5 -56t12.5 -79t7 -88.5t4 -86t2.5 -70.5z" />
    <glyph glyph-name="K_k" unicode="KK" horiz-adv-x="957" 
d="M425 48q-9 -10 -20.5 -16t-22.5 -6.5t-20 4t-13 15.5q-6 19 -13.5 42t-17.5 40q-13 23 -26 50t-28 54t-32 52t-38 43q-9 -14 -18.5 -32.5t-15.5 -35.5q-5 -19 -6.5 -44t0.5 -49t6.5 -44t10.5 -28q7 -9 9 -23.5t-2 -28.5t-14.5 -23.5t-29.5 -8.5q-24 2 -37.5 15.5
t-19.5 32t-7.5 39.5t-3.5 38q-12 146 -18 284t-19 282q-3 30 13 45t36 14.5t38 -16.5t21 -49q3 -38 5 -66.5t3.5 -56.5t2 -58t0.5 -71q17 20 27 37t19 34.5t20 37.5t29 45q9 12 21 31t25 38.5t27 37.5t28 29q8 7 18.5 11.5t22 4t22.5 -8.5t21 -27q8 -15 4.5 -35t-12.5 -33
q-20 -29 -45 -51.5t-45 -50.5q-15 -20 -22 -32.5t-12.5 -23t-11.5 -22.5t-18 -32q21 -32 42 -68.5t40.5 -74.5t38 -75t34.5 -70q11 -23 15.5 -49.5t-11.5 -46.5zM898 19q-25 1 -40 10t-30 37q-16 30 -33.5 71t-37 82.5t-41 78.5t-44.5 58q-9 -8 -21.5 -22.5t-24.5 -23.5
v-52.5t1 -38.5t3 -38t4 -53q10 -12 14 -28.5t2 -32t-10.5 -27.5t-24.5 -15q-32 -6 -47.5 6.5t-21.5 35t-5.5 52t0.5 58.5q-1 71 -2.5 146t-4.5 148.5t-8.5 142t-15.5 126.5q-1 11 8.5 18t23 9t27 -1.5t19.5 -14.5q19 -32 26.5 -61.5t10 -60.5t2 -65t2.5 -76q25 15 45.5 38
t40 49.5t39.5 55t42 55.5q6 8 11.5 17.5t11.5 18t13 14.5t17 7q24 2 37 -10t17 -30t0.5 -37t-12.5 -33q-17 -27 -37.5 -53t-40 -49t-36 -43t-26.5 -35q13 -24 37.5 -65t45.5 -86q20 -43 39.5 -81t33.5 -75q5 -14 17 -25t15 -25q3 -12 2 -25.5t-6 -25t-14 -19t-23 -7.5z" />
    <glyph glyph-name="L_l" unicode="LL" horiz-adv-x="813" 
d="M422 144q-2 -18 -16 -34.5t-33 -27.5q-28 -16 -59 -24t-64 -14t-67 -11t-67 -15q-17 -5 -29 -2t-19 11t-9 19.5t0 21.5q13 61 17.5 133.5t3 148t-6.5 151.5t-11 145q-1 13 -6 25.5t-8 24t-1.5 21t11.5 16.5q36 24 58 13.5t33 -38t14.5 -63.5t2.5 -62q-1 -63 0 -118
t2.5 -107.5t3.5 -103.5t3 -107q30 -4 55 -2t47.5 7t43 12t40.5 11q9 2 19.5 0t20 -6.5t16 -10.5t5.5 -14zM752 47q-19 -10 -43 -15.5t-51 -7t-55 0.5t-55 6q-18 3 -28.5 8t-16 15t-7.5 26t-2 40q-1 72 0.5 143.5t1 144t-6 146.5t-20.5 150q-1 8 3.5 16t13.5 13t21 6t24 -5
q25 -13 36.5 -36.5t16 -52t4 -59t-0.5 -57.5q0 -53 2 -105t4 -101.5t3 -94.5t-2 -84q20 -9 38.5 -11t35.5 -0.5t33.5 5t32.5 6.5q31 5 47 -4.5t17.5 -25.5t-10 -34.5t-36.5 -32.5z" />
    <glyph glyph-name="M_m" unicode="MM" horiz-adv-x="1151" 
d="M527 23q-7 -10 -18 -13t-22.5 -0.5t-21 8t-14.5 11.5q-13 18 -14 47.5t-3 55.5q-3 48 -7 72t-8.5 42.5t-8.5 42.5t-7 72q-10 -11 -19 -33.5t-18.5 -50t-20 -59t-24.5 -60.5q-11 -25 -21 -41t-31 -19q-13 -2 -22 6t-16 21.5t-13 30t-13 31.5q-11 26 -22 57t-21.5 60.5
t-19.5 54t-17 37.5q-4 -37 -5.5 -66t-2 -55t-0.5 -50.5v-51.5q-1 -23 6.5 -49.5t11.5 -50t-0.5 -41.5t-28.5 -24q-31 -9 -47 5t-22.5 37.5t-7 51t-0.5 46.5q0 138 9 280.5t23 289.5q1 12 14 17t28.5 4t29 -9t14.5 -23q7 -51 19.5 -103.5t30 -103t37.5 -97.5t42 -86
q20 32 33.5 70t24 78.5t21 81.5t23.5 78q5 14 6.5 29.5t3 30.5t5 28.5t12.5 23.5q4 5 13 6.5t19.5 0t19 -7.5t10.5 -18q14 -64 20.5 -141t11 -157.5t8.5 -161.5t14 -155q2 -12 5.5 -22.5t6 -20t2 -19t-7.5 -18.5zM1127 33q-18 -19 -34.5 -20.5t-30 6.5t-22 21.5t-10.5 25.5
q-9 54 -10.5 92.5t-2.5 75t-3.5 77.5t-13.5 101q-10 -20 -18.5 -50.5t-16.5 -64.5t-17 -68.5t-19.5 -64t-24 -50.5t-32.5 -28q-20 -8 -35.5 9t-28.5 47.5t-23.5 70.5t-19.5 78.5t-17 70.5t-16 48q-8 -42 -12 -82.5t-5 -79.5t-1 -77t-1 -74q0 -10 2.5 -21.5t3 -22t-2 -19.5
t-12.5 -14q-16 -7 -29.5 -4.5t-23.5 10.5t-16 19t-9 21q-4 16 -4 34.5t1.5 37t3.5 35.5t3 30q4 63 8.5 121t6.5 116.5t1.5 120t-6.5 131.5q-1 18 10 32t26.5 22t31.5 9.5t24 -5.5q21 -19 36.5 -50t26.5 -69t19 -80t16 -82.5t16.5 -77t19.5 -63.5q21 22 34.5 61.5t23.5 84
t18.5 88t20.5 73.5q5 12 10 28.5t12 32.5t16 29t21 19q21 10 34 10.5t21 -5.5t12 -17t7 -24q3 -15 4 -37.5t0.5 -47.5t-2 -49t-1.5 -42q0 -47 1.5 -101.5t4.5 -110t6.5 -108.5t6.5 -97q1 -13 5.5 -24.5t7.5 -22t3.5 -19.5t-5.5 -16z" />
    <glyph glyph-name="N_n" unicode="NN" horiz-adv-x="1033" 
d="M454 265q3 -32 8 -71t6 -74t-5.5 -62t-26.5 -35q-40 -16 -64.5 -1.5t-27.5 52.5q-1 9 -5.5 25t-11 32.5t-13 31.5t-11.5 23q-28 49 -45.5 80t-32.5 58t-32 58.5t-46 80.5q-6 -39 -6 -85.5t2.5 -92t6 -85t4.5 -64.5q20 -42 16 -68.5t-40 -37.5q-15 -4 -25.5 1.5t-18 14.5
t-12 20.5t-6.5 19.5q-9 33 -10 75t0.5 86t4 87t0.5 77q-4 73 -11.5 149t-0.5 142q2 18 0.5 33.5t13.5 26.5q21 16 42.5 9t35.5 -23q14 -15 23.5 -36t17 -44.5t14 -46.5t13.5 -41q16 -42 35 -78t38 -68.5t36.5 -62.5t30.5 -61q3 26 3 50v47.5t-0.5 48.5t0.5 53q1 18 -2.5 44
t-6.5 54.5t-4 56t5 48.5q6 23 23.5 32t39.5 10q30 2 38.5 -15t6.5 -42.5t-9 -56.5t-7 -58q0 -13 1 -37t2 -53.5t2.5 -62t3.5 -63.5t4 -57.5t3 -43.5zM980 166q6 -16 9.5 -35.5t2.5 -37.5t-6 -31.5t-16 -17.5q-28 -11 -48.5 -9t-34 14t-20.5 30.5t-9 40.5q-20 36 -44 78
t-49.5 87t-51.5 90.5t-51 88.5q-4 -58 -6 -107t-0.5 -97.5t6 -101.5t11.5 -118q2 -19 -13.5 -25t-35 -3t-36 14t-15.5 26q4 58 3 127t-2.5 142.5t-2.5 147.5t3 141q1 15 -1.5 31.5t-3.5 32t2.5 28.5t16.5 21q27 18 50.5 4t43.5 -45t36.5 -70.5t29.5 -73.5q14 -36 32 -71
t36 -66.5t34.5 -59.5t27.5 -49q11 53 8.5 111.5t-1.5 132.5q0 18 -3 50.5t-3 65t7.5 57.5t28.5 27q22 2 34.5 -13.5t19 -39t8 -48.5t1.5 -43q-1 -101 3 -211.5t-1 -214.5z" />
    <glyph glyph-name="O_o" unicode="OO" horiz-adv-x="853" 
d="M376 515q5 -39 5 -92t-6 -108.5t-19.5 -109t-35.5 -95t-53.5 -65.5t-75.5 -20q-35 3 -62 26t-46 58.5t-31.5 79.5t-19.5 89t-9 87t0 74q5 80 21.5 154t45.5 135q5 11 18 19.5t28.5 14.5t32.5 10t30 4q42 1 73.5 -26.5t53 -68t34 -86t16.5 -80.5zM205 147q31 9 48.5 36.5
t25.5 66t8.5 83t-2.5 87.5q-3 48 -12.5 89t-23.5 71.5t-31.5 47.5t-37.5 17q-14 0 -24.5 -17t-18 -43.5t-13 -58.5t-8.5 -61t-4.5 -51t-1.5 -30q0 -46 6.5 -91.5t18.5 -80t30 -53t40 -12.5zM825 428q-2 -73 -17 -145.5t-40.5 -130t-60 -94t-75.5 -38.5q-44 -2 -76 19
t-54.5 56.5t-36 82.5t-20.5 96.5t-9 98t-1 87.5q1 45 14 91.5t34 86t47.5 68t54.5 36.5q55 17 100 -5t77 -68t48.5 -109.5t14.5 -131.5zM723 428q0 37 -11 73.5t-29 64t-41 42t-46 6.5q-19 -6 -33 -27t-23 -47.5t-13.5 -54t-5.5 -47.5q-2 -32 2 -69t12.5 -73t20.5 -68
t26.5 -54t31.5 -31t34 1q32 18 48 45.5t22 63t5.5 79.5t-0.5 96z" />
    <glyph glyph-name="P_p" unicode="PP" horiz-adv-x="845" 
d="M374 440q-10 -19 -30 -43t-48 -43.5t-62.5 -30.5t-73.5 -4q0 -30 0.5 -47t0.5 -31t0.5 -30.5t0.5 -44.5q0 -25 5.5 -49t7 -45t-5.5 -38t-30 -28q-22 -11 -35 -9t-20 10.5t-10.5 21.5t-5.5 25q-4 20 -4 42.5t1 45.5t2.5 46.5t-0.5 45.5q-7 108 -11 209t-3 207q0 7 -5 13.5
t-9.5 15t-6.5 19t5 25.5q6 13 15 19.5t19.5 8.5t21 2h19.5q26 0 52.5 -1.5t52.5 -6.5t50 -14t44 -24q27 -20 46 -53.5t28 -71.5t7 -75.5t-18 -66.5zM316 524q-2 24 -13.5 47.5t-32.5 41t-52.5 26t-72.5 3.5q1 -17 0 -42t-1 -53t1 -55.5t6 -49.5q44 -15 76 -13t52 15
t29.5 34.5t7.5 45.5zM775 391q-16 -19 -39 -34t-49.5 -26.5t-54 -17.5t-53.5 -7q5 -26 9.5 -73t2.5 -101q-1 -13 -0.5 -30t-2.5 -33t-12 -30.5t-29 -23.5q-24 -11 -38.5 -7t-21 16t-6.5 29t4 31q5 17 6.5 44.5t2 58.5t-0.5 61t-2 52q-4 90 -11 166.5t-9 153.5
q-21 5 -28.5 22t-3 36.5t20.5 35.5t43 19q63 6 119 -1t105 -26q40 -15 64.5 -52.5t31.5 -84t-4.5 -94.5t-43.5 -84zM739 535q-1 20 -13.5 37t-35 28t-54.5 15.5t-73 -1.5q-2 -50 5 -99.5t4 -87.5q47 -13 80 -14.5t52 11.5q14 9 21.5 23.5t10.5 30t3.5 31t-0.5 26.5z" />
    <glyph glyph-name="R_r" unicode="RR" horiz-adv-x="836" 
d="M380 160q8 -24 18 -43t15 -35t2 -29t-23 -25t-34.5 -9.5t-24.5 12t-14.5 22.5t-5.5 23q-1 23 -14 55.5t-31.5 66.5t-41.5 65.5t-46 51.5q-9 -6 -18.5 -9.5t-20.5 1.5q1 -22 0 -50t-0.5 -59.5t4 -67t12.5 -73.5q2 -7 0 -17.5t-10 -18.5t-23 -11t-39 6q-11 4 -16.5 14
t-7.5 23.5t-2 28.5t-1 28q-4 56 -4.5 111.5t-3.5 121.5q-3 48 -1.5 96.5t1.5 96t-3 93t-14 88.5q-4 16 7.5 29.5t31.5 16.5q59 8 110.5 0t90.5 -28q21 -11 39 -33.5t29 -52.5t14 -65t-6 -73q-3 -14 -11 -35t-19 -42.5t-24.5 -40t-29.5 -27.5q14 -16 30 -38.5t31.5 -49.5
t29.5 -56.5t24 -61.5zM128 423q16 5 31.5 8t29 6t25.5 7.5t21 13.5q20 19 29 45.5t12 56.5q2 23 -10 42t-33 32.5t-48 20.5t-53 6q2 -20 1.5 -50.5t-2 -63.5t-3 -65.5t-0.5 -58.5zM801 129q3 -9 6 -23t3 -28t-4.5 -25.5t-15.5 -16.5q-25 -10 -40.5 -9t-24 10t-12.5 23.5
t-8 30.5q-6 27 -15 59t-20.5 64t-26.5 62t-33 52q-11 -8 -29 -12t-28 -5v-52v-33.5v-24.5t1 -25.5t2.5 -35t4.5 -54.5q1 -16 -2.5 -31t-12.5 -26.5t-25 -17t-39 -1.5q-18 3 -22 25t-2.5 53.5t5.5 68.5t3 70q-1 56 -5 113.5t-7.5 114t-5 112t2.5 107.5q-18 15 -23.5 31.5
t4.5 29.5t37.5 21t75.5 6q44 -1 85 -17.5t73 -43t53 -59t24 -67.5q3 -31 -3 -59.5t-17.5 -52.5t-27 -43t-31.5 -33q23 -52 47 -115.5t53 -142.5zM684 576q-4 13 -13.5 27t-26 25.5t-40 18.5t-55.5 6q-8 -22 -9.5 -50.5t0 -59.5t4 -62.5t1.5 -59.5q31 2 64 10.5t51 28.5
q10 11 16 27t9 32.5t2.5 31.5t-3.5 25z" />
    <glyph glyph-name="S_s" unicode="SS" horiz-adv-x="816" 
d="M284 34q-13 -9 -29 -16.5t-36 -9t-43.5 6t-51.5 28.5q-7 5 -22.5 20.5t-32.5 37t-31 45.5t-17 45q-4 33 6.5 55t26.5 30t33.5 1t27.5 -32q12 -31 33 -58t43.5 -44t42 -21t27.5 11q26 49 23.5 85.5t-22.5 71.5q-19 33 -47.5 54t-58.5 38.5t-57 35.5t-42 43q-12 20 -16 48
t0 60t16.5 65t33.5 62q10 14 24 28.5t32 26t40 17.5t47 3q11 -1 27 -5.5t32.5 -14t30.5 -26t21 -42.5q2 -8 7 -21t7.5 -27.5t0 -28.5t-14.5 -23q-17 -13 -43 -16t-41 10q-11 10 -15.5 23.5t-8.5 26.5t-10.5 23.5t-23.5 14.5q-14 3 -27 -6t-23.5 -24t-17.5 -31t-7 -26
q-1 -28 10 -46t30.5 -31.5t46.5 -27t57 -33.5q22 -14 42 -34.5t33.5 -52.5t18.5 -77.5t-3 -110.5q-5 -40 -22 -73t-57 -58zM783 264q0 -25 -4.5 -54.5t-12.5 -58t-19 -53t-23 -38.5q-38 -41 -90.5 -49.5t-105.5 30.5q-7 5 -19.5 13.5t-27 19.5t-28.5 26t-23 34
q-8 15 -14 31.5t-7.5 33t4 33t21.5 30.5q34 29 62.5 7.5t37.5 -81.5q18 -27 39 -41.5t40 -19.5t34.5 -1.5t21.5 12.5q24 34 29 62.5t-2.5 52t-25 42.5t-38.5 33q-33 22 -60 38t-48 29.5t-35 26.5t-21 29q-11 26 -8 61t13.5 70t25 66t26.5 50q20 30 48 47.5t57 21.5t56 -4.5
t44 -30.5q21 -27 35.5 -53t17.5 -50t-7.5 -46t-39.5 -41q-16 -10 -27.5 -6.5t-19.5 15t-12.5 28t-6.5 31.5q-1 8 -1 15.5t-2.5 14.5t-9.5 11.5t-23 6.5q-17 2 -32 -14.5t-25.5 -39.5t-15 -46t-1.5 -34q7 -22 22 -37t36 -28t46 -27.5t52 -36.5q20 -16 33 -29t20.5 -26.5
t10.5 -31t3 -44.5z" />
    <glyph glyph-name="T_t" unicode="TT" horiz-adv-x="932" 
d="M422 644q-28 -11 -61 -8.5t-62 2.5q-16 -86 -14.5 -180t5.5 -195q1 -30 9.5 -60t15.5 -58.5t8.5 -54.5t-11.5 -48t-30 -27t-31.5 -0.5t-24.5 15t-11 17.5q-6 78 -10 157.5t-7.5 156.5t-7 149t-7.5 134q-22 5 -46 0t-46 -9.5t-40.5 -5t-29.5 11.5q-9 10 -14 24.5t-5 29
t5 25.5t17 14q48 12 94 13.5t94 -1t98.5 -7t106.5 -4.5q29 0 40 -12t9 -27.5t-14 -30.5t-30 -21zM908 637q-17 -10 -33.5 -10.5t-34 3t-36 7.5t-38.5 1q-4 -48 -6.5 -106t-3 -122t1 -130.5t5.5 -131.5q1 -16 3.5 -29.5t3.5 -25.5t-1 -21.5t-10 -17.5q-25 -25 -42 -33.5
t-27.5 -5.5t-16 13.5t-8.5 21.5q-4 14 -4.5 35t0.5 44.5t2.5 45t-0.5 34.5q-5 53 -5 104t-0.5 103.5t-3 107.5t-11.5 114q-25 7 -49.5 7.5t-45.5 3t-36 10t-21 27.5q-7 25 1.5 36.5t28 15.5t46.5 3t56 -2q38 -1 77.5 2t77 4.5t69.5 0t54 -11.5q10 -4 15 -18.5t5.5 -30
t-3 -29.5t-10.5 -19z" />
    <glyph glyph-name="U_u" unicode="UU" horiz-adv-x="869" 
d="M392 337q1 -19 1.5 -53t1 -72t0.5 -74.5t1 -59.5q1 -31 -11.5 -44.5t-29 -12.5t-31 15t-16.5 36q-37 -23 -70.5 -36t-62 -15t-49.5 7.5t-32 31.5q-19 37 -31 87.5t-18.5 108.5t-8 120t0 122t6 115.5t10.5 98.5q1 9 9 18.5t18.5 17t22.5 10.5t21.5 -0.5t14.5 -15t2 -34.5
q-10 -77 -11 -166t5 -186q3 -45 5 -90t10 -77t25 -44.5t50 7.5q25 15 39.5 26t22 23.5t10 30.5t3.5 48q2 29 2 65.5t-0.5 75.5t-2 78.5t-4.5 74.5q-2 29 -2 56.5t5 51.5t17.5 42t34.5 26q15 5 22 0.5t10 -16t4 -27.5t4 -33q5 -37 5.5 -83.5t-0.5 -94t-2.5 -89.5t-0.5 -70z
M821 598q4 -32 7 -76t4 -92.5t0.5 -98.5t-2.5 -95.5t-5.5 -83t-8.5 -60.5q-4 -20 -13.5 -38t-21.5 -26t-25 -2t-24 34q-19 -23 -39.5 -38.5t-42 -21t-45 0.5t-50.5 27q-25 20 -39 63t-22 93t-11 97.5t-5 75.5q-3 39 -4 85t0 92.5t4 91.5t6 82q2 20 17.5 33.5t33 18.5
t31.5 0.5t12 -21.5q-6 -50 -9 -109t-3.5 -121.5t3 -126.5t10.5 -124q2 -15 4.5 -35.5t7 -39.5t13 -33.5t21.5 -17.5q19 -5 35.5 0.5t29 16t20.5 24t10 25.5q8 40 11.5 89t4 102t-2.5 108t-9 107q-1 13 -1.5 28t3.5 30t13.5 28.5t26.5 24.5q24 15 35 5.5t14.5 -30.5t3 -47.5
t2.5 -44.5z" />
    <glyph glyph-name="V_v" unicode="VV" horiz-adv-x="812" 
d="M390 756q-6 -57 -15.5 -127t-20 -147t-20 -158t-15.5 -161q-2 -31 -3 -57t-5.5 -45.5t-14 -32.5t-28.5 -19q-18 -5 -30 -3.5t-21.5 9t-17 19.5t-15.5 28q-18 34 -31 75.5t-22.5 85t-18 87t-17.5 80.5q-11 44 -22 83.5t-20.5 76.5t-18.5 73.5t-15 75.5q-2 10 7 19
t21.5 13.5t26.5 1.5t22 -17q35 -62 51 -122t26 -121t21 -124t36 -131q19 74 25 135.5t10.5 121t12.5 122.5t32 139q5 16 18.5 26.5t28 14t25 -1t8.5 -19.5zM791 714q-6 -48 -12.5 -107.5t-14 -123t-15.5 -127.5t-16 -121q-4 -24 -9 -60.5t-14 -70t-23 -58t-36 -26.5
q-21 -1 -37.5 19.5t-28.5 49.5t-19.5 59.5t-12.5 49.5q-6 26 -12 58t-12 66.5t-13 71t-15 72.5q-8 37 -21 75.5t-22 74.5t-10.5 66t13.5 50q18 24 32.5 26.5t21.5 -14.5q26 -61 42.5 -124t29.5 -125t25.5 -123.5t30.5 -121.5q15 51 23.5 108.5t14.5 116.5t12 117t18 112
q3 16 17 26.5t28.5 13t25.5 -4t9 -25.5z" />
    <glyph glyph-name="W_w" unicode="WW" horiz-adv-x="1168" 
d="M557 644q-14 -92 -21.5 -182.5t-9.5 -181.5q0 -41 0.5 -80t-1.5 -76q-1 -14 -1 -29.5t-2.5 -29.5t-9 -26t-20.5 -20q-12 -7 -24 -5t-22.5 10.5t-19.5 21t-16 26.5q-20 42 -33 90t-23.5 97.5t-20 98.5t-23.5 94q-10 -19 -18.5 -62t-16 -92t-13.5 -94.5t-12 -69.5
q-5 -23 -7.5 -45t-8.5 -40t-18.5 -30.5t-37.5 -15.5q-23 -3 -33.5 9t-15 31t-5 41.5t-3.5 39.5q-12 72 -27.5 143.5t-30.5 142t-27.5 139t-18.5 134.5q-2 25 9.5 44.5t27 27.5t30 3t18.5 -30q9 -55 19 -104t21 -100t22 -106.5t20 -123.5q6 10 11.5 36t11 60.5t10 73.5t9 75
t9 65t8.5 44q7 26 17.5 44t38.5 20q10 1 18.5 -5t15.5 -15.5t13 -21.5t10 -24q10 -28 19 -76t18 -97.5t18.5 -90t20.5 -54.5q0 77 12 161t20 168q2 24 6.5 44.5t14.5 32.5t25.5 12.5t40.5 -15.5q9 -6 11.5 -16.5t2 -23.5t-3 -25.5t-4.5 -21.5zM1120 746q26 -22 31.5 -52.5
t0.5 -69.5t-16.5 -88.5t-19.5 -110.5q-10 -73 -9.5 -143.5t-4.5 -141.5q-1 -11 1 -27.5t2 -33t-4.5 -29.5t-16.5 -18q-34 -12 -51 -9t-26 15.5t-13.5 31.5t-13.5 38q-10 22 -23 56t-26 69.5t-25.5 67.5t-21.5 50q-15 -26 -25.5 -56.5t-18.5 -63t-15 -65.5t-17 -64
q-3 -11 -4.5 -23.5t-4.5 -23.5t-9 -19t-18 -11q-34 -9 -51 5t-24.5 38t-9.5 52.5t-5 49.5q-14 111 -34.5 244t-31.5 270q-2 26 9 42t26.5 18.5t31 -11t21.5 -46.5q9 -47 17 -93.5t15.5 -95.5t14 -102t11.5 -114q8 14 15.5 39.5t15 56.5t14 65t12 63.5t9.5 52.5t6 33
q5 27 17 46.5t26.5 26.5t29.5 -2t25 -39q5 -14 10.5 -38t12 -53t14 -60t15.5 -58.5t16 -48.5t16 -30q5 58 9.5 102.5t11 86.5t15.5 87t22 104q2 8 7 15.5t12 12.5t14 6t13 -4z" />
    <glyph glyph-name="X_x" unicode="XX" horiz-adv-x="811" 
d="M324 40q-5 11 -9.5 25t-8 27t-6.5 24t-5 16q-10 23 -19.5 50t-20 54.5t-22 53.5t-26.5 45q-29 -73 -43 -150.5t-34 -152.5q-8 -29 -26.5 -38.5t-36.5 -4t-28.5 23t-3.5 41.5q11 37 20.5 70.5t18.5 66.5t18.5 67.5t20.5 72.5q3 11 8.5 27t10.5 33t8.5 33t3.5 26
q-17 51 -45.5 101t-54.5 98q-4 8 -9.5 15.5t-10 15.5t-7.5 17t-2 21q2 14 11.5 23.5t22.5 12.5t27 -1.5t24 -19.5q13 -20 22.5 -41.5t19.5 -42.5q9 -20 19 -38.5t21 -32.5q6 15 11.5 36.5t12 44t14 42.5t16.5 32q12 17 28 23t29 3t21.5 -14t5.5 -28q-1 -8 -3.5 -15.5
t-4.5 -15.5q-8 -24 -18 -51.5t-19 -56t-16.5 -56.5t-11.5 -54q8 -28 22 -64.5t28 -62.5q17 -30 28 -53.5t21.5 -47t21.5 -49.5t28 -62q6 -12 15 -30.5t13.5 -37.5t-0.5 -34t-28 -21q-27 -7 -44 2.5t-28 31.5zM781 144q9 -45 5.5 -76.5t-17.5 -57.5q-5 -8 -15.5 -4.5
t-15.5 11.5q-18 34 -32.5 65.5t-28 64t-26.5 66.5t-28 73q-13 -28 -22.5 -54.5t-17 -52.5l-15 -52t-17.5 -55q-13 -38 -34 -62q-11 -12 -22.5 -10.5t-20.5 13t-13 30.5t1 41q10 48 22.5 90t27 82.5t29 81.5t29.5 85q-35 79 -72.5 145t-80.5 136q-10 17 -5 29t19.5 18t33.5 5
t37 -11q21 -12 37.5 -38.5t30 -56.5t25.5 -59t24 -47q18 37 26 68.5t13.5 59t11.5 52t20 47.5q7 10 17.5 10t20 -9t16.5 -25t7 -37q-1 -30 -8.5 -71t-17 -82.5t-20 -79t-16.5 -61.5q6 -25 18.5 -56.5t26 -66.5t26.5 -72.5t21 -76.5z" />
    <glyph glyph-name="Y_y" unicode="YY" horiz-adv-x="799" 
d="M379 736q6 -17 -1 -37t-24 -41q-26 -91 -57.5 -180t-49.5 -181q0 -27 -1 -48t-2 -41t-1 -41t2 -48q2 -21 5.5 -44t-5.5 -42q-4 -10 -15 -16t-24.5 -6t-27.5 6t-24 20q-5 7 -5.5 17t0.5 21t2.5 21.5t0.5 17.5q-2 31 -2.5 51.5t0 38.5t0.5 37t-1 47q-48 96 -79.5 187.5
t-44.5 191.5q-1 9 -0.5 21.5t2.5 25t7 23t12 16.5q21 16 38.5 8.5t26.5 -24.5q8 -13 10 -27.5t2.5 -29t1 -29.5t3.5 -29q12 -54 25.5 -100.5t37.5 -80.5q23 58 38.5 109t32.5 102q8 26 15 54t25 54q5 7 16 9t23 -1t23 -11t15 -21zM759 723q-7 -49 -20 -96.5t-28 -96.5
t-30.5 -101t-27.5 -109q-5 -56 -7.5 -112t-0.5 -113q1 -11 4.5 -29t3 -35t-10 -30.5t-34.5 -14.5q-25 -2 -39 6.5t-20.5 23t-7.5 33.5t1 38.5t4.5 38t2.5 31.5q0 21 -0.5 35.5t-0.5 28v30.5v42q-7 23 -18 53t-21 53q-17 36 -30.5 68.5t-24.5 63.5t-21.5 62.5t-21.5 67.5
q-3 10 -1 31.5t9.5 41t20.5 31t32 0.5q12 -6 19.5 -24t13 -41t11.5 -48t15 -47q9 -21 16.5 -37.5t14 -32l13 -31t14.5 -35.5q14 29 24 64.5t20 72t20.5 71.5t25.5 65q5 9 19.5 16t29 7t24.5 -9.5t7 -32.5z" />
    <glyph glyph-name="Z_z" unicode="ZZ" horiz-adv-x="776" 
d="M332 80q-29 -14 -64 -19.5t-67 -10.5q-22 -3 -42.5 -15t-40.5 -21q-20 -10 -41 -10t-38 27q-10 17 -9 30.5t7 26t14.5 24.5t13.5 25q19 54 34 109.5t35 106.5q30 78 51 150.5t46 143.5q-24 0 -48.5 -7.5t-49.5 -15t-50.5 -11.5t-49.5 3q-11 3 -15.5 11.5t-5.5 19t1 22
t3 20.5q5 30 23.5 34.5t42.5 1.5q23 -3 48.5 3.5t52 14.5t53 15t51.5 5q46 -3 67 -27.5t-1 -68.5l-10 -18t-9 -19q-22 -58 -43.5 -114.5t-42.5 -114t-41 -118t-39 -126.5q38 -2 71.5 1.5t70.5 11.5q7 1 16.5 1t19.5 -3t17.5 -9t10.5 -17q3 -12 0 -21.5t-9.5 -17t-15 -13
t-17.5 -10.5zM763 53q-27 -11 -54.5 -18t-56 -10.5t-58 -6t-62.5 -4.5q-50 -4 -66.5 16.5t-7.5 82.5q5 34 21 69t30 70q23 54 38 94t28 77.5t25.5 79t29.5 98.5q-20 1 -40.5 -2l-41 -6t-41 -5t-41.5 1q-9 1 -17.5 9t-14.5 19t-8.5 25t0.5 27q4 15 12 21.5t18.5 8t23.5 1
t27 1.5q20 3 43 7.5t45.5 10t42.5 12.5t34 16q9 5 21 5t23.5 -4.5t20.5 -11.5t12 -15q8 -20 4.5 -48t-9.5 -48q-10 -33 -18 -57.5t-16.5 -48t-17 -47.5t-20.5 -55q-15 -41 -25.5 -73t-19.5 -63t-19 -63.5t-26 -74.5q28 -8 43.5 -9.5t29 1t30.5 7t47 7.5q38 4 54.5 -7.5
t18 -28.5t-10 -34.5t-31.5 -25.5z" />
    <glyph glyph-name=".notdef" horiz-adv-x="250" 
 />
    <glyph glyph-name=".null" horiz-adv-x="0" 
 />
    <glyph glyph-name="nonmarkingreturn" horiz-adv-x="250" 
 />
    <glyph glyph-name="space" unicode=" " horiz-adv-x="250" 
 />
    <glyph glyph-name="exclam" unicode="!" horiz-adv-x="282" 
d="M203 577q1 -18 1 -44t-1 -52.5t-3 -51t-5 -41.5q-4 -23 -16.5 -47t-33.5 -26q-10 -1 -16 5t-10 15.5t-6.5 21.5t-5.5 24q-4 16 -7.5 46.5t-6 67t-3 76.5t1 76t5.5 65t11 43q3 6 16.5 8.5t29 1t28.5 -7.5t16 -17q4 -14 5 -33.5t1 -41.5t-0.5 -44.5t-0.5 -43.5zM192 147
q16 -10 22 -25.5t3.5 -32t-11 -31t-22.5 -22.5q-12 -6 -29 -6t-32 6t-23.5 17t-4.5 26q4 13 11 30.5t18 31t28 17.5t40 -11z" />
    <glyph glyph-name="quotedbl" unicode="&#x22;" horiz-adv-x="394" 
d="M330 676q-1 -12 -5.5 -41t-12 -59t-18.5 -53t-26 -23q-19 0 -26 14t-8.5 33t1 38.5t3.5 30.5q2 16 0 41t-1 49.5t8.5 44t27.5 23.5q22 4 34.5 -5t18 -25t6 -34.5t-1.5 -33.5zM164 640q-3 -14 -5.5 -27.5t-4.5 -27.5q-1 -9 -1 -24.5t-2.5 -31t-8.5 -27t-20 -11.5
q-18 0 -27.5 11t-13.5 27t-4 33v30q2 34 -3.5 68.5t-1.5 68.5q3 24 18.5 36t33.5 11t33 -15t16 -41q1 -40 -9 -80z" />
    <glyph glyph-name="numbersign" unicode="#" horiz-adv-x="581" 
d="M570 250q-3 -14 -16 -23t-29.5 -13.5t-34.5 -5.5t-32 -1q2 -18 3.5 -36t7.5 -35q3 -11 6 -22.5t2 -22t-7.5 -19t-21.5 -13.5q-31 -12 -49 4t-26.5 43.5t-10.5 59t-3 49.5q-30 3 -60 6.5t-60 1.5q3 -21 7.5 -35t12.5 -34q6 -15 11.5 -32t5 -32.5t-10 -28t-33.5 -17.5
q-21 -4 -37 15.5t-27 48.5t-17 60t-8 49h-32.5t-31.5 4q-10 3 -18 7.5t-13 12t-5 18t7 23.5q6 11 15.5 18.5t21.5 12t25.5 7t25.5 3.5q-1 17 -1.5 33.5t-1.5 33.5q-39 -4 -79 8q-13 3 -22.5 14t-11 24t6 24t28.5 14q19 3 38 5t39 5q-2 33 -7 64.5t-12 64.5q-3 17 7.5 28.5
t27 15t33.5 -3.5t26 -28q14 -32 19.5 -66.5t7.5 -67.5q26 -1 50.5 -2t50.5 -3q-2 42 3 86t22 84q5 11 15.5 18.5t22 9t20.5 -5.5t12 -24q7 -45 4 -88.5t-1 -88.5q14 -2 34.5 -7.5t38.5 -14t28.5 -20t4.5 -26.5q-6 -13 -17.5 -20t-26 -9t-29 -1.5t-26.5 1.5q2 -21 3.5 -41.5
t3.5 -40.5q12 0 34 1t43 -2.5t35 -13.5t9 -33zM351 307q-2 21 -4 41.5t-4 40.5q-27 4 -53.5 6.5t-53.5 2.5l-2 -38t-1 -39q30 -2 59.5 -5.5t58.5 -8.5z" />
    <glyph glyph-name="dollar" unicode="$" horiz-adv-x="420" 
d="M410 262q-2 -20 -15 -34.5t-33 -25t-45 -16.5t-51 -8q-2 -14 -5 -41.5t-9 -55.5t-16.5 -48.5t-28.5 -20.5q-19 0 -27 12t-9.5 28.5t0.5 34.5t3 29q2 20 1.5 35t-0.5 27q-21 2 -41.5 6t-38.5 10q-36 11 -59.5 32t-19.5 40q3 15 12.5 20t21 5t24 -3t21.5 -4q24 -2 51.5 -8
t55 -10.5t54.5 -3.5t49 13q-23 18 -50 29.5t-55 21.5t-55 22.5t-50 32.5q-10 9 -22.5 25.5t-19.5 35.5t-6 39.5t18 37.5t46 35.5t63 30.5q0 13 -1 25t-1 42q-1 17 -3 33t0 33q2 19 12.5 34t36.5 15q29 0 40 -17t13 -41v-21q0 -23 -4.5 -44.5t-9.5 -44.5q31 0 61 -14
q15 -8 20.5 -25t3.5 -35.5t-9 -35.5t-17 -25q-13 -10 -25.5 -11t-23 5t-18.5 16.5t-13 21.5q-32 -2 -53.5 -12.5t-35.5 -27.5q8 -14 31.5 -24.5t53.5 -21.5t63 -24t59.5 -30t42.5 -39.5t13 -54.5z" />
    <glyph glyph-name="percent" unicode="%" horiz-adv-x="746" 
d="M715 139q-4 -25 -25.5 -51t-52.5 -46.5t-68 -33.5t-70.5 -12t-60.5 19t-39 58q-15 48 -5 97t35 90.5t58.5 70.5t66.5 38q25 7 48 -0.5t42.5 -25.5t34 -43.5t24 -53.5t13 -56t-0.5 -51zM322 479q-9 -25 -29 -44.5t-43 -33.5t-45.5 -22t-36.5 -11q-32 -5 -63.5 7.5
t-48.5 50.5q-19 39 -20 90.5t7 98.5q9 49 31 78.5t50.5 41t60 4t59.5 -32.5q18 -16 36.5 -41.5t31.5 -56t17 -64t-7 -65.5zM239 524q4 19 -5.5 42.5t-23.5 43t-29.5 32t-24.5 9.5q-9 -4 -21.5 -33t-12.5 -71q0 -23 3.5 -39t8.5 -25.5t10.5 -13.5t8.5 -4q12 0 25.5 4t26 12
t22 19t12.5 24zM628 144q6 15 2.5 37t-12 42.5t-21 35.5t-25.5 17q-4 1 -11.5 -3.5t-15 -11.5t-14.5 -13.5t-10 -10.5q-10 -13 -23 -36t-20.5 -47t-4 -43t26.5 -23q8 -1 27.5 4.5t41 14.5t39 19.5t20.5 17.5zM458 511q-14 -48 -29.5 -94.5l-31.5 -94.5q-20 -63 -34 -126
t-34 -125q-5 -15 -13 -33.5t-19 -29.5q-15 -17 -27 -12.5t-19.5 19t-11 33.5t-1.5 32q8 51 22.5 109.5t33 117.5t39.5 116t40 105q9 23 16.5 58.5t15 71.5t15.5 67.5t20 47.5q11 15 22 12t20 -15t15 -28.5t6 -27.5q1 -17 -4 -44.5t-12.5 -57t-15.5 -57t-13 -44.5z" />
    <glyph glyph-name="ampersand" unicode="&#x26;" horiz-adv-x="433" 
d="M403 203q0 -8 -9.5 -20t-24 -23.5t-32 -19.5t-32.5 -9l-13 -1q-4 -21 -10 -41t-8 -42q-1 -9 -1.5 -20.5t-4 -21t-10.5 -16.5t-20 -7q-27 0 -35.5 16t-7.5 37q0 5 0.5 9.5t0.5 8.5q1 16 0 34.5t-2 44.5q-28 3 -52.5 11t-41 23.5t-23.5 40.5t-1 61q3 15 11 28.5t19.5 26
t24 23t23.5 19.5q-50 18 -85 42.5t-44.5 56t12 70t83.5 84.5q8 5 19 10.5t24 9.5q1 24 -0.5 47.5t-0.5 43.5t7 39.5t28 23.5q18 3 31 -2t21.5 -15.5t12.5 -24t5 -26.5q2 -19 -1 -37t-4 -37q24 -2 47.5 -9.5t43.5 -23.5q18 -13 20 -31.5t-7.5 -33t-28.5 -21t-42 4.5
q-9 4 -19.5 10t-21.5 11t-21.5 7.5t-21.5 -0.5q-12 -3 -26.5 -10.5t-27 -19t-21.5 -26t-11 -31.5q0 -3 7.5 -11t25.5 -15t48.5 -12t75.5 -2q29 2 43.5 -10t16.5 -27.5t-6 -29t-23 -15.5q-37 -4 -67 -18t-48.5 -32.5t-23 -37.5t9 -32.5t47 -17.5t92.5 7q12 2 23 7t23 7
q31 6 34 -35z" />
    <glyph glyph-name="quotesingle" unicode="'" horiz-adv-x="240" 
d="M175 666q-1 -6 -3 -22l-4.5 -36t-4.5 -39.5t-5 -31.5q-10 -43 -26.5 -55t-31 -2.5t-22.5 34.5t-1 55q1 3 1.5 14.5t0.5 25v27v20.5q0 17 0.5 40t6 44.5t18.5 36.5t38 15q21 0 30.5 -15.5t11 -36t-1.5 -41.5t-7 -33z" />
    <glyph glyph-name="parenleft" unicode="(" horiz-adv-x="328" 
d="M308 31q-11 -8 -27 -7.5t-33 8.5q-18 9 -43 26t-51 41.5t-51 57t-44 71.5q-13 26 -22.5 67t-13 85t1.5 87t21 74q15 29 32 59.5t36 59.5t41 55.5t48 45.5q14 11 28.5 5t22.5 -21.5t6.5 -36.5t-19.5 -41q-48 -52 -81 -116t-36 -137q-2 -57 15 -105.5t43.5 -89.5t59 -75
t62.5 -63q13 -12 15 -26.5t-11 -23.5z" />
    <glyph glyph-name="parenright" unicode=")" horiz-adv-x="343" 
d="M295 292q-19 -60 -49.5 -117t-72.5 -105q-13 -16 -33.5 -27t-37.5 -21q-16 -8 -31 -7t-20 18q-8 28 22 66q24 32 50.5 73t47.5 87t33.5 94t9.5 93q-3 41 -23 77t-48 68t-59 61.5t-56 57.5q-17 19 -13 33.5t24 19.5q15 3 35.5 -0.5t39.5 -14.5q23 -12 43 -31t38.5 -41.5
t35 -46.5t30.5 -44q28 -40 41 -78t15 -74t-4.5 -71t-17.5 -70z" />
    <glyph glyph-name="asterisk" unicode="*" horiz-adv-x="400" 
d="M365 476q-13 -27 -40 -17q-7 3 -17 9.5t-20 14.5t-19.5 16t-16.5 14q1 -18 1.5 -35.5t-1.5 -34.5q-1 -6 -3.5 -15.5t-7 -18.5t-11.5 -15t-17 -5q-12 2 -21.5 13.5t-16.5 28t-11.5 34.5t-6.5 32q-14 -14 -25.5 -29.5t-25.5 -30.5q-24 -27 -41 -27t-24.5 16t-4.5 41t19 47
q16 23 37.5 40t40.5 37q-13 11 -34 24.5t-40 29.5t-29.5 35t-1.5 40q9 20 25 21.5t33 -7t33 -21.5t25 -21l6 -5v5q-1 13 -1 29t4.5 30t15 23.5t29.5 9.5q17 0 26.5 -8.5t13 -20.5t4 -26t-0.5 -26q6 7 16 20.5t22.5 25t26 16.5t24.5 -5q13 -11 8 -33t-17 -46t-26.5 -45
t-21.5 -31q12 -12 31.5 -25.5t36 -30t25 -34.5t-0.5 -39z" />
    <glyph glyph-name="plus" unicode="+" horiz-adv-x="394" 
d="M359 328q-6 -16 -33 -16q-8 0 -17.5 1t-19.5 0l-20 -2t-21 -2q-1 -6 -3.5 -29t-8 -46.5t-15 -40.5t-24.5 -11q-13 5 -22.5 15.5t-15 24t-7 27.5t0.5 26q2 10 2 26q-43 -2 -72 7q-12 3 -25.5 10.5t-21 18.5t-5.5 26t19 34q7 8 16 8.5t18.5 -2t19.5 -6t18 -3.5
q8 -1 16.5 -1h16.5q1 28 4.5 55t10.5 48t17.5 34t25.5 13q21 0 31 -14.5t13 -34t1.5 -40.5l-2.5 -35l-1 -25q18 0 45.5 -4.5t43.5 -14.5q11 -7 16.5 -18.5t-1.5 -28.5z" />
    <glyph glyph-name="comma" unicode="," horiz-adv-x="272" 
d="M206 104q-4 -25 -16 -50.5t-28 -45t-33.5 -30.5t-33.5 -6q-17 5 -25.5 22t4.5 41q8 14 16.5 28t16 29t11 30t0.5 30q-2 11 -6.5 19l-9 16t-8 17t-2.5 21q0 3 6.5 11t17 15t24 9.5t26.5 -6.5q22 -14 32.5 -30t13.5 -34t0.5 -39t-6.5 -47z" />
    <glyph glyph-name="hyphen" unicode="-" horiz-adv-x="401" 
d="M382 332q-3 -6 -9.5 -8t-16 -2t-20.5 1t-22 0q-28 -2 -58.5 -5.5t-60 -5t-55.5 -1t-46 5.5q-14 4 -26 15t-18.5 25.5t-4.5 31t17 31.5q6 5 14 5t17.5 -2.5t19.5 -5.5t19 -3q24 -1 49.5 -0.5t50 1t47.5 0t43 -4.5q13 -3 26 -10.5t22 -18.5t13 -23.5t-1 -25.5z" />
    <glyph glyph-name="period" unicode="." horiz-adv-x="259" 
d="M187 61q-14 -19 -39 -23.5t-54 14.5q-13 9 -19 19t-6 21t4.5 21t10.5 19q13 17 32.5 22.5t50.5 -12.5q14 -9 21.5 -19.5t9 -21.5t-1.5 -21.5t-9 -18.5z" />
    <glyph glyph-name="slash" unicode="/" horiz-adv-x="414" 
d="M349 714q0 -16 -3.5 -39t-9.5 -50t-14.5 -56.5t-17.5 -59.5t-18.5 -59t-17.5 -54t-15 -45t-11 -32q-20 -60 -35 -126.5t-33 -124.5q-11 -39 -33 -67q-14 -17 -31 -14.5t-29 16.5q-11 14 -16 34.5t-1 44.5q9 48 24.5 108t34 121.5t39 119.5t38.5 101q12 29 18 60t11 62
q7 34 15.5 66.5t22.5 57.5q9 17 24.5 16t27.5 -11q13 -10 21.5 -28t8.5 -41z" />
    <glyph glyph-name="zero" unicode="0" horiz-adv-x="402" 
d="M376 515q5 -39 5 -92t-6 -108.5t-19.5 -109t-35.5 -95t-53.5 -65.5t-75.5 -20q-35 3 -62 26t-46 58.5t-31.5 79.5t-19.5 89t-9 87t0 74q5 80 21.5 154t45.5 135q5 11 18 19.5t28.5 14.5t32.5 10t30 4q42 1 73.5 -26.5t53 -68t34 -86t16.5 -80.5zM285 420q-3 48 -12.5 89
t-23.5 71.5t-31.5 47.5t-37.5 17q-14 0 -24.5 -17t-18 -43.5t-13 -58.5t-8.5 -61t-4.5 -51t-1.5 -30q0 -46 6.5 -91.5t18.5 -80t30 -53t40 -12.5q31 9 48.5 36.5t25.5 66t8.5 83t-2.5 87.5z" />
    <glyph glyph-name="one" unicode="1" horiz-adv-x="202" 
d="M153 148q3 -18 7 -40.5t3 -43t-9 -34t-31 -13.5q-24 0 -37 21.5t-19 52t-7.5 65t-1.5 61.5q-1 61 -1.5 128t-2 134.5t-4.5 132.5t-9 122q-2 18 11.5 26.5t31 8t34 -9t20.5 -25.5q13 -55 13 -128t-3 -152t-4 -158.5t9 -147.5z" />
    <glyph glyph-name="two" unicode="2" horiz-adv-x="384" 
d="M352 64q-26 -13 -50.5 -20.5t-50.5 -12.5t-53.5 -8t-56.5 -6q-23 -3 -41 -5.5t-29.5 3t-16 22t-0.5 51.5q2 18 8 35.5t14 34.5l16 34t14 34q9 27 21.5 58.5t25.5 64t26 66t23 65.5q21 66 23 112t-25 63q-20 13 -59 -2t-84 -44q-11 -7 -22 -5.5t-19.5 9t-13 20t-1.5 27.5
q3 18 17.5 33.5t32.5 26.5t36.5 18t30.5 10q32 7 68 10t66.5 -5t52.5 -30.5t26 -67.5q2 -28 -2 -54.5t-11 -51.5t-16 -50t-17 -52q-12 -40 -27.5 -80t-32 -80.5t-32 -81.5t-28.5 -82q21 -5 40.5 -3.5t39 5.5t39 9.5t40.5 8.5q45 7 63.5 -0.5t18 -21.5t-15.5 -30t-38 -27z
" />
    <glyph glyph-name="three" unicode="3" horiz-adv-x="390" 
d="M316 577q-2 -20 -11 -38.5t-21 -34.5q-9 -14 -20 -26l-22 -24q48 -24 80 -70t40.5 -102.5t-11 -117.5t-74.5 -117q-13 -14 -38.5 -25.5t-56 -15t-61.5 5t-57 35.5q-15 16 -16.5 38t7 39.5t25.5 24.5t39 -7q13 -8 23 -16t20 -13q16 -10 31 -6q10 4 25.5 15.5t29.5 28
t24 37t8 41.5q-3 35 -13 62t-28 45.5t-45 27t-64 5.5q-27 -2 -40 12t-15.5 32t5 34t21.5 18q34 5 61 23t43 41t20 47t-8 41t-42 23t-81 -8q-11 -3 -21 -9t-21 -9q-17 -4 -24 8t-8 34q0 8 8 22.5t21 28t29 24t31 11.5q43 3 83 1t70 -17.5t45.5 -50.5t8.5 -98z" />
    <glyph glyph-name="four" unicode="4" horiz-adv-x="450" 
d="M378 259q8 -65 10.5 -124.5t-15.5 -108.5q-4 -10 -16 -15.5t-25.5 -5.5t-25 6.5t-13.5 20.5q-4 28 -5.5 55t-2 54.5t-2.5 55t-8 55.5q-50 -4 -98 -6.5t-86 -4.5q-36 -2 -52 10t-18 31t6 42.5t20 44.5q23 38 45 81t42 87.5t38 88t32 82.5q9 24 28.5 33.5t41 8.5t41.5 -11
t29 -25q17 -32 22 -68.5t4 -74.5q-1 -39 -4 -79.5t-1 -81.5q1 -14 1 -27.5t1 -27.5q25 -4 38 -17t14.5 -28.5t-9 -29.5t-32.5 -21zM267 595q-13 -29 -28 -61.5t-31 -65.5t-31.5 -65t-29.5 -60q12 -1 24.5 0t24.5 2q15 1 31.5 1t36.5 -2q3 23 4.5 53.5t1.5 63.5t-0.5 67.5
t-2.5 66.5z" />
    <glyph glyph-name="five" unicode="5" horiz-adv-x="363" 
d="M345 173q-6 -59 -30 -101t-61 -61.5t-82.5 -14t-93.5 40.5q-21 15 -22.5 36t10.5 37t34 22t47 -9q8 -5 16 -10.5t16 -10.5q16 -11 26.5 -13t19.5 9q21 24 27 55.5t-2 64t-30.5 63t-57.5 51.5q-22 13 -40.5 18t-41.5 10q-16 4 -28 11.5t-14 28.5q-5 72 -5 137t-2 131
q-1 28 9.5 45.5t47.5 24.5q17 3 39.5 4.5t46 2t45.5 0t38 -2.5q32 -3 48 -16t17 -28t-13 -28.5t-44 -17.5t-65 -4.5t-64 -9.5q0 -18 0.5 -42.5t1 -50.5t1.5 -51t1 -44q21 -10 41.5 -18.5t39 -18t35.5 -23.5t31 -36q15 -24 27.5 -43.5t20 -40t10.5 -43.5t0 -54z" />
    <glyph glyph-name="six" unicode="6" horiz-adv-x="419" 
d="M383 161q-2 -17 -4 -33.5t-7 -33.5t-13 -31.5t-23 -25.5q-46 -34 -87 -41.5t-75.5 4t-61 38t-44.5 61.5q-23 46 -34.5 107t-12.5 126.5t7 132t24 123.5t39 100.5t51 62.5q39 26 82 23.5t74.5 -23.5t42.5 -54.5t-14 -69.5q-11 -16 -21.5 -18.5t-20 2t-18.5 14.5t-16.5 19
t-13.5 15t-10 3q-29 -17 -51 -49t-36 -73t-21.5 -87t-7.5 -91q42 14 78.5 14.5t67 -8.5t54 -24.5t38.5 -33.5q27 -34 33 -73t1 -76zM280 212q-5 20 -15.5 32.5t-24.5 22.5q-25 19 -56 16t-65 -21q5 -30 13.5 -59.5t20 -53.5t26 -39.5t32.5 -17.5q22 -3 37.5 6t24.5 26
t10.5 40t-3.5 48z" />
    <glyph glyph-name="seven" unicode="7" horiz-adv-x="385" 
d="M354 696q-3 -11 -7 -21t-7 -20q-9 -33 -17.5 -58t-17.5 -48.5t-18 -47.5t-20 -56q-27 -83 -52.5 -166.5t-50.5 -169.5q-1 -3 5 -13t9.5 -23.5t1 -27.5t-19.5 -26q-22 -15 -41.5 -19t-34 4t-21.5 29.5t-3 55.5q4 37 18.5 72.5t28.5 70.5q20 53 36 103t30 100t27.5 101
t27.5 107q-20 3 -41.5 0t-43.5 -6.5t-44.5 -6t-43.5 1.5q-11 2 -22 5t-19 9t-11.5 16t-0.5 26q4 19 15 27.5t26 11.5t31 3t29 1q42 5 84 11.5t80 14.5q9 2 21.5 4t25 2t23.5 -4t16 -15q5 -12 4.5 -24.5t-3.5 -23.5z" />
    <glyph glyph-name="eight" unicode="8" horiz-adv-x="432" 
d="M408 214q-9 -34 -25 -69.5t-41.5 -64t-59.5 -46.5t-79 -17q-20 1 -33.5 3.5t-25 7.5t-23 14t-26.5 23q-16 15 -31 35t-26.5 45t-18.5 53t-6 58q1 24 6 55.5t15.5 64t26.5 63.5t38 54q-26 19 -38.5 46t-16.5 53.5t-2.5 47.5t2.5 29q3 17 15 34t29.5 31.5t37 24t37.5 11.5
q29 3 50.5 1.5t40 -7t35 -15.5t34.5 -24q32 -26 43.5 -55t8.5 -58.5t-18 -57.5t-37 -52q66 -46 89.5 -117t-1.5 -171zM275 629q-5 29 -26 44t-51 10q-22 -4 -35 -22t-15 -41.5t7.5 -47.5t33.5 -41q49 5 70 32.5t16 65.5zM311 332q-2 54 -24.5 79.5t-83.5 27.5
q-37 -21 -59.5 -64.5t-25 -93t17 -97t64.5 -76.5q17 -1 35.5 11t34 33.5t27 50.5t12.5 61q1 18 2 35t0 33z" />
    <glyph glyph-name="nine" unicode="9" horiz-adv-x="445" 
d="M410 697q-3 -42 -9 -92.5t-13 -103.5t-14 -106.5t-11 -101.5q-2 -22 -4 -52t-3 -60t-0.5 -57t4.5 -43q4 -14 3 -31t-8.5 -30.5t-21.5 -21t-37 -4.5q-16 2 -25 13t-13.5 26t-5.5 31t-2 28q-3 40 2.5 81t10.5 81t9 75.5t2 62.5q-53 -1 -98.5 9t-79 28.5t-53.5 45t-22 59.5
q-3 50 23.5 91.5t71.5 73t102 51t116 23.5q24 2 39.5 -0.5t24 -11t11.5 -24t1 -40.5zM304 681q-37 1 -67 -12.5t-51 -33t-33 -42t-14 -39.5q-1 -15 5 -30.5t22.5 -27t45 -17t72.5 -0.5q1 50 9.5 100.5t10.5 101.5z" />
    <glyph glyph-name="colon" unicode=":" horiz-adv-x="286" 
d="M185 449q10 -7 16.5 -20t7 -26.5t-5.5 -26.5t-21 -20q-29 -13 -49 -12t-32.5 10.5t-17.5 24.5t-3 29q2 12 9.5 26.5t21 23.5t32.5 8.5t42 -17.5zM214 94q-10 -16 -23.5 -24t-28 -10t-29 1.5t-25.5 10.5t-19.5 17.5t-11.5 22.5t1 24.5t17 24.5q19 17 44 15t45 -14
t30.5 -31t-0.5 -37z" />
    <glyph glyph-name="semicolon" unicode=";" horiz-adv-x="310" 
d="M206 104q-4 -25 -16 -50.5t-28 -45t-33.5 -30.5t-33.5 -6q-17 5 -25.5 22t4.5 41q8 14 16.5 28t16 29t11 30t0.5 30q-2 11 -6.5 19l-9 16t-8 17t-2.5 21q0 3 6.5 11t17 15t24 9.5t26.5 -6.5q22 -14 32.5 -30t13.5 -34t0.5 -39t-6.5 -47zM197 395q-14 -19 -39 -23.5
t-54 14.5q-13 9 -19 19t-6 21t4.5 21t10.5 19q13 17 32.5 22.5t50.5 -12.5q14 -9 21.5 -19.5t9 -21.5t-1.5 -21.5t-9 -18.5z" />
    <glyph glyph-name="less" unicode="&#x3c;" horiz-adv-x="370" 
d="M336 34q1 -11 -2 -20.5t-10 -22.5q-4 -9 -11.5 -10.5t-15 0.5t-14 7t-9.5 9q-40 67 -84.5 143t-81.5 153q-7 15 -16.5 27.5l-19 25t-18 25.5t-14.5 29q-4 10 1 26.5t13 34t17 33.5t13 24q15 28 29 60t28 64.5t27.5 62.5t26.5 54q8 14 21 17.5t26 -5.5q11 -8 18.5 -23.5
t7.5 -38.5q0 -24 -10.5 -55t-25.5 -62.5t-31.5 -61.5t-28.5 -53q-8 -17 -14 -31.5t-9 -25.5q4 -11 11.5 -26.5t18.5 -33.5q17 -29 39 -63t43 -69t38 -70t24 -65q4 -14 8 -29t5 -30z" />
    <glyph glyph-name="equal" unicode="=" horiz-adv-x="448" 
d="M384 431q-3 -6 -9.5 -7.5t-16 -1.5t-20 0.5t-21.5 -0.5q-28 -2 -59 -5.5t-60 -5t-55.5 -1t-46.5 6.5q-13 3 -25.5 14t-18.5 25.5t-4 31t17 31.5q5 6 13 6t17.5 -2.5t19.5 -5.5t19 -4q25 -1 50.5 -0.5t50 1t47.5 0t42 -4.5q13 -2 26 -10t22 -18.5t13 -23.5t-1 -26z
M402 244q-2 -6 -9 -8t-16 -2t-20 1t-22 0q-28 -2 -58.5 -5.5t-60 -5t-56 -1t-46.5 5.5q-13 4 -25.5 15t-18.5 25.5t-4 31t17 31.5q5 5 13 5t17.5 -2.5t19.5 -5.5t20 -3q24 -1 49.5 -0.5t50 1t47.5 0t42 -4.5q13 -3 26 -10.5t22 -18.5t13 -23.5t-1 -25.5z" />
    <glyph glyph-name="greater" unicode="&#x3e;" horiz-adv-x="343" 
d="M306 441q-5 -33 -15.5 -59.5t-21.5 -48.5q-27 -57 -54.5 -120t-45.5 -120q-6 -19 -14 -36t-20 -31q-13 -15 -28 -16t-26 13q-13 17 -13.5 43.5t7.5 57.5t21.5 65t28 66t28.5 59.5t22 45.5q9 20 17 40.5t14 41.5q-18 37 -41 70t-47.5 65.5t-49.5 64t-48 65.5
q-14 20 -10 34.5t24 18.5q14 3 34 -1.5t39 -14.5q23 -12 43 -34.5t38 -48.5t33.5 -53t30.5 -48q9 -13 20 -26.5t19 -28.5t13 -30.5t2 -33.5z" />
    <glyph glyph-name="question" unicode="?" horiz-adv-x="401" 
d="M358 633q-1 -51 -14.5 -91t-33 -73t-40.5 -61t-37 -56q-8 -15 -9 -28.5t0.5 -25.5t2.5 -23t-5 -21q-5 -9 -16 -14t-24 -3t-25 10.5t-19 26.5q-11 30 -15.5 59t17.5 55q26 31 50 65t42 66.5t27 61.5t4 50t-14 31t-21 13t-28 -2.5t-34 -16t-35.5 -26t-31.5 -33.5
q-10 -13 -23 -13t-23.5 9.5t-16 27.5t-1.5 40q2 11 9 24t16.5 25.5t20 23t20.5 15.5q75 41 156 18q46 -13 74.5 -46.5t26.5 -87.5zM272 113q13 -22 7 -44.5t-26 -32.5q-22 -11 -44 -8t-36 16.5t-16 35t16 46.5q10 14 23.5 19t27.5 2t27 -12t21 -22z" />
    <glyph glyph-name="at" unicode="@" horiz-adv-x="554" 
d="M539 372q5 -24 -2 -40t-21 -27q-16 -11 -35 -19t-36 -17q-20 -10 -49 -22.5t-61 -21t-63.5 -11t-56 6.5t-40 32t-14.5 65q0 46 23.5 84.5t59 67t77.5 46t79 20.5q0 86 -32.5 103.5t-103.5 -35.5q-34 -26 -60 -62.5t-43.5 -78.5t-26.5 -87.5t-10.5 -88.5t5 -81t19.5 -66
q7 -15 29.5 -16.5t49.5 3.5t53 14.5t40 16.5q6 3 18 9.5t25 11t24.5 5.5t17.5 -7q11 -14 7.5 -28t-13.5 -27t-22.5 -23.5t-20.5 -18.5q-27 -25 -69.5 -43t-87 -19.5t-83.5 16.5t-57 64q-11 27 -17 65t-6 81t6 88.5t19 88.5q26 91 68 158t109 123q32 27 60.5 38.5t52.5 12.5
t43 -6.5t31 -18.5q19 -16 30.5 -42.5t18 -57t10.5 -61t9 -56.5q4 -20 8.5 -39.5t12.5 -36.5q7 -17 14 -31t11 -32zM456 374q-9 27 -28.5 40.5t-42.5 16.5t-47.5 -3t-44.5 -19.5t-32.5 -32.5t-11.5 -41q2 -28 24.5 -28t53.5 10q32 11 67.5 28.5t61.5 28.5z" />
    <glyph glyph-name="A" unicode="A" horiz-adv-x="422" 
d="M395 155q4 -20 10.5 -43.5t8 -44.5t-6 -35t-33.5 -16q-14 -1 -24.5 6.5t-18 18.5t-12.5 25t-8 26q-12 51 -19 91.5t-16 89.5q-35 8 -70 3.5t-70 -3.5q-1 -32 -4 -54t-6 -42t-5.5 -41.5t-4.5 -51.5q-1 -9 1 -19t3 -19t-1.5 -17t-11.5 -13q-14 -7 -26.5 -6t-23 7t-18 16
t-11.5 19q-10 21 -9 51.5t6.5 65t13.5 71t12 71.5q11 93 27 190t38 185q3 13 12.5 31.5t24.5 34t35.5 23.5t45.5 1q17 -5 26 -18t14 -29.5t8 -34.5t8 -34q17 -49 31.5 -111.5t27 -130t24 -135.5t22.5 -128zM260 381q-7 33 -12.5 67.5t-12 67t-15.5 61t-23 50.5
q-8 -31 -15 -59.5t-13 -57t-10.5 -58.5t-7.5 -65q17 2 47 -2.5t62 -3.5z" />
    <glyph glyph-name="B" unicode="B" horiz-adv-x="437" 
d="M418 197q-7 -36 -31.5 -72.5t-60 -65.5t-77.5 -47t-86 -18q-40 -1 -66 8.5t-32 46.5q-10 65 -11.5 146t-2 166.5t-3.5 169.5t-16 156q-3 16 -9.5 30t0.5 28q8 17 26 20.5t41 7.5q28 4 58 1.5t58.5 -9.5t54 -18.5t43.5 -25.5q33 -25 44.5 -59.5t6.5 -69.5t-25 -66t-50 -49
q36 -22 66.5 -48.5t50 -60.5t26 -76t-4.5 -95zM262 623q-3 18 -15.5 28t-30 14.5t-37 5t-37.5 -1.5q-8 -20 -9.5 -42t0.5 -43.5t5 -42t4 -38.5q29 4 52.5 14.5t40 26.5t24 36t3.5 43zM161 113q47 1 85 7.5t57 32.5q12 16 17 35t6 38t-1.5 36.5t-6.5 30.5q-7 22 -19 40.5
t-31.5 32.5t-48 21.5t-67.5 7.5q8 -52 6.5 -85.5t-4.5 -62.5t-3.5 -59t10.5 -75z" />
    <glyph glyph-name="C" unicode="C" horiz-adv-x="376" 
d="M354 120q-5 -19 -16.5 -37t-26.5 -33t-31.5 -25.5t-30.5 -13.5q-25 -5 -57 1t-59 19q-24 11 -42 45.5t-31 83t-19.5 108.5t-6.5 122q0 65 10 127.5t28.5 114t45.5 87.5t63 47q27 9 55.5 2.5t52 -24t40.5 -44.5t21 -60q2 -16 -2 -39.5t-28 -38.5q-18 -11 -34 -10.5
t-24 12.5q-6 9 -11 27t-10.5 35t-13 27.5t-20.5 5.5q-26 -10 -43 -42.5t-26.5 -77t-11.5 -94.5t2 -97q3 -33 6.5 -72t11 -73t21.5 -59.5t37 -31.5q11 -3 21.5 2.5t20.5 14.5t19 20t16 19q6 6 10.5 12.5t9.5 11.5t11.5 7.5t15.5 0.5q18 -3 26.5 -24t-0.5 -56z" />
    <glyph glyph-name="D" unicode="D" horiz-adv-x="445" 
d="M315 108q-10 -13 -24 -29.5t-29.5 -31.5t-32 -27t-32.5 -16q-19 -4 -41 -5t-41 2.5t-32.5 12.5t-15.5 24q-11 81 -12.5 160.5t-1 157.5t0 155t-9.5 152q-1 10 -5 18.5t-6.5 16.5t-2 17t8.5 19q19 25 45.5 29t51.5 0q34 -5 67.5 -14t64 -24.5t56 -39.5t44.5 -59
q20 -37 33 -85t17 -99t-1.5 -101t-22.5 -93q-12 -32 -33.5 -71t-45.5 -69zM137 641q7 -76 7.5 -137.5t-1 -120.5t-1 -121t7.5 -140q37 -1 69 23.5t56 64.5t39 90t16 100q1 39 -13.5 81.5t-41 78.5t-62 59t-76.5 22z" />
    <glyph glyph-name="E" unicode="E" horiz-adv-x="376" 
d="M314 36q-40 -8 -81.5 -13t-94.5 -10q-25 -2 -39 2t-21 12t-9 20t-3 26q-8 93 -8 180.5t-1 169t-8 158t-30 147.5q-2 6 3.5 16t22.5 10q18 -1 41.5 -0.5t48 1t50 0t47.5 -3.5q11 -2 26.5 0t23.5 -1q24 -8 35 -23t8.5 -30t-19 -26t-46.5 -11q-26 0 -62 1.5t-64 -2.5
q3 -38 11 -82.5t6 -87.5q31 -8 59.5 -9t54.5 -10q15 -5 26 -18.5t12.5 -27.5t-8.5 -24t-36 -8q-29 2 -55.5 -4.5t-55.5 -11.5q1 -50 3 -82.5t3 -58.5t-0.5 -51t-7.5 -59q27 -2 57.5 0t62.5 4q15 0 30.5 4.5t29.5 2.5q19 -2 26.5 -17t5 -32t-13.5 -32.5t-30 -18.5z" />
    <glyph glyph-name="F" unicode="F" horiz-adv-x="425" 
d="M387 696q-4 -5 -12.5 -10t-18.5 -9.5t-20.5 -7.5t-18.5 -3q-43 -4 -79.5 -2.5t-74.5 -6.5q-7 -15 -7.5 -33t1 -36.5t4 -35.5t2.5 -30q23 -12 50.5 -13.5t56 0.5t57 4.5t53.5 -1.5q18 -3 22 -14t-2.5 -24.5t-21.5 -25.5t-34 -16q-27 -6 -48 -11.5t-41 -9.5t-41 -4t-50 5
q-8 -43 -3 -91.5t12 -98.5t10.5 -100t-6.5 -95q-2 -9 -15.5 -12.5t-28.5 -1.5t-28 9t-15 18q-11 71 -14 143t-4 149t-3.5 159t-12.5 172q-1 7 -3.5 19.5l-5 25t-2.5 23.5t5 16q9 9 18.5 10t19 -1.5t20 -5t20.5 -1.5q53 7 105 8t85 -5q15 -3 30.5 -8t27 -12t16 -16t-4.5 -20z
" />
    <glyph glyph-name="G" unicode="G" horiz-adv-x="405" 
d="M386 360q3 -13 2 -20.5t-4.5 -12t-9.5 -8.5t-13 -9q5 -25 4.5 -62.5t-5.5 -74t-13 -67t-18 -42.5q-10 -13 -33 -26.5t-51.5 -21.5t-57.5 -9.5t-51 9.5q-28 14 -47.5 49.5t-31.5 83.5t-17 104.5t-4 113.5q1 54 6 111.5t18 111.5t36.5 99t61.5 73q5 3 16 7t25 5.5t28.5 0
t24.5 -8.5q29 -20 48.5 -46.5t28.5 -65.5q2 -9 3 -21t-1 -24.5t-7 -23t-16 -15.5q-20 -10 -32 -4.5t-18 21.5q-5 14 -11.5 29t-14 26t-16 16t-18.5 -1q-18 -10 -32 -39t-23.5 -68.5t-13.5 -86.5t-3 -92q2 -41 5.5 -90t13 -89.5t25.5 -65t41 -16.5q17 5 31 9t19 21
q6 20 8 46.5t0.5 50.5t-6.5 41t-15 18q-43 7 -52.5 29.5t7.5 57.5q2 3 11 5.5t20.5 4t23 2t17.5 1.5q41 7 73 -1.5t38 -34.5z" />
    <glyph glyph-name="H" unicode="H" horiz-adv-x="463" 
d="M414 364q0 -46 3.5 -87t5 -80t-1.5 -76.5t-17 -76.5q-5 -15 -18.5 -20t-28 -3t-25 8.5t-10.5 12.5q0 42 1.5 74.5t2 66t0.5 72.5t-3 93q-51 -5 -91 -10t-82 -8q-3 -31 -2 -62.5t3 -60t4.5 -54.5t3.5 -47q1 -23 1 -42.5t-5 -33.5t-16.5 -22t-32.5 -9q-19 0 -28.5 20
t-13 51t-4 67t-0.5 67q-2 125 -11 251t-12 256q0 11 5.5 20t8.5 12q14 15 29 20.5t28.5 3.5t24 -9.5t16.5 -18.5q6 -13 2 -25.5t-4 -23.5q-2 -43 -5 -72t-4.5 -54.5t0.5 -54t10 -72.5q18 2 36 2.5t38 1t44.5 1t54.5 1.5q7 28 5.5 58.5t-5 61t-7.5 59.5t-3 55v28.5t3 25.5
t11 17t25 3t28.5 -14.5t18 -27t10 -32.5t3.5 -32q2 -63 3.5 -134.5t0.5 -146.5z" />
    <glyph glyph-name="I" unicode="I" horiz-adv-x="388" 
d="M307 136q19 -2 26.5 -17t5 -32t-13.5 -32.5t-30 -18.5q-24 -4 -43 -7.5t-36 -6.5t-36 -5t-43 -4q-25 -2 -41 2t-26 12.5t-14 20.5t-5 26q-1 8 2.5 17t11 17.5t20 14t28.5 5.5h42q-3 24 -4 47t-2 42q-2 112 -3.5 227t-11.5 223q-14 1 -26.5 1h-20.5q-32 -1 -48.5 15
t-14.5 45q0 6 9.5 16t26.5 10q37 -2 84.5 0.5t92.5 -3.5q5 -1 13.5 1t17.5 4.5t17 4t12 -0.5q24 -8 33.5 -24.5t5 -33.5t-22.5 -29.5t-48 -12.5h-12.5t-17.5 1q7 -55 5.5 -119.5t-3.5 -131.5t-2 -134t9 -128q1 -5 1.5 -9.5t1.5 -9.5q15 1 30.5 5t29.5 2z" />
    <glyph glyph-name="J" unicode="J" horiz-adv-x="396" 
d="M341 175q-2 -26 -9.5 -56t-20.5 -55.5t-32 -43.5t-43 -20q-27 -2 -56.5 13t-55.5 37.5t-44.5 48t-23.5 44.5q-4 18 -8.5 37.5t-6.5 40.5q-3 29 9 44.5t27.5 20t30.5 -2.5t19 -23q12 -52 30 -91t59 -65q25 44 34 95.5t8 106t-8.5 112t-14.5 113t-10 109t4 100.5
q3 18 15.5 27t27 10.5t26.5 -4t13 -15.5q7 -60 15 -128t13.5 -141.5t6.5 -152.5t-5 -161z" />
    <glyph glyph-name="K" unicode="K" horiz-adv-x="470" 
d="M425 48q-9 -10 -20.5 -16t-22.5 -6.5t-20 4t-13 15.5q-6 19 -13.5 42t-17.5 40q-13 23 -26 50t-28 54t-32 52t-38 43q-9 -14 -18.5 -32.5t-15.5 -35.5q-5 -19 -6.5 -44t0.5 -49t6.5 -44t10.5 -28q7 -9 9 -23.5t-2 -28.5t-14.5 -23.5t-29.5 -8.5q-24 2 -37.5 15.5
t-19.5 32t-7.5 39.5t-3.5 38q-12 146 -18 284t-19 282q-3 30 13 45t36 14.5t38 -16.5t21 -49q3 -38 5 -66.5t3.5 -56.5t2 -58t0.5 -71q17 20 27 37t19 34.5t20 37.5t29 45q9 12 21 31t25 38.5t27 37.5t28 29q8 7 18.5 11.5t22 4t22.5 -8.5t21 -27q8 -15 4.5 -35t-12.5 -33
q-20 -29 -45 -51.5t-45 -50.5q-15 -20 -22 -32.5t-12.5 -23t-11.5 -22.5t-18 -32q21 -32 42 -68.5t40.5 -74.5t38 -75t34.5 -70q11 -23 15.5 -49.5t-11.5 -46.5z" />
    <glyph glyph-name="L" unicode="L" horiz-adv-x="425" 
d="M422 144q-2 -18 -16 -34.5t-33 -27.5q-28 -16 -59 -24t-64 -14t-67 -11t-67 -15q-17 -5 -29 -2t-19 11t-9 19.5t0 21.5q13 61 17.5 133.5t3 148t-6.5 151.5t-11 145q-1 13 -6 25.5t-8 24t-1.5 21t11.5 16.5q36 24 58 13.5t33 -38t14.5 -63.5t2.5 -62q-1 -63 0 -118
t2.5 -107.5t3.5 -103.5t3 -107q30 -4 55 -2t47.5 7t43 12t40.5 11q9 2 19.5 0t20 -6.5t16 -10.5t5.5 -14z" />
    <glyph glyph-name="M" unicode="M" horiz-adv-x="555" 
d="M527 23q-7 -10 -18 -13t-22.5 -0.5t-21 8t-14.5 11.5q-13 18 -14 47.5t-3 55.5q-3 48 -7 72t-8.5 42.5t-8.5 42.5t-7 72q-10 -11 -19 -33.5t-18.5 -50t-20 -59t-24.5 -60.5q-11 -25 -21 -41t-31 -19q-13 -2 -22 6t-16 21.5t-13 30t-13 31.5q-11 26 -22 57t-21.5 60.5
t-19.5 54t-17 37.5q-4 -37 -5.5 -66t-2 -55t-0.5 -50.5v-51.5q-1 -23 6.5 -49.5t11.5 -50t-0.5 -41.5t-28.5 -24q-31 -9 -47 5t-22.5 37.5t-7 51t-0.5 46.5q0 138 9 280.5t23 289.5q1 12 14 17t28.5 4t29 -9t14.5 -23q7 -51 19.5 -103.5t30 -103t37.5 -97.5t42 -86
q20 32 33.5 70t24 78.5t21 81.5t23.5 78q5 14 6.5 29.5t3 30.5t5 28.5t12.5 23.5q4 5 13 6.5t19.5 0t19 -7.5t10.5 -18q14 -64 20.5 -141t11 -157.5t8.5 -161.5t14 -155q2 -12 5.5 -22.5t6 -20t2 -19t-7.5 -18.5z" />
    <glyph glyph-name="N" unicode="N" horiz-adv-x="512" 
d="M454 265q3 -32 8 -71t6 -74t-5.5 -62t-26.5 -35q-40 -16 -64.5 -1.5t-27.5 52.5q-1 9 -5.5 25t-11 32.5t-13 31.5t-11.5 23q-28 49 -45.5 80t-32.5 58t-32 58.5t-46 80.5q-6 -39 -6 -85.5t2.5 -92t6 -85t4.5 -64.5q20 -42 16 -68.5t-40 -37.5q-15 -4 -25.5 1.5t-18 14.5
t-12 20.5t-6.5 19.5q-9 33 -10 75t0.5 86t4 87t0.5 77q-4 73 -11.5 149t-0.5 142q2 18 0.5 33.5t13.5 26.5q21 16 42.5 9t35.5 -23q14 -15 23.5 -36t17 -44.5t14 -46.5t13.5 -41q16 -42 35 -78t38 -68.5t36.5 -62.5t30.5 -61q3 26 3 50v47.5t-0.5 48.5t0.5 53q1 18 -2.5 44
t-6.5 54.5t-4 56t5 48.5q6 23 23.5 32t39.5 10q30 2 38.5 -15t6.5 -42.5t-9 -56.5t-7 -58q0 -13 1 -37t2 -53.5t2.5 -62t3.5 -63.5t4 -57.5t3 -43.5z" />
    <glyph glyph-name="O" unicode="O" horiz-adv-x="402" 
d="M376 515q5 -39 5 -92t-6 -108.5t-19.5 -109t-35.5 -95t-53.5 -65.5t-75.5 -20q-35 3 -62 26t-46 58.5t-31.5 79.5t-19.5 89t-9 87t0 74q5 80 21.5 154t45.5 135q5 11 18 19.5t28.5 14.5t32.5 10t30 4q42 1 73.5 -26.5t53 -68t34 -86t16.5 -80.5zM205 147q31 9 48.5 36.5
t25.5 66t8.5 83t-2.5 87.5q-3 48 -12.5 89t-23.5 71.5t-31.5 47.5t-37.5 17q-14 0 -24.5 -17t-18 -43.5t-13 -58.5t-8.5 -61t-4.5 -51t-1.5 -30q0 -46 6.5 -91.5t18.5 -80t30 -53t40 -12.5z" />
    <glyph glyph-name="P" unicode="P" horiz-adv-x="415" 
d="M374 440q-10 -19 -30 -43t-48 -43.5t-62.5 -30.5t-73.5 -4q0 -30 0.5 -47t0.5 -31t0.5 -30.5t0.5 -44.5q0 -25 5.5 -49t7 -45t-5.5 -38t-30 -28q-22 -11 -35 -9t-20 10.5t-10.5 21.5t-5.5 25q-4 20 -4 42.5t1 45.5t2.5 46.5t-0.5 45.5q-7 108 -11 209t-3 207q0 7 -5 13.5
t-9.5 15t-6.5 19t5 25.5q6 13 15 19.5t19.5 8.5t21 2h19.5q26 0 52.5 -1.5t52.5 -6.5t50 -14t44 -24q27 -20 46 -53.5t28 -71.5t7 -75.5t-18 -66.5zM316 524q-2 24 -13.5 47.5t-32.5 41t-52.5 26t-72.5 3.5q1 -17 0 -42t-1 -53t1 -55.5t6 -49.5q44 -15 76 -13t52 15
t29.5 34.5t7.5 45.5z" />
    <glyph glyph-name="Q" unicode="Q" horiz-adv-x="449" 
d="M410 -36q-9 -6 -17 -3t-15 11t-12 18.5t-10 19.5q-6 13 -10.5 22t-9 17.5t-9.5 17t-12 19.5q-13 -10 -28.5 -21t-34.5 -18t-40.5 -7.5t-47.5 10.5q-28 12 -48.5 35.5t-35 54.5t-24 67t-17.5 74q-11 56 -14 113.5t3 113t20 107.5t36 97q4 8 11.5 11.5t16 4t17 -0.5
t13.5 -3q6 24 23 36t39.5 13.5t47 -6t46.5 -21.5q37 -25 64 -83t41 -130t13.5 -148.5t-17.5 -138.5q-4 -15 -7 -24t-6 -16t-5.5 -14t-6.5 -18q4 -13 9 -24.5t11.5 -23t13.5 -24.5t14 -30q4 -9 5.5 -25t0 -33t-5.5 -31t-12 -19zM332 451q-4 32 -13.5 67.5t-23 65t-31.5 48
t-41 17.5q-11 -1 -15 -7.5t-7 -14.5t-8.5 -15t-20.5 -8q-6 0 -9.5 2.5t-5.5 6t-3.5 7t-4.5 3.5q-13 -24 -21.5 -53.5t-13.5 -62.5t-6 -67.5t2 -69.5t11 -69.5t20 -63.5t28 -50t36 -29q20 -9 35.5 3.5t17.5 34.5q-5 18 -13.5 36.5t-15.5 37t-10 35.5t1 32q6 19 20.5 18.5
t30.5 -12t29.5 -28.5t16.5 -32q11 38 16 80.5t-1 87.5z" />
    <glyph glyph-name="R" unicode="R" horiz-adv-x="408" 
d="M380 160q8 -24 18 -43t15 -35t2 -29t-23 -25t-34.5 -9.5t-24.5 12t-14.5 22.5t-5.5 23q-1 23 -14 55.5t-31.5 66.5t-41.5 65.5t-46 51.5q-9 -6 -18.5 -9.5t-20.5 1.5q1 -22 0 -50t-0.5 -59.5t4 -67t12.5 -73.5q2 -7 0 -17.5t-10 -18.5t-23 -11t-39 6q-11 4 -16.5 14
t-7.5 23.5t-2 28.5t-1 28q-4 56 -4.5 111.5t-3.5 121.5q-3 48 -1.5 96.5t1.5 96t-3 93t-14 88.5q-4 16 7.5 29.5t31.5 16.5q59 8 110.5 0t90.5 -28q21 -11 39 -33.5t29 -52.5t14 -65t-6 -73q-3 -14 -11 -35t-19 -42.5t-24.5 -40t-29.5 -27.5q14 -16 30 -38.5t31.5 -49.5
t29.5 -56.5t24 -61.5zM128 423q16 5 31.5 8t29 6t25.5 7.5t21 13.5q20 19 29 45.5t12 56.5q2 23 -10 42t-33 32.5t-48 20.5t-53 6q2 -20 1.5 -50.5t-2 -63.5t-3 -65.5t-0.5 -58.5z" />
    <glyph glyph-name="S" unicode="S" horiz-adv-x="394" 
d="M284 34q-13 -9 -29 -16.5t-36 -9t-43.5 6t-51.5 28.5q-7 5 -22.5 20.5t-32.5 37t-31 45.5t-17 45q-4 33 6.5 55t26.5 30t33.5 1t27.5 -32q12 -31 33 -58t43.5 -44t42 -21t27.5 11q26 49 23.5 85.5t-22.5 71.5q-19 33 -47.5 54t-58.5 38.5t-57 35.5t-42 43q-12 20 -16 48
t0 60t16.5 65t33.5 62q10 14 24 28.5t32 26t40 17.5t47 3q11 -1 27 -5.5t32.5 -14t30.5 -26t21 -42.5q2 -8 7 -21t7.5 -27.5t0 -28.5t-14.5 -23q-17 -13 -43 -16t-41 10q-11 10 -15.5 23.5t-8.5 26.5t-10.5 23.5t-23.5 14.5q-14 3 -27 -6t-23.5 -24t-17.5 -31t-7 -26
q-1 -28 10 -46t30.5 -31.5t46.5 -27t57 -33.5q22 -14 42 -34.5t33.5 -52.5t18.5 -77.5t-3 -110.5q-5 -40 -22 -73t-57 -58z" />
    <glyph glyph-name="T" unicode="T" horiz-adv-x="482" 
d="M422 644q-28 -11 -61 -8.5t-62 2.5q-16 -86 -14.5 -180t5.5 -195q1 -30 9.5 -60t15.5 -58.5t8.5 -54.5t-11.5 -48t-30 -27t-31.5 -0.5t-24.5 15t-11 17.5q-6 78 -10 157.5t-7.5 156.5t-7 149t-7.5 134q-22 5 -46 0t-46 -9.5t-40.5 -5t-29.5 11.5q-9 10 -14 24.5t-5 29
t5 25.5t17 14q48 12 94 13.5t94 -1t98.5 -7t106.5 -4.5q29 0 40 -12t9 -27.5t-14 -30.5t-30 -21z" />
    <glyph glyph-name="U" unicode="U" 
d="M392 337q1 -19 1.5 -53t1 -72t0.5 -74.5t1 -59.5q1 -31 -11.5 -44.5t-29 -12.5t-31 15t-16.5 36q-37 -23 -70.5 -36t-62 -15t-49.5 7.5t-32 31.5q-19 37 -31 87.5t-18.5 108.5t-8 120t0 122t6 115.5t10.5 98.5q1 9 9 18.5t18.5 17t22.5 10.5t21.5 -0.5t14.5 -15t2 -34.5
q-10 -77 -11 -166t5 -186q3 -45 5 -90t10 -77t25 -44.5t50 7.5q25 15 39.5 26t22 23.5t10 30.5t3.5 48q2 29 2 65.5t-0.5 75.5t-2 78.5t-4.5 74.5q-2 29 -2 56.5t5 51.5t17.5 42t34.5 26q15 5 22 0.5t10 -16t4 -27.5t4 -33q5 -37 5.5 -83.5t-0.5 -94t-2.5 -89.5t-0.5 -70z
" />
    <glyph glyph-name="V" unicode="V" 
d="M390 756q-6 -57 -15.5 -127t-20 -147t-20 -158t-15.5 -161q-2 -31 -3 -57t-5.5 -45.5t-14 -32.5t-28.5 -19q-18 -5 -30 -3.5t-21.5 9t-17 19.5t-15.5 28q-18 34 -31 75.5t-22.5 85t-18 87t-17.5 80.5q-11 44 -22 83.5t-20.5 76.5t-18.5 73.5t-15 75.5q-2 10 7 19
t21.5 13.5t26.5 1.5t22 -17q35 -62 51 -122t26 -121t21 -124t36 -131q19 74 25 135.5t10.5 121t12.5 122.5t32 139q5 16 18.5 26.5t28 14t25 -1t8.5 -19.5z" />
    <glyph glyph-name="W" unicode="W" horiz-adv-x="592" 
d="M557 644q-14 -92 -21.5 -182.5t-9.5 -181.5q0 -41 0.5 -80t-1.5 -76q-1 -14 -1 -29.5t-2.5 -29.5t-9 -26t-20.5 -20q-12 -7 -24 -5t-22.5 10.5t-19.5 21t-16 26.5q-20 42 -33 90t-23.5 97.5t-20 98.5t-23.5 94q-10 -19 -18.5 -62t-16 -92t-13.5 -94.5t-12 -69.5
q-5 -23 -7.5 -45t-8.5 -40t-18.5 -30.5t-37.5 -15.5q-23 -3 -33.5 9t-15 31t-5 41.5t-3.5 39.5q-12 72 -27.5 143.5t-30.5 142t-27.5 139t-18.5 134.5q-2 25 9.5 44.5t27 27.5t30 3t18.5 -30q9 -55 19 -104t21 -100t22 -106.5t20 -123.5q6 10 11.5 36t11 60.5t10 73.5t9 75
t9 65t8.5 44q7 26 17.5 44t38.5 20q10 1 18.5 -5t15.5 -15.5t13 -21.5t10 -24q10 -28 19 -76t18 -97.5t18.5 -90t20.5 -54.5q0 77 12 161t20 168q2 24 6.5 44.5t14.5 32.5t25.5 12.5t40.5 -15.5q9 -6 11.5 -16.5t2 -23.5t-3 -25.5t-4.5 -21.5z" />
    <glyph glyph-name="X" unicode="X" horiz-adv-x="401" 
d="M324 40q-5 11 -9.5 25t-8 27t-6.5 24t-5 16q-10 23 -19.5 50t-20 54.5t-22 53.5t-26.5 45q-29 -73 -43 -150.5t-34 -152.5q-8 -29 -26.5 -38.5t-36.5 -4t-28.5 23t-3.5 41.5q11 37 20.5 70.5t18.5 66.5t18.5 67.5t20.5 72.5q3 11 8.5 27t10.5 33t8.5 33t3.5 26
q-17 51 -45.5 101t-54.5 98q-4 8 -9.5 15.5t-10 15.5t-7.5 17t-2 21q2 14 11.5 23.5t22.5 12.5t27 -1.5t24 -19.5q13 -20 22.5 -41.5t19.5 -42.5q9 -20 19 -38.5t21 -32.5q6 15 11.5 36.5t12 44t14 42.5t16.5 32q12 17 28 23t29 3t21.5 -14t5.5 -28q-1 -8 -3.5 -15.5
t-4.5 -15.5q-8 -24 -18 -51.5t-19 -56t-16.5 -56.5t-11.5 -54q8 -28 22 -64.5t28 -62.5q17 -30 28 -53.5t21.5 -47t21.5 -49.5t28 -62q6 -12 15 -30.5t13.5 -37.5t-0.5 -34t-28 -21q-27 -7 -44 2.5t-28 31.5z" />
    <glyph glyph-name="Y" unicode="Y" horiz-adv-x="412" 
d="M379 736q6 -17 -1 -37t-24 -41q-26 -91 -57.5 -180t-49.5 -181q0 -27 -1 -48t-2 -41t-1 -41t2 -48q2 -21 5.5 -44t-5.5 -42q-4 -10 -15 -16t-24.5 -6t-27.5 6t-24 20q-5 7 -5.5 17t0.5 21t2.5 21.5t0.5 17.5q-2 31 -2.5 51.5t0 38.5t0.5 37t-1 47q-48 96 -79.5 187.5
t-44.5 191.5q-1 9 -0.5 21.5t2.5 25t7 23t12 16.5q21 16 38.5 8.5t26.5 -24.5q8 -13 10 -27.5t2.5 -29t1 -29.5t3.5 -29q12 -54 25.5 -100.5t37.5 -80.5q23 58 38.5 109t32.5 102q8 26 15 54t25 54q5 7 16 9t23 -1t23 -11t15 -21z" />
    <glyph glyph-name="Z" unicode="Z" horiz-adv-x="394" 
d="M332 80q-29 -14 -64 -19.5t-67 -10.5q-22 -3 -42.5 -15t-40.5 -21q-20 -10 -41 -10t-38 27q-10 17 -9 30.5t7 26t14.5 24.5t13.5 25q19 54 34 109.5t35 106.5q30 78 51 150.5t46 143.5q-24 0 -48.5 -7.5t-49.5 -15t-50.5 -11.5t-49.5 3q-11 3 -15.5 11.5t-5.5 19t1 22
t3 20.5q5 30 23.5 34.5t42.5 1.5q23 -3 48.5 3.5t52 14.5t53 15t51.5 5q46 -3 67 -27.5t-1 -68.5l-10 -18t-9 -19q-22 -58 -43.5 -114.5t-42.5 -114t-41 -118t-39 -126.5q38 -2 71.5 1.5t70.5 11.5q7 1 16.5 1t19.5 -3t17.5 -9t10.5 -17q3 -12 0 -21.5t-9.5 -17t-15 -13
t-17.5 -10.5z" />
    <glyph glyph-name="bracketleft" unicode="[" horiz-adv-x="341" 
d="M288 76q-5 -14 -17.5 -25t-31.5 -15t-37.5 -9t-36 -7t-34.5 2.5t-34 20.5q-9 8 -13 31t-5 50.5t-0.5 53.5t0.5 39q-2 115 -3.5 226.5t-13.5 226.5q-2 17 -2 32.5t5.5 26.5t19 17t37.5 4q6 -1 22.5 1t36.5 4q4 1 12 2t17 2t17.5 1.5t11.5 -0.5q22 -4 34 -21t10 -35.5
t-20 -33.5t-57 -15h-18.5t-20.5 1q8 -67 6 -134.5t-5 -135t-2 -134.5t14 -133q17 0 39.5 0.5t36.5 -1.5q20 -2 28.5 -14.5t3.5 -27.5z" />
    <glyph glyph-name="backslash" unicode="\" horiz-adv-x="414" 
d="M413 55q-2 -12 -7 -22.5t-10 -21.5q-4 -9 -11.5 -11t-15 0.5t-14 7.5t-9.5 9q-17 29 -37.5 78.5t-43.5 107.5t-47.5 118.5t-48.5 112.5q-16 36 -37.5 68.5t-44.5 64t-47 62.5t-46 64q-13 20 -9 34.5t23 18.5q15 2 34.5 -2t39.5 -14q15 -8 34.5 -30t40 -51t40.5 -62
t37 -63.5t30 -55.5t19 -38q12 -24 28.5 -61.5t34 -80t33.5 -87t25 -83.5q5 -23 7.5 -37.5t1.5 -25.5z" />
    <glyph glyph-name="bracketright" unicode="]" horiz-adv-x="341" 
d="M45 709q4 14 17 25t32 15t37 9t35.5 7t35 -2.5t34.5 -20.5q9 -8 12.5 -31t4.5 -50.5t0.5 -53.5t-0.5 -39q2 -115 3.5 -226.5t14.5 -226.5q2 -17 2 -32.5t-6 -26.5t-19 -17t-37 -4q-7 1 -23.5 -1t-36.5 -4q-4 -1 -12 -2t-17 -2t-17.5 -1.5t-11.5 0.5q-21 4 -33 21
t-10 35.5t20 33.5t56 15h19.5t20.5 -1q-8 67 -6 134.5t4.5 135t2 134.5t-14.5 133q-17 0 -39.5 -0.5t-36.5 1.5q-20 2 -28 14.5t-3 27.5z" />
    <glyph glyph-name="asciicircum" unicode="^" horiz-adv-x="447" 
d="M434 557q-6 -17 -17 -20.5t-22 1.5q-9 4 -22.5 14.5t-27 23t-26 24t-20.5 18.5q-17 15 -32 27.5t-28 18.5q-24 -10 -42.5 -27.5t-34.5 -38.5t-30 -43t-29 -41t-29.5 -26.5t-25.5 -4.5t-17.5 15.5t-3.5 32.5q3 23 7 39.5t18 36.5q23 35 52.5 62t52.5 60q16 22 36 33.5
t39.5 13.5t37.5 -5t29 -24q9 -13 24 -26.5t32.5 -28.5t34.5 -30.5t29 -32t17 -34.5t-2 -38z" />
    <glyph glyph-name="underscore" unicode="_" horiz-adv-x="579" 
d="M562 55q-6 -27 -42.5 -36t-87.5 -7q-47 2 -96 8.5t-86 7.5q-13 0 -30 -1t-36 -2l-38 -2t-36 -1q-42 1 -63.5 15t-3.5 49q8 16 24.5 25t38.5 13t48 4.5t52 -1.5q55 -3 111.5 -11.5t98.5 -12.5q20 -2 45.5 0t47.5 0q28 -2 43.5 -13t9.5 -35z" />
    <glyph glyph-name="grave" unicode="`" horiz-adv-x="356" 
d="M213 721q3 -5 14.5 -18t25 -28.5l27 -31t20.5 -26.5q25 -37 21.5 -57t-22 -23.5t-44 8.5t-43.5 38q-2 3 -10.5 11.5t-19 18l-21 19t-15.5 14.5q-13 12 -31 28.5t-30 35.5t-13.5 39t17.5 38q17 15 36 10.5t36.5 -18t31.5 -30.5t20 -28z" />
    <glyph glyph-name="a" unicode="a" horiz-adv-x="413" 
d="M396 72q2 -17 -7.5 -30t-22.5 -20.5t-27 -8.5t-22 6q-12 11 -16.5 24.5t-5 26.5t0.5 25t-1 21q-3 14 -5.5 27.5t-5.5 30t-6.5 36.5t-9.5 48q-38 -2 -74 -8.5t-70 0.5q-5 -44 -8 -70.5t2 -43.5q5 -18 7.5 -34.5t-1.5 -30.5t-16.5 -25.5t-37.5 -19.5t-36.5 6t-15 38
t-1 51.5t3.5 46.5q4 48 13 103t17 109q5 40 13.5 81.5t17.5 80t17.5 70.5t13.5 52q6 24 21.5 45t41.5 28q38 10 63 -4t41.5 -40t25.5 -59t14 -60q12 -62 23.5 -130t21.5 -134t18.5 -127t12.5 -111zM253 374q-8 30 -13 63t-10 64.5t-12 59.5t-20 49q-23 -57 -37.5 -123.5
t-22.5 -128.5q32 -1 63.5 2t51.5 14z" />
    <glyph glyph-name="b" unicode="b" horiz-adv-x="464" 
d="M410 358q31 -69 12.5 -148t-85.5 -147q-14 -15 -37 -27.5t-48.5 -22t-50 -15.5t-42.5 -6q-24 -1 -40 0.5t-27 8.5t-18 21t-13 38q-7 29 -10 71t-3 90t1.5 99.5t1.5 98.5q1 52 0.5 87.5t-2 64.5t-2.5 56t-2 60q-15 11 -19.5 25.5t1 27.5t20 22t37.5 9q29 0 64.5 -4
t70.5 -13t67 -23.5t55 -36.5t33.5 -52t3.5 -69q-7 -37 -22.5 -68t-47.5 -53l41 -20.5t25 -16t17.5 -21.5t18.5 -36zM283 574q2 26 -12.5 43t-37 27.5t-48 14.5t-46.5 4q3 -49 2 -94t4 -84q24 -1 48 4t43.5 16t32.5 28t14 41zM328 265q-1 38 -16 59t-39.5 32t-57 14.5
t-67.5 5.5q-5 -40 -5 -77t1.5 -70.5t3.5 -63t2 -55.5q38 -9 71 1.5t57 33t37.5 54.5t12.5 66z" />
    <glyph glyph-name="c" unicode="c" horiz-adv-x="413" 
d="M364 165q-14 -52 -46.5 -90t-71.5 -53.5t-78 -6t-68 52.5q-19 29 -30.5 70t-16.5 87.5t-5.5 95t0.5 92.5q2 49 9.5 94.5t18.5 83t23.5 65.5t22.5 41q33 45 78.5 62t85.5 -1q23 -10 41 -37t25.5 -59.5t1.5 -63.5t-32 -50q-18 -13 -30 -9t-20 18t-13.5 32.5t-11 34
t-11.5 24t-15 0.5q-26 -22 -43.5 -60t-27 -84t-11.5 -96.5t2.5 -99t15 -90.5t25.5 -71q9 -16 24.5 -16.5t32.5 8.5t33 24t25 31q4 6 6.5 14t6 14.5t8.5 11t12 3.5q14 -1 22 -8.5t12 -18t3.5 -22.5t-3.5 -23z" />
    <glyph glyph-name="d" unicode="d" horiz-adv-x="424" 
d="M387 294q-22 -82 -72 -153t-116 -116q-19 -13 -46 -25.5t-48 -10.5q-12 1 -19.5 7t-12 15t-6.5 20t-3 22q-3 19 -2 40.5t2.5 44l3 45t-0.5 44.5q-5 53 -8.5 102t-5 99t-1.5 104t3 117q-15 9 -20.5 28t-0.5 38t21 31.5t43 9.5q69 -8 123.5 -37.5t94.5 -86.5q25 -36 43 -79
t27.5 -88.5t10 -89.5t-9.5 -81zM310 359q2 94 -39.5 162.5t-113.5 97.5q-9 -73 -10 -136.5t1.5 -122t5 -115.5t-0.5 -117q35 23 63.5 47t49 51.5t32 60t12.5 72.5z" />
    <glyph glyph-name="e" unicode="e" horiz-adv-x="380" 
d="M290 172q32 0 45.5 -13.5t10.5 -32.5t-21.5 -37.5t-52.5 -28.5q-25 -7 -45.5 -12t-39.5 -8t-39 -6t-44 -6q-23 -3 -40.5 10.5t-25.5 28.5q-6 11 -3.5 21.5t7.5 20.5l9.5 19t4.5 18q-2 78 -4.5 146.5t-4 133.5t-2.5 130t0 136q0 12 4 24.5t12 21.5t19.5 12t26.5 -4
q18 -8 34.5 -9.5t33 -0.5t32.5 2.5t32 -0.5q27 -3 44 -16.5t20.5 -29.5t-9 -31t-45.5 -21q-27 -5 -51.5 -2.5t-47.5 -6.5q-1 -17 -1.5 -30.5t-1.5 -26.5t-1.5 -27t-0.5 -33q14 -3 32 -3.5t37 0t37.5 0.5t33.5 -3q22 -4 32.5 -18.5t9 -31t-14.5 -29.5t-39 -15
q-16 -1 -33 -0.5t-33.5 -0.5t-31 -3t-25.5 -7q-1 -45 -1 -73.5v-54t-1.5 -53.5t-7.5 -71q16 -2 28 -1.5t23.5 2t25 4t31.5 4.5q11 2 21.5 7t20.5 5z" />
    <glyph glyph-name="f" unicode="f" horiz-adv-x="410" 
d="M336 738q20 -7 30 -24t9 -34.5t-13 -31t-36 -14.5q-13 0 -28.5 2.5t-27.5 3.5q-35 1 -69 0t-66 -12q4 -23 6.5 -56t-1.5 -75q14 -10 33.5 -14t42 -5.5t47 -1t47.5 -0.5q56 -2 60.5 -24.5t-54.5 -49.5q-39 -18 -85 -26.5t-84 -3.5q-10 -32 -9 -69.5t4.5 -76.5t7 -79.5
t-1.5 -78.5q-2 -19 -15 -32.5t-28 -19.5t-27.5 -3.5t-15.5 14.5q-12 62 -11 136.5t4 154t3 159.5t-13 152q-2 11 -6.5 20.5t-7.5 20t-3.5 22.5t6.5 28q8 19 32 23.5t54 6.5q35 2 78.5 1.5t83.5 -8.5q12 -2 28 -1.5t26 -3.5z" />
    <glyph glyph-name="g" unicode="g" horiz-adv-x="440" 
d="M421 328q-11 -3 -15.5 -5.5t-7.5 -4t-7.5 -3.5t-16.5 -5q2 -18 5.5 -46t6 -58t3 -58t-2.5 -46q-3 -16 -6.5 -35.5t-12 -32t-23.5 -13t-40 20.5q-39 -22 -74 -26.5t-65 6t-53.5 34.5t-39.5 58q-21 46 -31.5 104t-11 120t9 124.5t27.5 118t44.5 100t60.5 69.5q6 5 27 9.5
t46 6t48.5 -1.5t33.5 -14q8 -8 15 -21.5t12.5 -29.5t9 -33t3.5 -32q0 -12 -6 -26t-14.5 -26t-18.5 -20t-17 -8q-24 0 -34 14.5t-15 30t-9.5 26.5t-17.5 5q-37 -18 -60 -50t-35 -72.5t-15 -88t-2 -95.5q1 -31 5.5 -61.5t14.5 -57.5t26.5 -47.5t41.5 -31.5q24 -10 39.5 -4
t24.5 22t12 38.5t2.5 45.5t-4.5 42t-10 28q-20 4 -33 16t-16.5 26.5t2.5 29t24 23.5q37 18 75.5 22.5t80.5 -3.5q21 -4 30.5 -16t10 -26t-6.5 -26t-20 -16z" />
    <glyph glyph-name="h" unicode="h" horiz-adv-x="446" 
d="M389 419q0 -39 3 -79t6 -79t4 -76.5t-2 -70.5q-1 -10 0 -20t1.5 -19.5t-1 -18.5t-8.5 -18q-5 -6 -17.5 -9.5t-26.5 -3.5t-27 4t-19 11q-6 8 -6.5 17t1.5 19t4.5 20t2.5 20q1 56 3 116.5t-8 111.5q-25 -1 -44.5 -3.5t-36 -4t-32 -1.5t-34.5 3q-8 -25 -9 -60.5t1.5 -70.5
t6 -64t5.5 -41q2 -10 0 -21.5t-7 -22t-13 -18t-19 -9.5q-12 -3 -23.5 0.5t-21 11t-16 17t-9.5 18.5q-6 18 -6.5 43t1.5 51.5t5.5 52t4.5 44.5q9 112 6.5 225t-28.5 230q-2 11 8.5 21t26 14.5t31.5 1.5t24 -18q17 -33 22 -64t5 -65t-1 -73.5t4 -90.5q17 -2 33 -2t33 0.5
t35.5 0t40.5 -4.5q6 35 8 67t1.5 63.5t-3 64t-6.5 67.5q-1 13 10 21t27 10t31.5 -2.5t21.5 -16.5q15 -30 18 -65t0.5 -73.5t-7 -79t-4.5 -81.5z" />
    <glyph glyph-name="i" unicode="i" horiz-adv-x="206" 
d="M156 181q4 -19 9.5 -39.5t5.5 -39.5t-9.5 -33t-36.5 -19q-12 -2 -20.5 4t-14.5 16.5t-10.5 23t-8.5 22.5q-9 23 -12.5 49t-4.5 54.5t-0.5 57.5t0.5 56q-1 50 1.5 100t3.5 98.5t-0.5 94.5t-10.5 88q-3 12 9.5 20.5t29.5 11t33.5 -3.5t22.5 -24q19 -59 19 -128t-5 -140.5
t-9 -140.5t8 -128z" />
    <glyph glyph-name="j" unicode="j" horiz-adv-x="444" 
d="M386 363q1 -32 -0.5 -70t-7.5 -76.5t-16 -75.5t-25 -66.5t-35 -48.5t-46 -23q-31 -4 -56.5 3t-45 22t-34.5 36.5t-27 45.5q-10 20 -18 35t-14.5 30t-12 31.5t-10.5 39.5q-7 37 5 57t30.5 27t36 2.5t20.5 -16.5q17 -69 40 -118t62 -78q39 45 52.5 94t13 106t-9.5 123
t-14 143q-2 31 -6 62t-3 56t10.5 41.5t34.5 17.5q17 1 29.5 -20t20.5 -56t12.5 -79t7 -88.5t4 -86t2.5 -70.5z" />
    <glyph glyph-name="k" unicode="k" horiz-adv-x="487" 
d="M428 19q-25 1 -40 10t-30 37q-16 30 -33.5 71t-37 82.5t-41 78.5t-44.5 58q-9 -8 -21.5 -22.5t-24.5 -23.5v-52.5t1 -38.5t3 -38t4 -53q10 -12 14 -28.5t2 -32t-10.5 -27.5t-24.5 -15q-32 -6 -47.5 6.5t-21.5 35t-5.5 52t0.5 58.5q-1 71 -2.5 146t-4.5 148.5t-8.5 142
t-15.5 126.5q-1 11 8.5 18t23 9t27 -1.5t19.5 -14.5q19 -32 26.5 -61.5t10 -60.5t2 -65t2.5 -76q25 15 45.5 38t40 49.5t39.5 55t42 55.5q6 8 11.5 17.5t11.5 18t13 14.5t17 7q24 2 37 -10t17 -30t0.5 -37t-12.5 -33q-17 -27 -37.5 -53t-40 -49t-36 -43t-26.5 -35
q13 -24 37.5 -65t45.5 -86q20 -43 39.5 -81t33.5 -75q5 -14 17 -25t15 -25q3 -12 2 -25.5t-6 -25t-14 -19t-23 -7.5z" />
    <glyph glyph-name="l" unicode="l" horiz-adv-x="388" 
d="M327 47q-19 -10 -43 -15.5t-51 -7t-55 0.5t-55 6q-18 3 -28.5 8t-16 15t-7.5 26t-2 40q-1 72 0.5 143.5t1 144t-6 146.5t-20.5 150q-1 8 3.5 16t13.5 13t21 6t24 -5q25 -13 36.5 -36.5t16 -52t4 -59t-0.5 -57.5q0 -53 2 -105t4 -101.5t3 -94.5t-2 -84q20 -9 38.5 -11
t35.5 -0.5t33.5 5t32.5 6.5q31 5 47 -4.5t17.5 -25.5t-10 -34.5t-36.5 -32.5z" />
    <glyph glyph-name="m" unicode="m" horiz-adv-x="567" 
d="M543 33q-18 -19 -34.5 -20.5t-30 6.5t-22 21.5t-10.5 25.5q-9 54 -10.5 92.5t-2.5 75t-3.5 77.5t-13.5 101q-10 -20 -18.5 -50.5t-16.5 -64.5t-17 -68.5t-19.5 -64t-24 -50.5t-32.5 -28q-20 -8 -35.5 9t-28.5 47.5t-23.5 70.5t-19.5 78.5t-17 70.5t-16 48
q-8 -42 -12 -82.5t-5 -79.5t-1 -77t-1 -74q0 -10 2.5 -21.5t3 -22t-2 -19.5t-12.5 -14q-16 -7 -29.5 -4.5t-23.5 10.5t-16 19t-9 21q-4 16 -4 34.5t1.5 37t3.5 35.5t3 30q4 63 8.5 121t6.5 116.5t1.5 120t-6.5 131.5q-1 18 10 32t26.5 22t31.5 9.5t24 -5.5q21 -19 36.5 -50
t26.5 -69t19 -80t16 -82.5t16.5 -77t19.5 -63.5q21 22 34.5 61.5t23.5 84t18.5 88t20.5 73.5q5 12 10 28.5t12 32.5t16 29t21 19q21 10 34 10.5t21 -5.5t12 -17t7 -24q3 -15 4 -37.5t0.5 -47.5t-2 -49t-1.5 -42q0 -47 1.5 -101.5t4.5 -110t6.5 -108.5t6.5 -97
q1 -13 5.5 -24.5t7.5 -22t3.5 -19.5t-5.5 -16z" />
    <glyph glyph-name="n" unicode="n" horiz-adv-x="521" 
d="M468 166q6 -16 9.5 -35.5t2.5 -37.5t-6 -31.5t-16 -17.5q-28 -11 -48.5 -9t-34 14t-20.5 30.5t-9 40.5q-20 36 -44 78t-49.5 87t-51.5 90.5t-51 88.5q-4 -58 -6 -107t-0.5 -97.5t6 -101.5t11.5 -118q2 -19 -13.5 -25t-35 -3t-36 14t-15.5 26q4 58 3 127t-2.5 142.5
t-2.5 147.5t3 141q1 15 -1.5 31.5t-3.5 32t2.5 28.5t16.5 21q27 18 50.5 4t43.5 -45t36.5 -70.5t29.5 -73.5q14 -36 32 -71t36 -66.5t34.5 -59.5t27.5 -49q11 53 8.5 111.5t-1.5 132.5q0 18 -3 50.5t-3 65t7.5 57.5t28.5 27q22 2 34.5 -13.5t19 -39t8 -48.5t1.5 -43
q-1 -101 3 -211.5t-1 -214.5z" />
    <glyph glyph-name="o" unicode="o" horiz-adv-x="451" 
d="M423 428q-2 -73 -17 -145.5t-40.5 -130t-60 -94t-75.5 -38.5q-44 -2 -76 19t-54.5 56.5t-36 82.5t-20.5 96.5t-9 98t-1 87.5q1 45 14 91.5t34 86t47.5 68t54.5 36.5q55 17 100 -5t77 -68t48.5 -109.5t14.5 -131.5zM321 428q0 37 -11 73.5t-29 64t-41 42t-46 6.5
q-19 -6 -33 -27t-23 -47.5t-13.5 -54t-5.5 -47.5q-2 -32 2 -69t12.5 -73t20.5 -68t26.5 -54t31.5 -31t34 1q32 18 48 45.5t22 63t5.5 79.5t-0.5 96z" />
    <glyph glyph-name="p" unicode="p" 
d="M360 391q-16 -19 -39 -34t-49.5 -26.5t-54 -17.5t-53.5 -7q5 -26 9.5 -73t2.5 -101q-1 -13 -0.5 -30t-2.5 -33t-12 -30.5t-29 -23.5q-24 -11 -38.5 -7t-21 16t-6.5 29t4 31q5 17 6.5 44.5t2 58.5t-0.5 61t-2 52q-4 90 -11 166.5t-9 153.5q-21 5 -28.5 22t-3 36.5
t20.5 35.5t43 19q63 6 119 -1t105 -26q40 -15 64.5 -52.5t31.5 -84t-4.5 -94.5t-43.5 -84zM324 535q-1 20 -13.5 37t-35 28t-54.5 15.5t-73 -1.5q-2 -50 5 -99.5t4 -87.5q47 -13 80 -14.5t52 11.5q14 9 21.5 23.5t10.5 30t3.5 31t-0.5 26.5z" />
    <glyph glyph-name="q" unicode="q" horiz-adv-x="480" 
d="M450 306q-1 -45 -8.5 -86t-17.5 -86q6 -22 17.5 -47t19 -48t5.5 -41.5t-24 -27.5q-14 -6 -25 2t-21 21.5t-19 28.5t-19 24q-79 -42 -142 -27.5t-108 77.5q-32 45 -50 108.5t-23.5 131t0 132t19.5 111.5q4 14 11.5 31t17.5 33.5t23 30t28 20.5q5 21 10.5 38t17.5 27
t34 11.5t59 -8.5q61 -16 99.5 -63.5t60.5 -112t29.5 -138t5.5 -142.5zM360 291q5 53 -1.5 114.5t-25 116t-49 94t-72.5 48.5q-20 -9 -42 -36.5t-38 -63.5q-9 -20 -14 -54.5t-6.5 -73.5t1 -78.5t9.5 -69.5q11 -48 32.5 -83t47 -53t52 -17.5t47.5 24.5q-6 22 -16 44.5
t-17 44.5t-8 43t11 40q10 16 22.5 14.5t25 -11t23.5 -22.5t18 -21z" />
    <glyph glyph-name="r" unicode="r" horiz-adv-x="428" 
d="M393 129q3 -9 6 -23t3 -28t-4.5 -25.5t-15.5 -16.5q-25 -10 -40.5 -9t-24 10t-12.5 23.5t-8 30.5q-6 27 -15 59t-20.5 64t-26.5 62t-33 52q-11 -8 -29 -12t-28 -5v-52v-33.5v-24.5t1 -25.5t2.5 -35t4.5 -54.5q1 -16 -2.5 -31t-12.5 -26.5t-25 -17t-39 -1.5q-18 3 -22 25
t-2.5 53.5t5.5 68.5t3 70q-1 56 -5 113.5t-7.5 114t-5 112t2.5 107.5q-18 15 -23.5 31.5t4.5 29.5t37.5 21t75.5 6q44 -1 85 -17.5t73 -43t53 -59t24 -67.5q3 -31 -3 -59.5t-17.5 -52.5t-27 -43t-31.5 -33q23 -52 47 -115.5t53 -142.5zM276 576q-4 13 -13.5 27t-26 25.5
t-40 18.5t-55.5 6q-8 -22 -9.5 -50.5t0 -59.5t4 -62.5t1.5 -59.5q31 2 64 10.5t51 28.5q10 11 16 27t9 32.5t2.5 31.5t-3.5 25z" />
    <glyph glyph-name="s" unicode="s" horiz-adv-x="422" 
d="M389 264q0 -25 -4.5 -54.5t-12.5 -58t-19 -53t-23 -38.5q-38 -41 -90.5 -49.5t-105.5 30.5q-7 5 -19.5 13.5t-27 19.5t-28.5 26t-23 34q-8 15 -14 31.5t-7.5 33t4 33t21.5 30.5q34 29 62.5 7.5t37.5 -81.5q18 -27 39 -41.5t40 -19.5t34.5 -1.5t21.5 12.5q24 34 29 62.5
t-2.5 52t-25 42.5t-38.5 33q-33 22 -60 38t-48 29.5t-35 26.5t-21 29q-11 26 -8 61t13.5 70t25 66t26.5 50q20 30 48 47.5t57 21.5t56 -4.5t44 -30.5q21 -27 35.5 -53t17.5 -50t-7.5 -46t-39.5 -41q-16 -10 -27.5 -6.5t-19.5 15t-12.5 28t-6.5 31.5q-1 8 -1 15.5t-2.5 14.5
t-9.5 11.5t-23 6.5q-17 2 -32 -14.5t-25.5 -39.5t-15 -46t-1.5 -34q7 -22 22 -37t36 -28t46 -27.5t52 -36.5q20 -16 33 -29t20.5 -26.5t10.5 -31t3 -44.5z" />
    <glyph glyph-name="t" unicode="t" horiz-adv-x="450" 
d="M426 637q-17 -10 -33.5 -10.5t-34 3t-36 7.5t-38.5 1q-4 -48 -6.5 -106t-3 -122t1 -130.5t5.5 -131.5q1 -16 3.5 -29.5t3.5 -25.5t-1 -21.5t-10 -17.5q-25 -25 -42 -33.5t-27.5 -5.5t-16 13.5t-8.5 21.5q-4 14 -4.5 35t0.5 44.5t2.5 45t-0.5 34.5q-5 53 -5 104
t-0.5 103.5t-3 107.5t-11.5 114q-25 7 -49.5 7.5t-45.5 3t-36 10t-21 27.5q-7 25 1.5 36.5t28 15.5t46.5 3t56 -2q38 -1 77.5 2t77 4.5t69.5 0t54 -11.5q10 -4 15 -18.5t5.5 -30t-3 -29.5t-10.5 -19z" />
    <glyph glyph-name="u" unicode="u" horiz-adv-x="439" 
d="M391 598q4 -32 7 -76t4 -92.5t0.5 -98.5t-2.5 -95.5t-5.5 -83t-8.5 -60.5q-4 -20 -13.5 -38t-21.5 -26t-25 -2t-24 34q-19 -23 -39.5 -38.5t-42 -21t-45 0.5t-50.5 27q-25 20 -39 63t-22 93t-11 97.5t-5 75.5q-3 39 -4 85t0 92.5t4 91.5t6 82q2 20 17.5 33.5t33 18.5
t31.5 0.5t12 -21.5q-6 -50 -9 -109t-3.5 -121.5t3 -126.5t10.5 -124q2 -15 4.5 -35.5t7 -39.5t13 -33.5t21.5 -17.5q19 -5 35.5 0.5t29 16t20.5 24t10 25.5q8 40 11.5 89t4 102t-2.5 108t-9 107q-1 13 -1.5 28t3.5 30t13.5 28.5t26.5 24.5q24 15 35 5.5t14.5 -30.5t3 -47.5
t2.5 -44.5z" />
    <glyph glyph-name="v" unicode="v" horiz-adv-x="382" 
d="M361 714q-6 -48 -12.5 -107.5t-14 -123t-15.5 -127.5t-16 -121q-4 -24 -9 -60.5t-14 -70t-23 -58t-36 -26.5q-21 -1 -37.5 19.5t-28.5 49.5t-19.5 59.5t-12.5 49.5q-6 26 -12 58t-12 66.5t-13 71t-15 72.5q-8 37 -21 75.5t-22 74.5t-10.5 66t13.5 50q18 24 32.5 26.5
t21.5 -14.5q26 -61 42.5 -124t29.5 -125t25.5 -123.5t30.5 -121.5q15 51 23.5 108.5t14.5 116.5t12 117t18 112q3 16 17 26.5t28.5 13t25.5 -4t9 -25.5z" />
    <glyph glyph-name="w" unicode="w" horiz-adv-x="576" 
d="M528 746q26 -22 31.5 -52.5t0.5 -69.5t-16.5 -88.5t-19.5 -110.5q-10 -73 -9.5 -143.5t-4.5 -141.5q-1 -11 1 -27.5t2 -33t-4.5 -29.5t-16.5 -18q-34 -12 -51 -9t-26 15.5t-13.5 31.5t-13.5 38q-10 22 -23 56t-26 69.5t-25.5 67.5t-21.5 50q-15 -26 -25.5 -56.5
t-18.5 -63t-15 -65.5t-17 -64q-3 -11 -4.5 -23.5t-4.5 -23.5t-9 -19t-18 -11q-34 -9 -51 5t-24.5 38t-9.5 52.5t-5 49.5q-14 111 -34.5 244t-31.5 270q-2 26 9 42t26.5 18.5t31 -11t21.5 -46.5q9 -47 17 -93.5t15.5 -95.5t14 -102t11.5 -114q8 14 15.5 39.5t15 56.5t14 65
t12 63.5t9.5 52.5t6 33q5 27 17 46.5t26.5 26.5t29.5 -2t25 -39q5 -14 10.5 -38t12 -53t14 -60t15.5 -58.5t16 -48.5t16 -30q5 58 9.5 102.5t11 86.5t15.5 87t22 104q2 8 7 15.5t12 12.5t14 6t13 -4z" />
    <glyph glyph-name="x" unicode="x" horiz-adv-x="410" 
d="M380 144q9 -45 5.5 -76.5t-17.5 -57.5q-5 -8 -15.5 -4.5t-15.5 11.5q-18 34 -32.5 65.5t-28 64t-26.5 66.5t-28 73q-13 -28 -22.5 -54.5t-17 -52.5l-15 -52t-17.5 -55q-13 -38 -34 -62q-11 -12 -22.5 -10.5t-20.5 13t-13 30.5t1 41q10 48 22.5 90t27 82.5t29 81.5
t29.5 85q-35 79 -72.5 145t-80.5 136q-10 17 -5 29t19.5 18t33.5 5t37 -11q21 -12 37.5 -38.5t30 -56.5t25.5 -59t24 -47q18 37 26 68.5t13.5 59t11.5 52t20 47.5q7 10 17.5 10t20 -9t16.5 -25t7 -37q-1 -30 -8.5 -71t-17 -82.5t-20 -79t-16.5 -61.5q6 -25 18.5 -56.5
t26 -66.5t26.5 -72.5t21 -76.5z" />
    <glyph glyph-name="y" unicode="y" 
d="M378 723q-7 -49 -20 -96.5t-28 -96.5t-30.5 -101t-27.5 -109q-5 -56 -7.5 -112t-0.5 -113q1 -11 4.5 -29t3 -35t-10 -30.5t-34.5 -14.5q-25 -2 -39 6.5t-20.5 23t-7.5 33.5t1 38.5t4.5 38t2.5 31.5q0 21 -0.5 35.5t-0.5 28v30.5v42q-7 23 -18 53t-21 53
q-17 36 -30.5 68.5t-24.5 63.5t-21.5 62.5t-21.5 67.5q-3 10 -1 31.5t9.5 41t20.5 31t32 0.5q12 -6 19.5 -24t13 -41t11.5 -48t15 -47q9 -21 16.5 -37.5t14 -32l13 -31t14.5 -35.5q14 29 24 64.5t20 72t20.5 71.5t25.5 65q5 9 19.5 16t29 7t24.5 -9.5t7 -32.5z" />
    <glyph glyph-name="z" unicode="z" horiz-adv-x="382" 
d="M369 53q-27 -11 -54.5 -18t-56 -10.5t-58 -6t-62.5 -4.5q-50 -4 -66.5 16.5t-7.5 82.5q5 34 21 69t30 70q23 54 38 94t28 77.5t25.5 79t29.5 98.5q-20 1 -40.5 -2l-41 -6t-41 -5t-41.5 1q-9 1 -17.5 9t-14.5 19t-8.5 25t0.5 27q4 15 12 21.5t18.5 8t23.5 1t27 1.5
q20 3 43 7.5t45.5 10t42.5 12.5t34 16q9 5 21 5t23.5 -4.5t20.5 -11.5t12 -15q8 -20 4.5 -48t-9.5 -48q-10 -33 -18 -57.5t-16.5 -48t-17 -47.5t-20.5 -55q-15 -41 -25.5 -73t-19.5 -63t-19 -63.5t-26 -74.5q28 -8 43.5 -9.5t29 1t30.5 7t47 7.5q38 4 54.5 -7.5t18 -28.5
t-10 -34.5t-31.5 -25.5z" />
    <glyph glyph-name="braceleft" unicode="{" horiz-adv-x="412" 
d="M382 332q5 13 1 25.5t-13 23.5t-22 18.5t-26 10.5q-20 4 -43 4.5t-47.5 0t-50 -1t-49.5 0.5q-9 0 -19 3t-19.5 5.5t-17.5 2.5t-14 -5q-15 -15 -17 -31.5t4.5 -31t18.5 -25.5t26 -15q20 -5 46 -5.5t55.5 1t60 5t58.5 5.5q11 1 22 0t20.5 -1t16 2t9.5 8zM232 664
q3 -5 13 -18t22.5 -28.5t24.5 -31t18 -26.5q23 -37 20 -57t-19.5 -23.5t-40 8.5t-40.5 38q-2 3 -9.5 11.5t-17 18t-18.5 19t-14 14.5l-28.5 28.5t-27.5 35.5t-12.5 39t16.5 38q15 15 32.5 10.5t33.5 -18t28.5 -30.5t18.5 -28zM261 127q-5 -3 -18 -13.5t-28.5 -23t-31 -24.5
t-26.5 -18q-37 -23 -57 -20t-23.5 19.5t8.5 40t38 40.5q3 2 11.5 9.5t18 17t19 18.5t14.5 14l28.5 28.5t35.5 27.5t38.5 12.5t37.5 -16.5q15 -15 11 -32.5t-17.5 -33.5t-30.5 -28.5t-28 -17.5z" />
    <glyph glyph-name="bar" unicode="|" horiz-adv-x="202" 
d="M153 148q3 -18 7 -40.5t3 -43t-9 -34t-31 -13.5q-24 0 -37 21.5t-19 52t-7.5 65t-1.5 61.5q-1 61 -1.5 128t-2 134.5t-4.5 132.5t-9 122q-2 18 11.5 26.5t31 8t34 -9t20.5 -25.5q13 -55 13 -128t-3 -152t-4 -158.5t9 -147.5z" />
    <glyph glyph-name="braceright" unicode="}" horiz-adv-x="422" 
d="M374 348q5 12 1 25t-13 24t-22 18.5t-26 10.5q-19 4 -42 4.5t-47.5 0t-50 -1t-50.5 0.5q-9 0 -19 3t-19.5 5.5t-17.5 2.5t-13 -5q-15 -15 -17 -31.5t4 -31t18 -25.5t26 -15q20 -5 46.5 -5.5t55.5 1t60 5t59 5.5q11 1 21.5 0t20 -1t16 2t9.5 8zM209 187q3 -5 13 -18
t22.5 -28.5l25 -31t18.5 -26.5q23 -37 19.5 -57t-20 -23.5t-39.5 8.5t-40 38q-2 3 -9.5 11.5t-17.5 18t-19 19t-14 14.5q-12 12 -28 28.5t-27.5 35.5t-13 38.5t16.5 37.5q15 15 32.5 11t33.5 -17.5t28.5 -30.5t18.5 -28zM262 605q-5 -3 -18 -13t-28.5 -22.5t-31 -24.5
t-26.5 -18q-38 -23 -58 -20t-23.5 19.5t9 40t38.5 40.5q3 2 11 9.5t18 17t19.5 18.5t13.5 14q12 12 29 28.5t36 27.5t38.5 12.5t37.5 -16.5q15 -15 11 -32.5t-17.5 -33.5t-30.5 -28.5t-28 -18.5z" />
    <glyph glyph-name="asciitilde" unicode="~" horiz-adv-x="612" 
d="M546 759q24 -27 17.5 -62t-27.5 -68.5t-49.5 -60.5t-50.5 -38q-14 -8 -35.5 -10.5t-36.5 7.5q-24 14 -45 31t-41 37q-14 14 -30.5 28t-44.5 30q-10 -13 -16.5 -24.5t-12 -23t-10 -23t-11.5 -24.5q-10 -18 -23 -30q-7 -8 -18.5 -7t-22.5 6.5t-19 13.5t-9 14q-6 27 -4 44
t9 30.5t17.5 26.5t22.5 32q12 20 24.5 40.5t35.5 28.5q42 15 72.5 0t54.5 -46q37 -49 63.5 -73t52.5 -18q23 5 36.5 29.5t17.5 50.5q2 16 12.5 31t23 24t26 11t21.5 -7z" />
    <glyph glyph-name="uni00A0" unicode="&#xa0;" horiz-adv-x="500" 
 />
    <glyph glyph-name="exclamdown" unicode="&#xa1;" horiz-adv-x="282" 
d="M95 208v44.5t1 52.5t2.5 51.5t4.5 40.5q2 12 6 24.5t10.5 23t15.5 17.5t19 8t16 -5t10 -15.5t6.5 -21.5t5.5 -24q4 -16 7.5 -46.5t5.5 -67t3 -76.5t-0.5 -76t-5.5 -64.5t-11 -43.5q-3 -6 -16.5 -8.5t-29 -0.5t-28.5 8t-16 16q-4 14 -5 33.5t-1 41.5t0.5 44.5t-0.5 43.5z
M107 638q-16 11 -22 26.5t-4 32t11.5 31t22.5 21.5q11 7 28 6.5t32 -6.5t24.5 -17t4.5 -26q-4 -13 -11 -30.5t-18 -31t-28 -17.5t-40 11z" />
    <glyph glyph-name="cent" unicode="&#xa2;" horiz-adv-x="364" 
d="M320 232q-11 -30 -36 -54t-57 -36q-2 -19 -5.5 -43t-10 -44.5t-16 -34.5t-24.5 -14q-19 0 -27 12t-9.5 28.5t0.5 34.5t3 29q1 7 1 13.5v12.5q-30 10 -53 35q-17 19 -27.5 50t-14.5 68t-2.5 77t9 76.5t21 67.5t31.5 49q9 10 20 17.5t22 13.5q0 8 -0.5 18.5t-1.5 28.5
q0 17 -2 33t0 33q2 19 12.5 34.5t36.5 15.5q29 0 40 -17.5t12 -41.5q1 -6 0.5 -11t-0.5 -10q0 -18 -2.5 -35t-6.5 -34q5 -1 9 -1.5t9 -2.5q34 -12 49.5 -32t17.5 -41t-7 -39.5t-23.5 -28t-33 -6t-35.5 26.5q-5 7 -16 14t-15 12q-31 -21 -45 -58.5t-14.5 -79t11 -81.5
t32.5 -66q8 -10 21 -6.5t25.5 12.5t22.5 19t12 13q5 10 15.5 20.5t29.5 5.5q15 -3 21 -9.5t7 -14t-1.5 -15.5t-4.5 -14z" />
    <glyph glyph-name="sterling" unicode="&#xa3;" horiz-adv-x="394" 
d="M382 332q-3 -6 -9.5 -8t-16 -2t-20.5 1t-22 0q-18 -2 -39 -6t-43 -9q-15 -22 -31 -57.5t-33 -93.5q38 -2 71.5 1.5t70.5 11.5q7 1 16.5 1t19.5 -3t17.5 -9t10.5 -17q3 -12 0 -21.5t-9.5 -17t-15 -13t-17.5 -10.5q-29 -14 -64 -19.5t-67 -10.5q-22 -3 -42.5 -15t-40.5 -21
q-20 -10 -41 -10t-38 27q-10 17 -9 30.5t7 26t14.5 24.5t13.5 25q13 36 32.5 74t38.5 76q-17 -3 -32.5 -3.5t-27.5 2.5q-13 4 -25.5 15t-18.5 25.5t-4 31t17 31.5q5 5 13 5t17.5 -2.5t19.5 -5.5t19 -3q5 -1 16 1t16 2q-9 7 -19.5 17.5t-21 22.5t-19 24t-12.5 22
q-11 26 -8 57.5t13.5 62.5t25 59t26.5 47q20 30 48 47.5t57 21.5t56 -4.5t44 -30.5q21 -27 35.5 -53t17.5 -50t-7.5 -46t-39.5 -41q-16 -10 -27.5 -6.5t-19.5 15t-12.5 28t-6.5 31.5q-1 8 -1 15.5t-2.5 14.5t-9.5 11.5t-23 6.5q-17 2 -32 -14.5t-25.5 -39.5t-15 -46
t-1.5 -34q11 -37 31.5 -62.5t55.5 -56.5q20 5 37.5 6.5t31.5 -1.5q13 -3 26 -10.5t22 -18.5t13 -23.5t-1 -25.5z" />
    <glyph glyph-name="yen" unicode="&#xa5;" 
d="M304 446q13 -1 30 -8t30.5 -17.5t20.5 -24.5t-1 -31q-3 -6 -11.5 -8t-19 -2t-20.5 0.5t-16 0.5q-10 -1 -19 -1.5t-19 -2.5q-5 -23 -7.5 -45.5t-4.5 -46.5h38t37 -5q12 -2 25 -9.5t22.5 -18t14 -23.5t-1.5 -27q-3 -6 -11.5 -8t-19 -2t-20.5 0.5t-16 0.5q-18 -1 -36 -2.5
t-36 -3.5v-33.5t1 -33.5q1 -15 4.5 -33.5t2.5 -35t-10.5 -28t-33.5 -12.5q-37 -3 -51 15.5t-15.5 46t3 57.5t4.5 51q-14 1 -27 2t-27 5q-16 5 -28 16.5t-17 26.5t-2 31t16 28q5 5 15.5 4.5t23.5 -3t25 -5t20 -2.5q2 26 -3 43.5t-14 41.5q-14 0 -27.5 1t-26.5 5q-16 5 -28 17
t-17 27t-2.5 31t16.5 28q8 7 18.5 5t19.5 -4q-21 51 -39.5 102.5t-33.5 104.5q-3 12 -1 33.5t9.5 40.5t20.5 29.5t32 0.5q11 -6 19.5 -26.5t15.5 -46t12.5 -50t11.5 -37.5q14 -34 29 -67.5t29 -68.5q15 32 25 67t18.5 70.5t19 70t27.5 65.5q5 10 19.5 16.5t28.5 6.5
t24.5 -9.5t7.5 -32.5q-4 -35 -12 -70t-18.5 -69.5t-22 -69t-21.5 -68.5z" />
    <glyph glyph-name="glyph248" unicode="&#xa7;" horiz-adv-x="422" 
d="M156 355q8 -18 26 -24.5t42 -14.5q18 -6 31 -8t20 5q24 25 27 44.5t-6.5 35t-27.5 27t-38 20.5q-12 1 -27 -7.5t-27 -21.5t-18.5 -28t-1.5 -28zM380 166q0 -18 -4.5 -39.5t-12.5 -42.5t-19 -39t-24 -28q-38 -29 -90.5 -36t-105.5 22q-7 4 -19.5 10t-27 14.5t-28 19.5
t-23.5 24q-8 11 -14 23t-7.5 24t4.5 24t22 22q33 21 62 5.5t37 -59.5q18 -19 39 -30t40 -14.5t34.5 -1t21.5 9.5q24 25 29 45.5t-2.5 38t-25 31t-38.5 23.5q-8 5 -16 8q-18 1 -40 7.5t-43.5 16.5t-40 23t-28.5 27q-12 17 -7 46t18.5 60t32.5 58t34 39q-24 11 -40 21t-24 23
q-11 19 -8 44t13.5 50.5t25 48.5t26.5 37q20 22 48 34.5t57 15.5t56 -3t44 -22q21 -20 35.5 -39t17.5 -36.5t-7.5 -33.5t-39.5 -30q-16 -7 -27.5 -4.5t-19.5 11t-12.5 20.5t-6.5 23q-1 6 -1 11.5t-2.5 10t-9.5 8.5t-23 5q-17 1 -32 -11t-25.5 -28.5t-15 -33t-1.5 -24.5
q10 -23 31 -35t45.5 -20t47.5 -15t36 -19q14 -13 25.5 -22t20 -19.5t13 -24.5t4.5 -35q0 -18 -4.5 -40t-12.5 -43t-18.5 -38.5t-23.5 -27.5l-5 -3q16 -10 26.5 -18t17 -17.5t9 -21.5t2.5 -30z" />
    <glyph glyph-name="dieresis" unicode="&#xa8;" horiz-adv-x="450" 
d="M187 676q-14 -20 -39 -24t-54 15q-13 9 -19 19t-6 21t4.5 21t10.5 19q13 17 32.5 22.5t50.5 -12.5q14 -9 21.5 -19.5t9 -21.5t-1.5 -21.5t-9 -18.5zM387 670q-14 -19 -39 -23t-54 14q-13 9 -19 19t-6 21t4.5 21t10.5 19q13 17 32.5 23t50.5 -12q14 -9 21.5 -19.5t9 -22
t-1.5 -22t-9 -18.5z" />
    <glyph glyph-name="copyright" unicode="&#xa9;" horiz-adv-x="472" 
d="M443 425q-3 -75 -15 -144t-36 -122t-61 -85.5t-91 -34.5q-69 -3 -111 32t-64 94.5t-28 135.5t-4 155q1 43 14.5 87t36 81.5t50.5 64.5t57 35q57 15 104.5 -5.5t81 -64.5t51 -104.5t15.5 -124.5zM364 448q0 39 -13.5 76.5t-35.5 65t-48.5 42t-53.5 6.5q-22 -6 -41.5 -30
t-34 -54t-23 -60.5t-10.5 -50.5q-6 -67 0.5 -130.5t25 -109t51 -66.5t78.5 -3q40 15 61.5 45.5t31 72.5t11 92t1.5 104zM317 259q-7 -27 -25 -48t-39.5 -30.5t-44.5 -4.5t-41 31q-16 24 -23 69.5t-5.5 94.5t11.5 94t28 68q18 24 44 34.5t51 -0.5q21 -10 30.5 -27t10 -34.5
t-6 -34t-16.5 -25t-21 -6.5t-20 20q-3 5 -8.5 10t-7.5 10q-16 -16 -23.5 -45.5t-7.5 -62t6 -63.5t16 -52q5 -8 11.5 -5t13.5 9.5t12 14.5t6 11q3 8 8 15t16 5q11 -1 17 -6.5t8 -13t2 -15.5t-2 -13z" />
    <glyph glyph-name="ordfeminine" unicode="&#xaa;" horiz-adv-x="556" 
d="M526 146q5 -33 -7 -59t-34.5 -39.5t-52 -13t-58.5 19.5q-40 26 -50.5 60t1.5 62.5t42 44t71 4.5q-1 53 -4.5 91.5t-6.5 78.5q-15 3 -36 10t-45 16t-49.5 20t-48.5 23q-8 -40 -4.5 -87.5t9 -97.5t7.5 -100t-8 -95q-5 -23 -17.5 -35.5t-28.5 -20.5q-37 -17 -70 -11.5
t-57 24t-37 46.5t-10 55q2 23 12.5 41t27.5 29t39.5 13.5t47.5 -5.5q-4 49 -4.5 103t-1.5 113.5t-3 125t-10 136.5q-1 8 -1 20t1.5 24t4 22t7.5 13q9 6 22 6.5t27 -3t27 -9t22 -11.5q15 -9 39.5 -18t53 -18.5t58.5 -20t55 -22.5q20 -2 34 -13.5t21.5 -27.5t8.5 -34.5
t-4 -35.5q-6 -19 -8.5 -65.5t-1.5 -107t6 -127t14 -124.5zM419 493q-2 27 -3.5 54t-3.5 55q-20 9 -42.5 18.5t-44 17.5t-42 13.5t-36.5 7.5q-5 -17 -3.5 -40.5t3.5 -44.5q34 -28 80.5 -47t91.5 -34z" />
    <glyph glyph-name="guillemotleft" unicode="&#xab;" horiz-adv-x="594" 
d="M563 103q1 -9 -2.5 -16.5t-10.5 -17.5q-4 -7 -11.5 -8.5t-15 0t-14 5.5t-8.5 7q-40 54 -85 115t-82 122q-14 23 -35.5 42t-32.5 44q-3 8 1.5 21t12.5 27t17 26.5t13 19.5q15 23 29.5 48.5t28 51.5t27 50t26.5 43q8 11 21.5 14t25.5 -4q25 -13 27 -50q0 -20 -10.5 -44.5
t-25.5 -49.5t-31.5 -49t-28.5 -43q-18 -27 -24 -45q7 -17 31 -49q17 -23 38.5 -50t42.5 -55t38 -56t24 -52q4 -11 8 -23t6 -24zM44 364q5 26 15 47.5t21 39.5q27 45 55 95t46 96q11 30 33 54q13 12 28 12.5t26 -10.5q13 -13 13.5 -34t-7.5 -46t-21.5 -52.5t-28 -53
t-28.5 -47t-22 -36.5q-9 -17 -17 -33t-14 -33q18 -29 41 -56t48 -52.5l50 -51t48 -52.5q13 -16 9 -27.5t-23 -14.5q-15 -2 -34.5 1.5t-39.5 11.5q-23 9 -43 27t-38 39t-33.5 42.5t-30.5 38.5q-9 10 -19.5 21t-19 22.5t-13 24.5t-1.5 27z" />
    <glyph glyph-name="logicalnot" unicode="&#xac;" horiz-adv-x="424" 
d="M376 710q23 -18 30 -38.5t4 -36t-14.5 -22.5t-25.5 1q-47 27 -81.5 39t-63.5 17q-6 -60 -3 -120t8 -121.5t9 -124.5t0 -127q8 -33 -6.5 -58.5t-41.5 -40t-60 -14.5t-62 19q-40 26 -47.5 60t7.5 63t48 45t74 5q-3 89 -9 179.5t-11 178.5q-1 26 -8 58.5t-10 62t3 50
t30 22.5q27 2 49 -2.5t41.5 -13.5t37 -19.5t35.5 -20.5q16 -8 33 -18t34 -23z" />
    <glyph glyph-name="registered" unicode="&#xae;" horiz-adv-x="472" 
d="M443 425q-3 -75 -15 -144t-36 -122t-61 -85.5t-91 -34.5q-69 -3 -111 32t-64 94.5t-28 135.5t-4 155q1 43 14.5 87t36 81.5t50.5 64.5t57 35q57 15 104.5 -5.5t81 -64.5t51 -104.5t15.5 -124.5zM364 448q0 39 -13.5 76.5t-35.5 65t-48.5 42t-53.5 6.5q-22 -6 -41.5 -30
t-34 -54t-23 -60.5t-10.5 -50.5q-6 -67 0.5 -130.5t25 -109t51 -66.5t78.5 -3q40 15 61.5 45.5t31 72.5t11 92t1.5 104zM340 476q3 -32 -9.5 -56.5t-28.5 -40.5q5 -13 7.5 -24t5.5 -22.5t6.5 -25t10.5 -31.5q2 -6 2 -16t-2.5 -20t-6.5 -18.5t-11 -11.5q-15 -6 -23.5 -3
t-13.5 11.5t-7.5 20.5t-5.5 23q-3 13 -5 22.5t-4 18.5t-5 17.5t-8 18.5q-4 -2 -8 -2.5t-8 -1.5v-46q0 -13 2.5 -30t0 -30.5t-13 -21t-36.5 -3.5q-11 2 -16.5 15.5t-4.5 33.5q2 16 3.5 34t1.5 35q-1 28 -3.5 52.5t-4.5 48.5t-2.5 48t2.5 50q3 29 14 44.5t44 13.5
q23 -1 45 -9.5t39.5 -23t29 -32.5t13.5 -38zM272 473q-2 9 -13.5 19.5t-36.5 12.5q-5 -20 -2.5 -47.5t2.5 -47.5q13 2 24 5t16 10q8 8 10 24t0 24z" />
    <glyph glyph-name="degree" unicode="&#xb0;" horiz-adv-x="354" 
d="M322 479q-9 -25 -29 -44.5t-43 -33.5t-45.5 -22t-36.5 -11q-32 -5 -63.5 7.5t-48.5 50.5q-18 39 -19.5 90.5t6.5 98.5q9 49 31 78.5t50.5 41t60 4t59.5 -32.5q18 -16 36.5 -41.5t31.5 -56t17 -64t-7 -65.5zM239 524q4 19 -5.5 42.5t-23.5 43t-29.5 32t-24.5 9.5
q-9 -4 -21.5 -33t-12.5 -71q0 -23 3.5 -39t8.5 -25.5t10.5 -13.5t8.5 -4q12 0 25.5 4t26 12t22 19t12.5 24z" />
    <glyph glyph-name="plusminus" unicode="&#xb1;" horiz-adv-x="394" 
d="M359 328q-6 -16 -33 -16q-8 0 -17.5 1t-19.5 0l-20 -2t-21 -2q-1 -6 -3.5 -29t-8 -46.5t-15 -40.5t-24.5 -11q-13 5 -22.5 15.5t-15 24t-7 27.5t0.5 26q2 10 2 26q-43 -2 -72 7q-12 3 -25.5 10.5t-21 18.5t-5.5 26t19 34q7 8 16 8.5t18.5 -2t19.5 -6t18 -3.5
q8 -1 16.5 -1h16.5q1 28 4.5 55t10.5 48t17.5 34t25.5 13q21 0 31 -14.5t13 -34t1.5 -40.5l-2.5 -35l-1 -25q18 0 45.5 -4.5t43.5 -14.5q11 -7 16.5 -18.5t-1.5 -28.5zM367 25q-3 -6 -9.5 -8t-16 -2t-20.5 1t-22 0q-28 -2 -58.5 -5.5t-60 -5t-55.5 -1t-46 5.5q-14 4 -26 15
t-18.5 25.5t-4.5 31t17 31.5q6 5 14 5t17.5 -2.5t19.5 -5.5t19 -3q24 -1 49.5 -0.5t50 1t47.5 0t43 -4.5q13 -3 26 -10.5t22 -18.5t13 -23.5t-1 -25.5z" />
    <glyph glyph-name="acute" unicode="&#xb4;" horiz-adv-x="342" 
d="M236 621q-5 -3 -18 -13.5t-28.5 -23t-31 -24.5t-26.5 -18q-37 -23 -58.5 -18t-27 23.5t5 43.5t36.5 41q3 2 11 9.5t18 17.5l19 19l14 14q12 12 29.5 28t37 26.5t40 11.5t38.5 -17q15 -15 11.5 -33.5t-15.5 -36t-28 -31t-27 -19.5z" />
    <glyph glyph-name="mu" unicode="&#xb5;" horiz-adv-x="570" 
d="M522 64q-7 -26 -23 -47.5t-36 -30.5q-16 -8 -45 -3t-54.5 22t-38.5 47.5t2 73.5q11 29 36.5 47t56.5 19q-2 56 -2.5 107t-1.5 100.5t-2.5 100t-5.5 106.5q-31 10 -64.5 16.5t-78.5 0.5q-1 -55 -3.5 -100t-4.5 -85.5t-2.5 -80.5t1.5 -86q2 -23 0 -53t-7 -58
q-4 -22 -15.5 -42.5t-39.5 -33.5q-37 -18 -68 -13.5t-52 21.5t-32 44t-9 54q4 54 37.5 79t86.5 4q5 60 9 114.5t4 106.5t-5 103t-16 105q-2 11 0 22t9 19t19 11t29 -2q29 -9 58 -14t57.5 -9.5t56.5 -10t53 -15.5q20 3 37.5 -6.5t29 -24.5t15 -31.5t-4.5 -27.5
q6 -53 6 -107.5t-1.5 -110.5t-2 -113t3.5 -114q2 -23 7.5 -52.5t0.5 -51.5z" />
    <glyph glyph-name="mu" unicode="&#x3bc;" horiz-adv-x="570" 
d="M522 64q-7 -26 -23 -47.5t-36 -30.5q-16 -8 -45 -3t-54.5 22t-38.5 47.5t2 73.5q11 29 36.5 47t56.5 19q-2 56 -2.5 107t-1.5 100.5t-2.5 100t-5.5 106.5q-31 10 -64.5 16.5t-78.5 0.5q-1 -55 -3.5 -100t-4.5 -85.5t-2.5 -80.5t1.5 -86q2 -23 0 -53t-7 -58
q-4 -22 -15.5 -42.5t-39.5 -33.5q-37 -18 -68 -13.5t-52 21.5t-32 44t-9 54q4 54 37.5 79t86.5 4q5 60 9 114.5t4 106.5t-5 103t-16 105q-2 11 0 22t9 19t19 11t29 -2q29 -9 58 -14t57.5 -9.5t56.5 -10t53 -15.5q20 3 37.5 -6.5t29 -24.5t15 -31.5t-4.5 -27.5
q6 -53 6 -107.5t-1.5 -110.5t-2 -113t3.5 -114q2 -23 7.5 -52.5t0.5 -51.5z" />
    <glyph glyph-name="paragraph" unicode="&#xb6;" horiz-adv-x="512" 
d="M273 615q7 -46 6.5 -95.5t-4.5 -100.5q19 -1 38.5 1t37.5 7q-3 38 4 87.5t5 99.5q-41 6 -87 1zM175 449q2 38 1.5 73.5t-2.5 70.5q-29 -11 -46.5 -26t-18.5 -32q-1 -20 20 -43.5t46 -42.5zM263 133q4 -19 9.5 -39.5t5.5 -39t-10 -32.5t-37 -19q-12 -3 -20 3t-14.5 16.5
t-11 23t-8.5 22.5q-8 23 -10 49.5t-1 54.5t3 57t2 56v54q-32 11 -58 23.5t-40 28.5q-32 36 -43.5 84t-4.5 94.5t31.5 84t64.5 52.5q25 9 63 15.5t80.5 10t83.5 4t72 -2.5q27 -3 43 -19t20.5 -35.5t-3 -36.5t-28.5 -22q-2 -77 -8.5 -153.5t-11.5 -166.5q-1 -22 -1.5 -52
t-0.5 -61t2 -58.5t7 -44.5q4 -14 3.5 -31t-7 -29t-21 -16t-38.5 7q-19 9 -28.5 23.5t-12.5 30.5t-2.5 33t-0.5 30q-2 54 2.5 101t9.5 73q-15 1 -34.5 3t-41.5 6q-3 -48 -8 -94t3 -88z" />
    <glyph glyph-name="periodcentered" unicode="&#xb7;" horiz-adv-x="259" 
d="M187 311q-14 -19 -39 -23.5t-54 14.5q-13 9 -19 19t-6 21t4.5 21t10.5 19q13 17 32.5 22.5t50.5 -12.5q14 -9 21.5 -19.5t9 -21.5t-1.5 -21.5t-9 -18.5z" />
    <glyph glyph-name="periodcentered" unicode="&#x2219;" horiz-adv-x="259" 
d="M187 311q-14 -19 -39 -23.5t-54 14.5q-13 9 -19 19t-6 21t4.5 21t10.5 19q13 17 32.5 22.5t50.5 -12.5q14 -9 21.5 -19.5t9 -21.5t-1.5 -21.5t-9 -18.5z" />
    <glyph glyph-name="cedilla" unicode="&#xb8;" horiz-adv-x="376" 
d="M326 89q-2 -12 -8.5 -26t-18.5 -26t-28.5 -21t-38.5 -10q-49 -2 -84 9t-46 27q-11 15 -11.5 30t6.5 25.5t19.5 16t27.5 0.5q23 -7 42 -11t38 12q17 13 18 29t-2.5 32.5t-8 33.5t0.5 31q3 8 13.5 12t23.5 4.5t23.5 -1.5t13.5 -6q6 -9 12 -21.5t9.5 -31t4 -45t-5.5 -63.5z
" />
    <glyph glyph-name="ordmasculine" unicode="&#xba;" horiz-adv-x="542" 
d="M468 706q25 -17 36.5 -37t10 -36t-17.5 -23t-47 2q-16 5 -32.5 11t-33.5 10t-35.5 5t-38.5 -5q3 -39 2 -83.5t-3 -92.5t-4 -98.5t-2 -103.5q0 -21 3 -44t3.5 -46.5t-2.5 -45t-15 -39.5q-13 -19 -32 -32.5t-42 -18.5t-49.5 0.5t-54.5 24.5q-26 18 -39.5 39t-16.5 43
t3.5 43.5t18.5 38.5q11 15 27 23.5t33.5 11.5t35 1.5t31.5 -6.5q4 53 4.5 106.5t-0.5 106.5t-1.5 106t0.5 105q0 24 2 39.5t7.5 24.5t16 13t28.5 4q54 1 110 -10t94 -37z" />
    <glyph glyph-name="guillemotright" unicode="&#xbb;" horiz-adv-x="594" 
d="M43 665q-1 9 2 16t10 18q5 7 12 8.5t14.5 0t14 -5.5t8.5 -7q40 -54 85 -115t82 -122q7 -12 16.5 -22l19 -20t18 -20.5t14.5 -23.5q4 -7 -1 -20.5t-13 -27.5t-16.5 -26.5t-13.5 -19.5q-15 -22 -29 -48l-28 -52t-27 -50t-27 -43q-8 -11 -21.5 -14t-25.5 4q-26 13 -26 50
q0 20 10.5 44t25.5 49.5t31 49.5t28 43q18 27 24 45q-4 9 -11.5 21.5t-18.5 26.5q-17 23 -39 50.5t-43 55.5t-37.5 56t-24.5 52q-4 11 -8 23t-5 24zM562 404q-5 -26 -15.5 -47.5t-21.5 -39.5q-27 -45 -54.5 -95t-45.5 -97q-6 -14 -14 -28t-20 -25q-13 -12 -28 -12.5
t-26 10.5q-13 13 -13.5 34t7.5 46t21.5 52.5t28 53t28.5 47.5t22 36q9 16 17 32.5t14 33.5q-18 29 -41 56t-48 52.5l-50 51t-48 52.5q-13 16 -9 27.5t24 14.5q14 2 33.5 -1.5t39.5 -11.5q23 -10 43 -27.5t38 -38.5t33.5 -42.5t30.5 -38.5q9 -10 19.5 -21t19 -22.5
t13.5 -24.5t2 -27z" />
    <glyph glyph-name="questiondown" unicode="&#xbf;" horiz-adv-x="401" 
d="M44 150q1 51 14.5 91t33 73t40.5 61.5t37 56.5q9 15 9.5 28t-1 25t-2 23t4.5 21q5 9 16.5 14t24 3.5t24.5 -10.5t19 -27q6 -15 10.5 -29.5t5.5 -28.5t-3 -28t-15 -28q-25 -31 -49.5 -65t-42.5 -66.5t-26.5 -61.5t-3.5 -50q8 -38 34 -44q12 -3 28.5 2.5t34.5 16.5t35.5 26
t30.5 33q11 14 23.5 14t23 -9.5t16 -27.5t1.5 -40q-2 -10 -9 -23.5t-16.5 -26t-20 -23.5t-20.5 -16q-74 -41 -155 -18q-47 14 -75.5 47t-26.5 87zM130 671q-13 21 -7 44t26 32q23 11 45 8t35.5 -16.5t15.5 -34.5t-16 -47q-10 -14 -23.5 -19t-27.5 -2t-27 12.5t-21 22.5z" />
    <glyph glyph-name="Agrave" unicode="&#xc0;" horiz-adv-x="422" 
d="M395 139q4 -18 10.5 -39t8 -39.5t-6 -31.5t-33.5 -14q-14 -1 -24.5 5.5t-18 16.5t-12.5 22.5t-8 23.5q-12 46 -19 82.5t-16 80.5q-35 7 -70 3t-70 -3q-1 -29 -4 -49t-6 -38t-5.5 -37t-4.5 -46q-1 -8 1 -17t3 -17t-1.5 -15t-11.5 -12q-14 -7 -26.5 -6t-23 6.5t-18 14
t-11.5 17.5q-10 20 -9 47t6.5 57.5t13.5 64t12 64.5q11 84 27 171t38 166q3 12 12.5 28.5t24.5 30.5t35.5 21t45.5 1q17 -4 26 -15.5t14 -26.5t8 -31.5t8 -30.5q17 -45 31.5 -101t27 -116.5t24 -121.5t22.5 -116zM260 342q-7 30 -12.5 61t-12 60.5t-15.5 55t-23 45.5
q-8 -28 -15 -53.5t-13 -51t-10.5 -52.5t-7.5 -59q17 2 47 -2t62 -4zM183 837q3 -3 12 -10.5t20.5 -16t22.5 -17.5t17 -15q21 -22 16.5 -34.5t-21.5 -15.5t-40 3t-38 21q-2 2 -9 6.5t-16 10.5t-17 11t-13 8q-11 7 -25.5 16.5t-24 21t-10 23t15.5 21.5q14 9 31 7t32.5 -9
t28.5 -16t18 -15z" />
    <glyph glyph-name="Aacute" unicode="&#xc1;" horiz-adv-x="422" 
d="M395 139q4 -18 10.5 -39t8 -39.5t-6 -31.5t-33.5 -14q-14 -1 -24.5 5.5t-18 16.5t-12.5 22.5t-8 23.5q-12 46 -19 82.5t-16 80.5q-35 7 -70 3t-70 -3q-1 -29 -4 -49t-6 -38t-5.5 -37t-4.5 -46q-1 -8 1 -17t3 -17t-1.5 -15t-11.5 -12q-14 -7 -26.5 -6t-23 6.5t-18 14
t-11.5 17.5q-10 20 -9 47t6.5 57.5t13.5 64t12 64.5q11 84 27 171t38 166q3 12 12.5 28.5t24.5 30.5t35.5 21t45.5 1q17 -4 26 -15.5t14 -26.5t8 -31.5t8 -30.5q17 -45 31.5 -101t27 -116.5t24 -121.5t22.5 -116zM260 342q-7 30 -12.5 61t-12 60.5t-15.5 55t-23 45.5
q-8 -28 -15 -53.5t-13 -51t-10.5 -52.5t-7.5 -59q17 2 47 -2t62 -4zM297 802q-4 -2 -15 -9t-24 -15.5t-26 -16.5t-22 -13q-31 -15 -49 -12t-22.5 16t4 29.5t30.5 28.5q3 1 10 6t15 11.5t15.5 13t11.5 9.5q10 8 24.5 18.5t31 18t33 8t31.5 -11.5q13 -10 10 -23t-13 -24.5
t-23 -20.5t-22 -13z" />
    <glyph glyph-name="Acircumflex" unicode="&#xc2;" horiz-adv-x="422" 
d="M395 139q4 -18 10.5 -39t8 -39.5t-6 -31.5t-33.5 -14q-14 -1 -24.5 5.5t-18 16.5t-12.5 22.5t-8 23.5q-12 46 -19 82.5t-16 80.5q-35 7 -70 3t-70 -3q-1 -29 -4 -49t-6 -38t-5.5 -37t-4.5 -46q-1 -8 1 -17t3 -17t-1.5 -15t-11.5 -12q-14 -7 -26.5 -6t-23 6.5t-18 14
t-11.5 17.5q-10 20 -9 47t6.5 57.5t13.5 64t12 64.5q11 84 27 171t38 166q3 12 12.5 28.5t24.5 30.5t35.5 21t45.5 1q17 -4 26 -15.5t14 -26.5t8 -31.5t8 -30.5q17 -45 31.5 -101t27 -116.5t24 -121.5t22.5 -116zM260 342q-7 30 -12.5 61t-12 60.5t-15.5 55t-23 45.5
q-8 -28 -15 -53.5t-13 -51t-10.5 -52.5t-7.5 -59q17 2 47 -2t62 -4zM324 736q-4 -10 -19.5 -15.5t-23.5 -2.5q-13 5 -23.5 14t-21.5 17q-12 10 -23.5 17.5t-20.5 11.5q-10 -7 -16.5 -12t-11 -10t-9 -11t-12.5 -15q-10 -12 -24 -17t-27 -3.5t-21 9t-6 20.5q2 14 2.5 21.5
t10.5 20.5q17 21 31 33.5t31 32.5q23 27 51 25t45 -23q9 -12 27 -24.5t34 -26t25.5 -29t1.5 -33.5z" />
    <glyph glyph-name="Atilde" unicode="&#xc3;" horiz-adv-x="422" 
d="M395 139q4 -18 10.5 -39t8 -39.5t-6 -31.5t-33.5 -14q-14 -1 -24.5 5.5t-18 16.5t-12.5 22.5t-8 23.5q-12 46 -19 82.5t-16 80.5q-35 7 -70 3t-70 -3q-1 -29 -4 -49t-6 -38t-5.5 -37t-4.5 -46q-1 -8 1 -17t3 -17t-1.5 -15t-11.5 -12q-14 -7 -26.5 -6t-23 6.5t-18 14
t-11.5 17.5q-10 20 -9 47t6.5 57.5t13.5 64t12 64.5q11 84 27 171t38 166q3 12 12.5 28.5t24.5 30.5t35.5 21t45.5 1q17 -4 26 -15.5t14 -26.5t8 -31.5t8 -30.5q17 -45 31.5 -101t27 -116.5t24 -121.5t22.5 -116zM260 342q-7 30 -12.5 61t-12 60.5t-15.5 55t-23 45.5
q-8 -28 -15 -53.5t-13 -51t-10.5 -52.5t-7.5 -59q17 2 47 -2t62 -4zM361 862q16 -16 14.5 -35t-12.5 -36.5t-28 -32t-32 -20.5q-5 -2 -15.5 -4.5t-22.5 -4t-23.5 -1t-17.5 3.5q-19 12 -33 23.5t-26.5 17.5t-26 3.5t-31.5 -18.5q-7 -6 -16.5 -9t-18.5 -2.5t-15.5 3.5t-7.5 8
q-10 39 10.5 67t54.5 38q29 9 50.5 -0.5t37.5 -27.5q24 -27 53 -23t45 33q10 19 27 26t34 -9z" />
    <glyph glyph-name="Adieresis" unicode="&#xc4;" horiz-adv-x="422" 
d="M395 139q-11 55 -22.5 116t-24 121.5t-27 116.5t-31.5 101q-5 14 -8 30.5t-8 31.5t-14 26.5t-26 15.5q-25 6 -45.5 -1t-35.5 -21t-24.5 -30.5t-12.5 -28.5q-22 -79 -38 -166t-27 -171q-4 -31 -12 -64.5t-13.5 -64t-6.5 -57.5t9 -47q4 -9 11.5 -17.5t18 -14t23 -6.5
t26.5 6q9 5 11.5 12t1.5 15t-3 17t-1 17q2 27 4.5 46t5.5 37t6 38t4 49q35 -1 70 3t70 -3q9 -44 16 -80.5t19 -82.5q3 -11 8 -23.5t12.5 -22.5t18 -16.5t24.5 -5.5q26 1 33.5 14t6 31.5t-8 39.5t-10.5 39zM260 342q-32 0 -62 4t-47 2q3 32 7.5 59t10.5 52.5t13 51t15 53.5
q14 -20 23 -45.5t15.5 -55t12 -60.5t12.5 -61zM156 758q-12 -20 -35 -24t-49 15q-12 9 -17 19.5t-5 21.5t3.5 21.5t9.5 19.5q12 18 30 23.5t45 -12.5q26 -18 27.5 -42.5t-9.5 -41.5zM336 752q-12 -19 -34.5 -23.5t-48.5 14.5q-12 9 -17.5 19.5t-5.5 21.5t3.5 21.5t9.5 19.5
q12 18 30 24t45 -13q26 -17 27.5 -42t-9.5 -42z" />
    <glyph glyph-name="Aring" unicode="&#xc5;" horiz-adv-x="422" 
d="M260 342q-6 25 -11 55t-12 60.5t-16.5 58t-23.5 48.5q-16 -54 -28.5 -107t-17.5 -109q26 3 54 -1.5t55 -4.5zM277 647q3 -14 5.5 -27t7.5 -26q38 -112 59.5 -226t45.5 -229q3 -14 10 -35t8.5 -40.5t-6 -33.5t-33.5 -15q-14 -1 -24.5 5t-18 16t-12.5 22.5t-8 24.5
q-11 40 -19 80.5t-16 82.5q-35 7 -70 3t-70 -3q-2 -43 -10.5 -85.5t-9.5 -84.5q0 -8 2 -17t2.5 -17t-2 -15t-11.5 -12q-23 -13 -45.5 -1.5t-33.5 33.5q-9 19 -8 49.5t7 64t13.5 65.5t10.5 54q2 18 6.5 47.5t10.5 65t12.5 73.5t14 72.5t15.5 61.5t15 40q-48 11 -66 44t1 80
q11 27 39 42.5t61 21t66.5 2t56.5 -12.5q36 -15 55 -39t18.5 -49t-20 -47.5t-59.5 -34.5zM183 695q25 10 48 4q30 8 34.5 19.5t-6 22t-30 17.5t-36.5 5q-25 -4 -37 -13.5t-12.5 -20.5t10 -20.5t29.5 -13.5z" />
    <glyph glyph-name="AE" unicode="&#xc6;" horiz-adv-x="650" 
d="M289 381q-3 26 -5.5 59t-6.5 67t-11 65.5t-19 54.5q-20 -60 -38 -119t-29 -121q26 3 54 -2t55 -4zM295 273q-35 8 -69.5 3.5t-69.5 -3.5q-7 -48 -19.5 -94.5t-18.5 -94.5q-1 -9 0.5 -18.5t1.5 -19t-3 -17.5t-13 -13q-26 -14 -46.5 -1.5t-29.5 37.5q-8 21 -3.5 55.5t14 72
t20 73t15.5 58.5q20 95 42.5 189t54.5 186q6 18 19 36.5t29.5 32.5t36.5 20.5t41 0.5q18 -6 27 -21q8 0 33 -0.5t53 -1t51.5 -1.5t27.5 -2q25 -7 37.5 -22t11 -30t-17 -26.5t-45.5 -11.5q-32 0 -63 2t-63 -3q8 -43 19 -84.5t13 -85.5q29 -7 59 -8t57 -11q15 -6 27 -19
t15 -26t-6 -23t-35 -10q-29 0 -55.5 -5.5t-55.5 -10.5q5 -45 13 -90.5t10 -90.5q1 -17 -0.5 -33.5t-1.5 -33.5v-3q29 -2 59.5 0t59.5 4q15 1 30.5 5t29.5 2q19 -3 28 -17t8 -31t-10.5 -32t-28.5 -20q-18 -4 -48 -9t-62 -8.5t-61.5 -4.5t-46.5 2q-14 3 -23 10.5t-15 17.5
t-9 22.5t-5 25.5q-7 45 -10.5 90.5t-8.5 90.5z" />
    <glyph glyph-name="Ccedilla" unicode="&#xc7;" horiz-adv-x="376" 
d="M182 93q-27 5 -49 15q-25 11 -43.5 42.5t-31.5 77t-18.5 100.5t-4 111.5t10.5 111t27 100t45 77t63 41.5q31 9 59 2t50.5 -23t38 -39t20.5 -46t-1.5 -44t-27.5 -33q-23 -13 -36.5 -10.5t-21.5 13.5t-12.5 27t-9.5 30t-12 23t-21 5q-31 -9 -48 -44.5t-24.5 -80t-8 -88
t1.5 -68.5q2 -19 4.5 -52.5t10.5 -67.5t22.5 -60.5t38.5 -31.5q19 -4 34.5 8.5t30 29t29 30t30.5 11.5q13 -2 19.5 -10t9 -19t1.5 -22.5t-4 -20.5q-8 -27 -32 -52t-49 -37q5 -25 3.5 -52t-5.5 -52q-5 -28 -21 -46t-38.5 -27t-48 -10t-49 3t-41.5 13t-26 20q-9 13 -10.5 28
t4.5 26t18 17t30 1q11 -3 21 -6.5t19.5 -4.5t19.5 1t20 11q18 14 18 33t-5 39z" />
    <glyph glyph-name="Egrave" unicode="&#xc8;" horiz-adv-x="376" 
d="M326 122q19 -2 26.5 -15t5 -28.5t-13.5 -29.5t-30 -17q-40 -6 -81.5 -11t-94.5 -9q-25 -2 -39 1.5t-21 11t-9 18t-3 23.5q-8 84 -8 162.5t-1 152t-8 142.5t-30 133q-2 5 3.5 14t22.5 8q18 0 41.5 0.5t48 1t50 0t47.5 -3.5q11 -2 26.5 -0.5t23.5 -0.5q24 -7 35 -20.5
t8.5 -27t-19 -23.5t-46.5 -10q-26 0 -62 1t-64 -2q2 -17 5 -36t6 -38.5t5 -39.5t1 -39q31 -7 59.5 -8t54.5 -9q15 -5 26 -17t12.5 -24.5t-8.5 -21t-36 -7.5q-29 2 -55.5 -4t-55.5 -10q1 -45 3 -74.5t3 -53t-0.5 -45.5t-7.5 -53q27 -2 57.5 0t62.5 3q15 1 30.5 4.5t29.5 1.5z
M161 828q3 -3 12.5 -10.5t20.5 -16t22 -17.5t17 -15q21 -22 16.5 -34.5t-21.5 -15.5t-40 3t-38 21q-1 2 -8.5 6.5t-16 10l-17 11t-13.5 8.5q-11 7 -25 16.5t-24 21t-10.5 23t15.5 21.5q14 9 31 7t32.5 -9t28.5 -16t18 -15z" />
    <glyph glyph-name="Eacute" unicode="&#xc9;" horiz-adv-x="376" 
d="M326 122q19 -2 26.5 -15t5 -28.5t-13.5 -29.5t-30 -17q-40 -6 -81.5 -11t-94.5 -9q-25 -2 -39 1.5t-21 11t-9 18t-3 23.5q-8 84 -8 162.5t-1 152t-8 142.5t-30 133q-2 5 3.5 14t22.5 8q18 0 41.5 0.5t48 1t50 0t47.5 -3.5q11 -2 26.5 -0.5t23.5 -0.5q24 -7 35 -20.5
t8.5 -27t-19 -23.5t-46.5 -10q-26 0 -62 1t-64 -2q2 -17 5 -36t6 -38.5t5 -39.5t1 -39q31 -7 59.5 -8t54.5 -9q15 -5 26 -17t12.5 -24.5t-8.5 -21t-36 -7.5q-29 2 -55.5 -4t-55.5 -10q1 -45 3 -74.5t3 -53t-0.5 -45.5t-7.5 -53q27 -2 57.5 0t62.5 3q15 1 30.5 4.5t29.5 1.5z
M264 786q-4 -2 -15 -9t-24 -15.5t-25.5 -16.5t-21.5 -12q-21 -10 -35 -5t-19.5 17t-1.5 26.5t19 22.5q2 1 9 6.5t15 12t16 12.5l12 9q10 8 22 17t25.5 14t28 4t29.5 -13q12 -10 12 -21t-7.5 -20.5t-18.5 -17t-20 -11.5z" />
    <glyph glyph-name="Ecircumflex" unicode="&#xca;" horiz-adv-x="376" 
d="M326 122q19 -2 26.5 -15t5 -28.5t-13.5 -29.5t-30 -17q-40 -6 -81.5 -11t-94.5 -9q-25 -2 -39 1.5t-21 11t-9 18t-3 23.5q-8 84 -8 162.5t-1 152t-8 142.5t-30 133q-2 5 3.5 14t22.5 8q18 0 41.5 0.5t48 1t50 0t47.5 -3.5q11 -2 26.5 -0.5t23.5 -0.5q24 -7 35 -20.5
t8.5 -27t-19 -23.5t-46.5 -10q-26 0 -62 1t-64 -2q2 -17 5 -36t6 -38.5t5 -39.5t1 -39q31 -7 59.5 -8t54.5 -9q15 -5 26 -17t12.5 -24.5t-8.5 -21t-36 -7.5q-29 2 -55.5 -4t-55.5 -10q1 -45 3 -74.5t3 -53t-0.5 -45.5t-7.5 -53q27 -2 57.5 0t62.5 3q15 1 30.5 4.5t29.5 1.5z
M296 736q-2 -5 -7.5 -9.5t-12 -7t-13 -3t-10.5 0.5q-13 5 -23.5 14.5t-21.5 17.5q-12 9 -23 16.5t-21 11.5q-10 -7 -16.5 -11.5t-11 -9.5t-9 -11t-12.5 -15q-10 -12 -24 -17.5t-26.5 -4t-20.5 9t-6 20.5q2 14 2.5 21.5t9.5 20.5q17 21 31 33.5t31 33.5q12 14 25 19.5t26 5
t25 -6.5t20 -17q10 -12 28 -24t34 -25.5t25 -29t1 -33.5z" />
    <glyph glyph-name="Edieresis" unicode="&#xcb;" horiz-adv-x="376" 
d="M326 122q-14 2 -29.5 -1.5t-30.5 -4.5q-32 -1 -62.5 -3t-57.5 0q6 31 7.5 53t0.5 45.5t-3 53t-3 74.5q29 4 55.5 10t55.5 4q26 -1 36 7.5t8.5 21t-12.5 24.5t-26 17q-26 8 -54.5 9t-59.5 8q1 19 -1 39t-5 39.5t-6 38.5t-5 36q28 3 64 2t62 -1q30 0 46.5 10t19 23.5
t-8.5 27t-35 20.5q-8 2 -23.5 0.5t-26.5 0.5q-22 3 -47.5 3.5t-50 0t-48 -1t-41.5 -0.5q-17 1 -22.5 -8t-3.5 -14q23 -64 30 -133t8 -142.5t1 -152t8 -162.5q1 -13 3 -23.5t9 -18t21 -11t39 -1.5q53 4 94.5 9t81.5 11q19 3 30 17t13.5 29.5t-5 28.5t-26.5 15zM144 758
q-12 -20 -34.5 -24.5t-48.5 14.5q-12 9 -17 19.5t-5 22t3.5 22t9.5 19.5q11 17 29 23t45 -13q26 -17 27.5 -41.5t-9.5 -41.5zM325 752q-13 -20 -35.5 -24.5t-48.5 15.5q-12 9 -17 19.5t-5 21.5t3.5 21.5t9.5 19.5q11 18 29 23.5t46 -12.5q13 -9 19.5 -20t8 -22.5t-1.5 -22
t-8 -19.5z" />
    <glyph glyph-name="Igrave" unicode="&#xcc;" horiz-adv-x="388" 
d="M307 122q19 -2 26.5 -15t5 -28.5t-13.5 -29.5t-30 -17q-24 -4 -43 -7t-36 -5.5t-36 -4t-43 -3.5q-25 -2 -41 1.5t-26 11t-14 18.5t-5 24q-1 6 2.5 14.5t11 16t20 12.5t28.5 5h42q-3 22 -4 42.5t-2 37.5q-2 100 -3.5 204t-11.5 201q-14 1 -26.5 1h-20.5q-32 0 -48.5 14.5
t-14.5 40.5q0 5 9.5 14t26.5 8q37 -1 84.5 1.5t92.5 -3.5q5 -1 13.5 0.5t17.5 3.5t17 3.5t12 0.5q24 -7 33.5 -22t5 -30.5t-22.5 -26.5t-48 -11h-12.5t-17.5 1q7 -50 5.5 -107.5t-3.5 -118t-2 -121t9 -115.5q1 -4 1.5 -8t1.5 -9q15 1 30.5 4.5t29.5 1.5zM155 819
q3 -3 12.5 -10.5t20.5 -16.5l22 -18t17 -15q21 -21 16.5 -33.5t-21.5 -15.5t-40 3t-38 21q-1 2 -8 6.5t-16 10t-17 11t-13 8.5q-11 7 -25.5 16.5t-24 21t-10.5 23t15 21.5q14 9 31 7t33 -9t28.5 -16t17.5 -15z" />
    <glyph glyph-name="Iacute" unicode="&#xcd;" horiz-adv-x="388" 
d="M307 122q19 -2 26.5 -15t5 -28.5t-13.5 -29.5t-30 -17q-24 -4 -43 -7t-36 -5.5t-36 -4t-43 -3.5q-25 -2 -41 1.5t-26 11t-14 18.5t-5 24q-1 6 2.5 14.5t11 16t20 12.5t28.5 5h42q-3 22 -4 42.5t-2 37.5q-2 100 -3.5 204t-11.5 201q-14 1 -26.5 1h-20.5q-32 0 -48.5 14.5
t-14.5 40.5q0 5 9.5 14t26.5 8q37 -1 84.5 1.5t92.5 -3.5q5 -1 13.5 0.5t17.5 3.5t17 3.5t12 0.5q24 -7 33.5 -22t5 -30.5t-22.5 -26.5t-48 -11h-12.5t-17.5 1q7 -50 5.5 -107.5t-3.5 -118t-2 -121t9 -115.5q1 -4 1.5 -8t1.5 -9q15 1 30.5 4.5t29.5 1.5zM297 772
q-4 -2 -15 -9t-24 -15.5t-26 -16.5t-22 -12q-31 -16 -49 -12.5t-22.5 16t4 29.5t30.5 28q3 1 10 6t15 11.5t15.5 13t11.5 9.5q10 8 24.5 19t31 18t33 7.5t31.5 -11.5q13 -10 10 -22.5t-13 -24.5t-23 -21t-22 -13z" />
    <glyph glyph-name="Icircumflex" unicode="&#xce;" horiz-adv-x="388" 
d="M307 122q19 -2 26.5 -15t5 -28.5t-13.5 -29.5t-30 -17q-24 -4 -43 -7t-36 -5.5t-36 -4t-43 -3.5q-25 -2 -41 1.5t-26 11t-14 18.5t-5 24q-1 6 2.5 14.5t11 16t20 12.5t28.5 5h42q-3 22 -4 42.5t-2 37.5q-2 100 -3.5 204t-11.5 201q-14 1 -26.5 1h-20.5q-32 0 -48.5 14.5
t-14.5 40.5q0 5 9.5 14t26.5 8q37 -1 84.5 1.5t92.5 -3.5q5 -1 13.5 0.5t17.5 3.5t17 3.5t12 0.5q24 -7 33.5 -22t5 -30.5t-22.5 -26.5t-48 -11h-12.5t-17.5 1q7 -50 5.5 -107.5t-3.5 -118t-2 -121t9 -115.5q1 -4 1.5 -8t1.5 -9q15 1 30.5 4.5t29.5 1.5zM309 733
q-2 -5 -7.5 -9t-12 -6.5t-13 -3t-10.5 0.5q-14 5 -24 14t-21 17q-12 9 -23.5 16.5t-20.5 11.5q-10 -7 -16.5 -11.5t-11 -9.5t-9 -11t-12.5 -15q-10 -12 -24 -17.5t-27 -4t-21 9t-6 20.5q2 14 2.5 22t10.5 20q8 11 15.5 19t15 15t15 15t16.5 18q23 27 51 24.5t45 -22.5
q9 -12 27 -24.5t34 -26t25.5 -29t1.5 -33.5z" />
    <glyph glyph-name="Idieresis" unicode="&#xcf;" horiz-adv-x="388" 
d="M307 122q-14 2 -29.5 -1.5t-30.5 -4.5q-1 5 -1.5 9t-1.5 8q-9 55 -9 115.5t2 121t3.5 118t-5.5 107.5q10 -1 17.5 -1h12.5q30 0 48 11t22.5 26.5t-5 30.5t-33.5 22q-4 1 -12 -0.5t-17 -3.5t-17.5 -3.5t-13.5 -0.5q-45 6 -92.5 3.5t-84.5 -1.5q-17 1 -26.5 -8t-9.5 -14
q-2 -26 14.5 -40.5t48.5 -14.5h20.5t26.5 -1q10 -97 11.5 -201t3.5 -204q1 -17 2 -37.5t4 -42.5h-42q-16 0 -28.5 -5t-20 -12.5t-11 -16t-2.5 -14.5q1 -13 5 -24t14 -18.5t26 -11t41 -1.5q24 2 43 3.5t36 4t36 5.5t43 7q19 3 30 17t13.5 29.5t-5 28.5t-26.5 15zM147 758
q-11 -20 -32 -24t-44 15q-11 9 -16 19.5t-5 21.5t3.5 21.5t8.5 19.5q11 18 27 23.5t42 -12.5q24 -18 25.5 -42.5t-9.5 -41.5zM313 752q-11 -19 -32 -23.5t-45 14.5q-11 9 -15.5 19.5t-4.5 21.5t3.5 21.5t8.5 19.5q11 18 27 24t41 -13q24 -17 25.5 -42t-8.5 -42z" />
    <glyph glyph-name="Ntilde" unicode="&#xd1;" horiz-adv-x="512" 
d="M454 238q3 -28 8 -63t6 -67t-5.5 -56t-26.5 -31q-40 -15 -64.5 -1.5t-27.5 47.5q-1 9 -5.5 23t-11 28.5t-13 28t-11.5 20.5q-28 45 -45.5 72.5t-32.5 52.5t-32 52.5t-46 72.5q-6 -35 -6 -77t2.5 -83t6 -76.5t4.5 -58.5q20 -38 16 -61.5t-40 -33.5q-15 -3 -25.5 1.5
t-18 12.5t-12 18.5t-6.5 17.5q-9 30 -10 67.5t0.5 77.5t4 78.5t0.5 69.5q-4 66 -11.5 134t-0.5 128q2 16 0.5 30t13.5 24q21 14 42.5 7.5t35.5 -20.5q14 -13 23.5 -32t17 -40t14 -41.5t13.5 -37.5q16 -38 35 -70.5t38 -61.5t36.5 -56t30.5 -55q5 47 3 87.5t0 91.5
q1 16 -2.5 39.5t-6.5 49t-4 50.5t5 44q6 20 23.5 28t39.5 10q30 1 38.5 -14t6.5 -38t-9 -51t-7 -52q0 -18 1.5 -56t4 -81.5t5.5 -84.5t5 -64zM414 847q18 -16 16.5 -35.5t-13.5 -38t-30.5 -33.5t-34.5 -22q-5 -2 -16.5 -4.5t-24.5 -4t-25.5 -1.5t-18.5 4q-21 12 -35.5 24
t-28 18t-27.5 4t-34 -19q-7 -6 -17.5 -9t-20 -2.5t-16.5 3.5t-9 8q-6 20 -2.5 37.5t13.5 31.5t25.5 24t33.5 16q32 9 55 -0.5t40 -28.5q26 -29 56.5 -24.5t47.5 34.5q6 10 13.5 17t16.5 10t18 1t18 -10z" />
    <glyph glyph-name="Ograve" unicode="&#xd2;" horiz-adv-x="402" 
d="M376 464q5 -36 5 -83.5t-6 -97.5t-19.5 -98.5t-35.5 -85.5t-53.5 -58t-75.5 -18q-35 3 -62 23.5t-46 52.5t-31.5 71.5t-19.5 80t-9 78.5t0 66q5 72 21.5 138.5t45.5 121.5q5 9 18 17t28.5 14t32.5 9t30 3q42 1 73.5 -23.5t53 -61t34 -77.5t16.5 -72zM285 378
q-3 43 -12.5 80t-23.5 64t-31.5 42.5t-37.5 15.5q-14 0 -24.5 -15.5t-18 -39t-13 -52t-8.5 -54.5t-4.5 -46.5t-1.5 -27.5q0 -42 6.5 -82.5t18.5 -71.5t30 -48t40 -11q31 8 48.5 33t25.5 59.5t8.5 74.5t-2.5 79zM167 837q3 -3 12.5 -10.5t20.5 -16.5l22 -18t17 -15
q21 -21 16.5 -33.5t-21.5 -15.5t-40 3t-38 21q-1 2 -8 6.5t-16 10t-17 11t-13 8.5q-11 7 -25.5 16.5t-24 21t-10.5 23t15 21.5q14 9 31 7t33 -9t28.5 -16t17.5 -15z" />
    <glyph glyph-name="Oacute" unicode="&#xd3;" horiz-adv-x="402" 
d="M376 464q5 -36 5 -83.5t-6 -97.5t-19.5 -98.5t-35.5 -85.5t-53.5 -58t-75.5 -18q-35 3 -62 23.5t-46 52.5t-31.5 71.5t-19.5 80t-9 78.5t0 66q5 72 21.5 138.5t45.5 121.5q5 9 18 17t28.5 14t32.5 9t30 3q42 1 73.5 -23.5t53 -61t34 -77.5t16.5 -72zM285 378
q-3 43 -12.5 80t-23.5 64t-31.5 42.5t-37.5 15.5q-14 0 -24.5 -15.5t-18 -39t-13 -52t-8.5 -54.5t-4.5 -46.5t-1.5 -27.5q0 -42 6.5 -82.5t18.5 -71.5t30 -48t40 -11q31 8 48.5 33t25.5 59.5t8.5 74.5t-2.5 79zM297 793q-4 -2 -15 -9t-23.5 -15t-25.5 -16t-22 -13
q-31 -15 -49 -12t-22.5 15.5t4 29.5t30.5 28q2 2 9 7t15 11.5l16 13t12 9.5q10 8 24.5 18.5t31 17.5t33 7.5t31.5 -11.5q12 -10 9.5 -22.5t-12.5 -24.5t-23.5 -21t-22.5 -13z" />
    <glyph glyph-name="Ocircumflex" unicode="&#xd4;" horiz-adv-x="402" 
d="M376 464q5 -36 5 -83.5t-6 -97.5t-19.5 -98.5t-35.5 -85.5t-53.5 -58t-75.5 -18q-35 3 -62 23.5t-46 52.5t-31.5 71.5t-19.5 80t-9 78.5t0 66q5 72 21.5 138.5t45.5 121.5q5 9 18 17t28.5 14t32.5 9t30 3q42 1 73.5 -23.5t53 -61t34 -77.5t16.5 -72zM285 378
q-3 43 -12.5 80t-23.5 64t-31.5 42.5t-37.5 15.5q-14 0 -24.5 -15.5t-18 -39t-13 -52t-8.5 -54.5t-4.5 -46.5t-1.5 -27.5q0 -42 6.5 -82.5t18.5 -71.5t30 -48t40 -11q31 8 48.5 33t25.5 59.5t8.5 74.5t-2.5 79zM312 735q-4 -10 -19.5 -15.5t-23.5 -2.5q-13 5 -23.5 14
t-21.5 17q-12 10 -23.5 17.5t-20.5 11.5q-10 -7 -16.5 -12t-11 -10t-9 -11t-12.5 -15q-10 -12 -24 -17t-27 -3.5t-21 9t-6 20.5q2 14 2.5 21.5t10.5 20.5q17 21 31 33.5t31 32.5q23 27 51 25t45 -23q9 -12 27 -24.5t34 -26t25.5 -29t1.5 -33.5z" />
    <glyph glyph-name="Otilde" unicode="&#xd5;" horiz-adv-x="402" 
d="M376 464q5 -36 5 -83.5t-6 -97.5t-19.5 -98.5t-35.5 -85.5t-53.5 -58t-75.5 -18q-35 3 -62 23.5t-46 52.5t-31.5 71.5t-19.5 80t-9 78.5t0 66q5 72 21.5 138.5t45.5 121.5q5 9 18 17t28.5 14t32.5 9t30 3q42 1 73.5 -23.5t53 -61t34 -77.5t16.5 -72zM285 378
q-3 43 -12.5 80t-23.5 64t-31.5 42.5t-37.5 15.5q-14 0 -24.5 -15.5t-18 -39t-13 -52t-8.5 -54.5t-4.5 -46.5t-1.5 -27.5q0 -42 6.5 -82.5t18.5 -71.5t30 -48t40 -11q31 8 48.5 33t25.5 59.5t8.5 74.5t-2.5 79zM364 860q17 -16 15 -35.5t-13 -38t-28.5 -33t-32.5 -21.5
q-5 -2 -16 -4.5t-23.5 -4t-24 -1t-17.5 4.5q-19 12 -33.5 24t-27 18t-26.5 3.5t-32 -19.5q-7 -6 -16.5 -9t-18.5 -2.5t-15.5 3.5t-8.5 8q-10 41 11 69t55 39q30 9 51.5 -0.5t38.5 -28.5q25 -28 54.5 -24t44.5 34q11 20 28.5 27t34.5 -9z" />
    <glyph glyph-name="Odieresis" unicode="&#xd6;" horiz-adv-x="402" 
d="M376 464q-4 31 -16.5 72t-34 77.5t-53 61t-73.5 23.5q-13 0 -30 -3t-32.5 -9t-28.5 -14t-18 -17q-29 -55 -45.5 -121.5t-21.5 -138.5q-2 -28 0 -66t9 -78.5t19.5 -80t31.5 -71.5t46 -52.5t62 -23.5q44 -3 75.5 18t53.5 58t35.5 85.5t19.5 98.5t6 97.5t-5 83.5zM285 378
q3 -39 2.5 -79t-8.5 -74.5t-25.5 -59.5t-48.5 -33q-22 -6 -40 11t-30 48t-18.5 71.5t-6.5 82.5q0 7 1.5 27.5t4.5 46.5t8.5 54.5t13 52t18 39t24.5 15.5q20 0 37.5 -15.5t31.5 -42.5t23.5 -64t12.5 -80zM156 758q-12 -20 -35 -24t-49 15q-12 9 -17 19.5t-5 21.5t3.5 21.5
t9.5 19.5q12 18 30 23.5t45 -12.5q26 -18 27.5 -42.5t-9.5 -41.5zM336 752q-12 -19 -34.5 -23.5t-48.5 14.5q-12 9 -17.5 19.5t-5.5 21.5t3.5 21.5t9.5 19.5q12 18 30 24t45 -13q26 -17 27.5 -42t-9.5 -42z" />
    <glyph glyph-name="Oslash" unicode="&#xd8;" horiz-adv-x="402" 
d="M117 293q18 61 38.5 120t44.5 119q8 22 13.5 44t9.5 45q-24 28 -42 24t-30.5 -26.5t-20.5 -58t-12.5 -71t-6 -65t-1.5 -40.5q1 -23 2.5 -45.5t4.5 -45.5zM283 442q-10 -31 -20 -61.5t-21 -61.5q-14 -43 -24.5 -86t-21.5 -87q26 0 43.5 18t27.5 45t14.5 61t5.5 66.5
t-0.5 61t-3.5 44.5zM341 649q13 -32 22 -66t13 -68q3 -31 3.5 -80t-4 -104.5t-16.5 -111t-33.5 -100t-54.5 -71t-80 -23.5q-8 1 -15.5 3t-15.5 4q-17 -35 -36 -42t-33.5 4t-22.5 35.5t-4 52.5q2 11 4.5 23t5.5 23q-28 60 -40.5 139t-10.5 162t19 162t48 137q6 11 19.5 20
t29.5 15t32 9.5t28 3.5q33 0 59 -16q12 29 27.5 33.5t29.5 -6.5t23.5 -31.5t10.5 -41.5q1 -16 -2 -32.5t-6 -32.5z" />
    <glyph glyph-name="Ugrave" unicode="&#xd9;" 
d="M396 70q1 -28 -11.5 -39.5t-29 -11t-31 13t-16.5 32.5q-74 -42 -132.5 -46.5t-81.5 35.5q-19 33 -31 78.5t-18.5 98t-8 108t0 110t6 104t10.5 88.5q2 12 17.5 24.5t33 16.5t30 -5t7.5 -40q-10 -69 -11 -149t5 -168q3 -40 5 -80.5t10 -69t25 -40t50 6.5q25 14 39.5 23.5
t22 20.5t10 27.5t3.5 43.5q2 26 2 59t-0.5 68t-2 71t-4.5 67q-2 26 -2 51t5 46.5t17.5 37.5t34.5 23q15 5 22 0.5t10 -14.5t4 -24.5t4 -29.5q5 -33 5.5 -75t-0.5 -84.5t-2.5 -80.5t-0.5 -63q1 -17 1.5 -48t1 -65.5t0.5 -67t1 -53.5zM191 808q3 -3 12.5 -10.5t21 -16.5
t22.5 -18t17 -15q21 -21 16.5 -33.5t-22 -15.5t-40.5 3t-38 21q-1 2 -8 6.5t-16 10t-17 10.5t-13 8q-11 7 -25.5 17t-24 21.5t-10.5 23t15 21.5q14 9 31 7t33 -9t28.5 -16t17.5 -15z" />
    <glyph glyph-name="Uacute" unicode="&#xda;" 
d="M396 70q1 -28 -11.5 -39.5t-29 -11t-31 13t-16.5 32.5q-74 -42 -132.5 -46.5t-81.5 35.5q-19 33 -31 78.5t-18.5 98t-8 108t0 110t6 104t10.5 88.5q2 12 17.5 24.5t33 16.5t30 -5t7.5 -40q-10 -69 -11 -149t5 -168q3 -40 5 -80.5t10 -69t25 -40t50 6.5q25 14 39.5 23.5
t22 20.5t10 27.5t3.5 43.5q2 26 2 59t-0.5 68t-2 71t-4.5 67q-2 26 -2 51t5 46.5t17.5 37.5t34.5 23q15 5 22 0.5t10 -14.5t4 -24.5t4 -29.5q5 -33 5.5 -75t-0.5 -84.5t-2.5 -80.5t-0.5 -63q1 -17 1.5 -48t1 -65.5t0.5 -67t1 -53.5zM333 766q-4 -2 -15 -9t-24 -15.5
t-26 -16.5t-22 -13q-31 -15 -49 -12t-22.5 16t4 29.5t30.5 28.5q3 1 10 6t15 11.5t15.5 13t11.5 9.5q10 8 24.5 19t31 18t33 7.5t31.5 -11.5q13 -10 10 -22.5t-13 -24.5t-23 -21t-22 -13z" />
    <glyph glyph-name="Ucircumflex" unicode="&#xdb;" 
d="M396 70q1 -28 -11.5 -39.5t-29 -11t-31 13t-16.5 32.5q-74 -42 -132.5 -46.5t-81.5 35.5q-19 33 -31 78.5t-18.5 98t-8 108t0 110t6 104t10.5 88.5q2 12 17.5 24.5t33 16.5t30 -5t7.5 -40q-10 -69 -11 -149t5 -168q3 -40 5 -80.5t10 -69t25 -40t50 6.5q25 14 39.5 23.5
t22 20.5t10 27.5t3.5 43.5q2 26 2 59t-0.5 68t-2 71t-4.5 67q-2 26 -2 51t5 46.5t17.5 37.5t34.5 23q15 5 22 0.5t10 -14.5t4 -24.5t4 -29.5q5 -33 5.5 -75t-0.5 -84.5t-2.5 -80.5t-0.5 -63q1 -17 1.5 -48t1 -65.5t0.5 -67t1 -53.5zM342 730q-5 -10 -20 -15.5t-23 -2.5
q-14 5 -24 14t-21 17q-12 10 -23.5 17.5t-21.5 11.5q-10 -7 -16 -12t-10.5 -10t-9 -11t-12.5 -15q-10 -12 -24 -17t-27 -3.5t-21 9t-6 20.5q2 14 2.5 21.5t10.5 20.5q16 21 30.5 33.5t31.5 32.5q23 27 51 25t44 -23q10 -12 28 -24.5t34 -26t25.5 -29t1.5 -33.5z" />
    <glyph glyph-name="Udieresis" unicode="&#xdc;" 
d="M396 70q-1 21 -1 53.5t-0.5 67t-1 65.5t-1.5 48q-1 25 0.5 63t2.5 80.5t0.5 84.5t-5.5 75q-3 15 -4 29.5t-4 24.5t-10 14.5t-22 -0.5q-22 -7 -34.5 -23t-17.5 -37.5t-5 -46.5t2 -51q3 -31 4.5 -67t2 -71t0.5 -68t-2 -59q-1 -27 -3.5 -43.5t-10 -27.5t-22 -20.5
t-39.5 -23.5q-33 -18 -50 -6.5t-25 40t-10 69t-5 80.5q-6 88 -5 168t11 149q5 31 -7.5 40t-30 5t-33 -16.5t-17.5 -24.5q-6 -39 -10.5 -88.5t-6 -104t0 -110t8 -108t18.5 -98t31 -78.5q23 -40 81.5 -35.5t132.5 46.5q2 -20 16.5 -32.5t31 -13t29 11t11.5 39.5zM181 758
q-12 -20 -35 -24t-49 15q-12 9 -17 19.5t-5 21.5t3.5 21.5t9.5 19.5q12 18 30 23.5t45 -12.5q26 -18 27.5 -42.5t-9.5 -41.5zM361 752q-12 -19 -34.5 -23.5t-48.5 14.5q-12 9 -17.5 19.5t-5.5 21.5t3.5 21.5t9.5 19.5q12 18 30 24t45 -13q26 -17 27.5 -42t-9.5 -42z" />
    <glyph glyph-name="Yacute" unicode="&#xdd;" 
d="M378 651q-7 -44 -20 -87t-28 -87t-30.5 -91t-27.5 -98q-5 -50 -7.5 -100.5t-0.5 -102.5q1 -10 4.5 -26t3 -31.5t-10 -27.5t-34.5 -13t-39 6.5t-20.5 20.5t-7.5 30.5t1 35t4.5 33.5t2.5 28q0 19 -0.5 31.5t-0.5 25v27.5v38q-7 21 -18 48.5t-21 47.5q-17 33 -30.5 62
t-24.5 57t-21.5 56.5t-21.5 60.5q-3 9 -1 28.5t9.5 37t20.5 27.5t32 1q12 -6 19.5 -22t13 -37t11.5 -43.5t15 -41.5t16.5 -34t14 -29l13 -28t14.5 -32q14 26 24 57.5t20 64.5t20.5 65t25.5 59q5 8 19.5 14t29 6t24.5 -8t7 -29zM304 775q-4 -2 -15 -9t-24 -15.5t-25.5 -16.5
t-21.5 -12q-31 -16 -49.5 -12.5t-23 16t4 29.5t30.5 28q3 1 10 6.5t15 12t15.5 12.5t11.5 9q10 8 24.5 19t31 18t33 7.5t31.5 -11.5q13 -10 10 -22.5t-13 -24.5t-23 -21t-22 -13z" />
    <glyph glyph-name="germandbls" unicode="&#xdf;" horiz-adv-x="437" 
d="M418 197q-10 -48 -46 -90.5t-92 -64.5q-25 -10 -40.5 1.5t-19.5 31t2.5 40t24.5 28.5q31 14 47.5 34t23 41.5t5.5 41.5t-5 33q-7 22 -17.5 40.5t-28 32.5t-44.5 21.5t-66 7.5q8 -52 4.5 -96t-8 -84.5t-3.5 -80.5t17 -83q7 -18 13.5 -36t8.5 -34.5t-2 -29t-18 -19.5
q-18 -9 -34 -8.5t-29.5 8.5t-22.5 22t-12 33q-7 43 -9.5 99t-3.5 117.5t-1.5 127t-2 129t-5 121.5t-12.5 106q-3 16 -9.5 30t0.5 28q8 17 26 20.5t41 7.5q28 4 58 1.5t58.5 -9.5t54 -18.5t43.5 -25.5q33 -25 44.5 -59.5t6.5 -69.5t-25 -66t-50 -49q36 -22 65 -48.5
t46.5 -60.5t22.5 -76t-6 -95zM272 623q-3 18 -15.5 28t-30 14.5t-37 5t-37.5 -1.5q-8 -20 -9.5 -42t0.5 -43.5t5 -42t4 -38.5q29 4 52.5 14.5t40 26.5t24 36t3.5 43z" />
    <glyph glyph-name="agrave" unicode="&#xe0;" horiz-adv-x="413" 
d="M396 65q2 -16 -7.5 -27.5t-22.5 -18.5t-27 -7.5t-22 5.5q-12 10 -16.5 22t-5 24t0.5 22.5t-1 18.5q-3 13 -5.5 25.5t-5.5 27t-6.5 32.5t-9.5 43q-38 -2 -74 -7.5t-70 0.5q-5 -39 -8 -63.5t2 -39.5q5 -16 7.5 -31t-1.5 -27.5t-16.5 -23t-37.5 -17.5t-36.5 6t-15 34.5
t-1 46t3.5 41.5q4 43 13 92.5t17 98.5q5 36 13.5 73.5t17.5 72t17.5 63.5t13.5 47q6 22 21.5 40.5t41.5 24.5q38 9 63 -3.5t41.5 -36t25.5 -53t14 -54.5q12 -56 23.5 -116.5t21.5 -120t18.5 -114.5t12.5 -100zM253 337q-8 27 -13 56.5t-10 58t-12 54t-20 43.5
q-23 -52 -37.5 -111.5t-22.5 -115.5q32 -1 63.5 2t51.5 13zM179 810q3 -3 12 -10.5t20.5 -16t22.5 -17.5t17 -15q21 -22 16.5 -34.5t-21.5 -15.5t-40 3t-38 21q-1 2 -8.5 7t-16 10.5t-17 10.5t-13.5 8q-11 7 -25 17t-24 21t-10.5 23t15.5 22q14 9 31 7t32.5 -9t28.5 -16.5
t18 -15.5z" />
    <glyph glyph-name="aacute" unicode="&#xe1;" horiz-adv-x="413" 
d="M396 65q2 -16 -7.5 -27.5t-22.5 -18.5t-27 -7.5t-22 5.5q-12 10 -16.5 22t-5 24t0.5 22.5t-1 18.5q-3 13 -5.5 25.5t-5.5 27t-6.5 32.5t-9.5 43q-38 -2 -74 -7.5t-70 0.5q-5 -39 -8 -63.5t2 -39.5q5 -16 7.5 -31t-1.5 -27.5t-16.5 -23t-37.5 -17.5t-36.5 6t-15 34.5
t-1 46t3.5 41.5q4 43 13 92.5t17 98.5q5 36 13.5 73.5t17.5 72t17.5 63.5t13.5 47q6 22 21.5 40.5t41.5 24.5q38 9 63 -3.5t41.5 -36t25.5 -53t14 -54.5q12 -56 23.5 -116.5t21.5 -120t18.5 -114.5t12.5 -100zM253 337q-8 27 -13 56.5t-10 58t-12 54t-20 43.5
q-23 -52 -37.5 -111.5t-22.5 -115.5q32 -1 63.5 2t51.5 13zM297 772q-4 -2 -15 -9t-24 -15.5t-26 -16.5t-22 -12q-31 -16 -49 -12.5t-22.5 16t4 29.5t30.5 28q3 1 10 6t15 11.5t15.5 13t11.5 9.5q10 8 24.5 19t31 18t33 7.5t31.5 -11.5q13 -10 10 -22.5t-13 -24.5t-23 -21
t-22 -13z" />
    <glyph glyph-name="acircumflex" unicode="&#xe2;" horiz-adv-x="413" 
d="M396 65q2 -16 -7.5 -27.5t-22.5 -18.5t-27 -7.5t-22 5.5q-12 10 -16.5 22t-5 24t0.5 22.5t-1 18.5q-3 13 -5.5 25.5t-5.5 27t-6.5 32.5t-9.5 43q-38 -2 -74 -7.5t-70 0.5q-5 -39 -8 -63.5t2 -39.5q5 -16 7.5 -31t-1.5 -27.5t-16.5 -23t-37.5 -17.5t-36.5 6t-15 34.5
t-1 46t3.5 41.5q4 43 13 92.5t17 98.5q5 36 13.5 73.5t17.5 72t17.5 63.5t13.5 47q6 22 21.5 40.5t41.5 24.5q38 9 63 -3.5t41.5 -36t25.5 -53t14 -54.5q12 -56 23.5 -116.5t21.5 -120t18.5 -114.5t12.5 -100zM253 337q-8 27 -13 56.5t-10 58t-12 54t-20 43.5
q-23 -52 -37.5 -111.5t-22.5 -115.5q32 -1 63.5 2t51.5 13zM324 717q-5 -10 -20 -15.5t-23 -2.5q-14 5 -24 14t-21 17q-12 10 -23.5 17.5t-21.5 11.5q-10 -7 -16 -12t-10.5 -10t-9 -11t-12.5 -15q-10 -12 -24 -17t-27 -3.5t-21 9t-6 20.5q2 14 2.5 21.5t10.5 20.5
q16 21 30.5 33.5t31.5 32.5q23 27 51 25t44 -23q10 -12 28 -24.5t34 -26t25.5 -29t1.5 -33.5z" />
    <glyph glyph-name="atilde" unicode="&#xe3;" horiz-adv-x="413" 
d="M396 65q2 -16 -7.5 -27.5t-22.5 -18.5t-27 -7.5t-22 5.5q-12 10 -16.5 22t-5 24t0.5 22.5t-1 18.5q-3 13 -5.5 25.5t-5.5 27t-6.5 32.5t-9.5 43q-38 -2 -74 -7.5t-70 0.5q-5 -39 -8 -63.5t2 -39.5q5 -16 7.5 -31t-1.5 -27.5t-16.5 -23t-37.5 -17.5t-36.5 6t-15 34.5
t-1 46t3.5 41.5q4 43 13 92.5t17 98.5q5 36 13.5 73.5t17.5 72t17.5 63.5t13.5 47q6 22 21.5 40.5t41.5 24.5q38 9 63 -3.5t41.5 -36t25.5 -53t14 -54.5q12 -56 23.5 -116.5t21.5 -120t18.5 -114.5t12.5 -100zM253 337q-8 27 -13 56.5t-10 58t-12 54t-20 43.5
q-23 -52 -37.5 -111.5t-22.5 -115.5q32 -1 63.5 2t51.5 13zM367 838q17 -16 15.5 -35.5t-13.5 -38t-30 -33.5t-34 -22q-5 -2 -17 -4.5t-25 -4t-25 -1t-18 4.5q-21 12 -36 24t-28.5 18t-27.5 3.5t-34 -19.5q-7 -6 -17.5 -9t-19.5 -2.5t-16 3.5t-9 8q-11 42 11 70t59 39
q32 10 54.5 0.5t39.5 -28.5q13 -14 28 -20t29.5 -4.5t27 10t20.5 23.5q11 20 29.5 27.5t36.5 -9.5z" />
    <glyph glyph-name="adieresis" unicode="&#xe4;" horiz-adv-x="413" 
d="M396 65q-4 45 -12.5 100t-18.5 114.5t-21.5 120t-23.5 116.5q-5 25 -14 54.5t-25.5 53t-41.5 36t-63 3.5q-26 -6 -41.5 -24.5t-21.5 -40.5q-5 -18 -13.5 -47t-17.5 -63.5t-17.5 -72t-13.5 -73.5q-8 -49 -17 -98.5t-13 -92.5q-1 -17 -3.5 -41.5t1 -46t15 -34.5t36.5 -6
t37.5 17.5t16.5 23t1.5 27.5t-7.5 31q-5 15 -2 39.5t8 63.5q34 -6 70 -0.5t74 7.5q6 -25 9.5 -43t6.5 -32.5t5.5 -27t5.5 -25.5q2 -8 1 -18.5t-0.5 -22.5t5 -24t16.5 -22q8 -6 22 -5.5t27 7.5t22.5 18.5t7.5 27.5zM253 337q-20 -10 -51.5 -13t-63.5 -2q8 56 22.5 115.5
t37.5 111.5q13 -18 20 -43.5t12 -54t10 -58t13 -56.5zM156 738q-12 -20 -35 -24t-49 15q-12 9 -17 19.5t-5 21.5t3.5 21.5t9.5 19.5q12 18 30 23.5t45 -12.5q26 -18 27.5 -42.5t-9.5 -41.5zM336 732q-12 -19 -34.5 -23.5t-48.5 14.5q-12 9 -17.5 19.5t-5.5 21.5t3.5 21.5
t9.5 19.5q12 18 30 24t45 -13q26 -17 27.5 -42t-9.5 -42z" />
    <glyph glyph-name="aring" unicode="&#xe5;" horiz-adv-x="413" 
d="M253 337q-7 23 -12 52l-10 58t-12.5 56t-20.5 46q-23 -54 -37.5 -111.5t-22.5 -115.5q25 0 58.5 2t56.5 13zM276 629q19 -24 28.5 -54t15.5 -59q16 -76 30.5 -151.5t26.5 -152.5q5 -36 11 -73.5t8 -73.5q0 -13 -8 -25t-20.5 -20t-26 -9.5t-24.5 6.5q-12 10 -16 20
t-4.5 21t0 22.5t-1.5 23.5q-7 32 -13 64t-14 64q-36 -2 -72 -7.5t-72 0.5q-1 -10 -3.5 -24t-4 -28t-1.5 -27.5t3 -23.5q5 -19 6.5 -35t-3 -28t-16.5 -21t-35 -15q-26 -7 -37.5 7t-14.5 36t-0.5 46.5t3.5 38.5q5 49 13.5 96t16.5 95q10 66 26.5 129.5t35.5 126.5q2 5 4 11
t5 11q-49 11 -68.5 43.5t0.5 81.5q11 27 38.5 42t61 20.5t67 2t56.5 -12.5q35 -14 53.5 -37.5t19.5 -48t-17 -47t-57 -35.5zM259 701q7 15 -11 26t-42 14.5t-45.5 -3t-22.5 -26.5q0 -20 17 -28.5t38.5 -8.5t41 7t24.5 19z" />
    <glyph glyph-name="ae" unicode="&#xe6;" horiz-adv-x="624" 
d="M282 374q-4 26 -6 58t-4.5 64.5t-7.5 62.5t-16 51q-29 -60 -48.5 -123.5t-33.5 -128.5q26 -1 59.5 1.5t56.5 14.5zM360 19q-10 -5 -23 -6.5t-21 6.5q-11 10 -14.5 22t-3 24.5t2.5 25.5t1 25q-4 35 -7 71t-7 71q-18 -1 -36.5 -3.5t-36.5 -4.5t-36 -2.5t-36 2.5
q-2 -11 -5.5 -26.5t-6.5 -31t-4.5 -30.5t0.5 -26q7 -42 -2 -69t-56 -41q-27 -8 -37 8.5t-10.5 42t4.5 52t7 39.5q9 54 22.5 106.5t25.5 105.5q17 73 39.5 143.5t47.5 140.5q7 19 18.5 35t26.5 26.5t33.5 14.5t39.5 -1q8 3 16 1.5t16 -4.5q21 -7 37.5 -8.5t31 -0.5t29.5 2.5
t34 -1.5q27 -4 45.5 -17t23.5 -28.5t-6 -30.5t-44 -22q-24 -5 -49.5 -2.5t-48.5 -6.5q2 -29 2.5 -58.5t2.5 -58.5q17 -4 35 -4t35.5 1t35.5 1t35 -4q22 -4 33.5 -18.5t11.5 -30.5t-12 -29.5t-37 -15.5q-13 -1 -29.5 -0.5t-33.5 0t-32.5 -2.5t-26.5 -8q3 -64 9 -126t2 -126
q27 -4 54.5 0.5t53.5 9.5q11 2 20.5 6.5t20.5 4.5q30 1 45.5 -12t15 -32t-17.5 -38t-51 -30q-12 -4 -38 -10t-54.5 -11t-54 -8.5t-36.5 -1.5z" />
    <glyph glyph-name="ccedilla" unicode="&#xe7;" horiz-adv-x="413" 
d="M187 80q-49 4 -80 44t-45.5 99.5t-16 130.5t8 138t27.5 122t41 82q14 17 33 31.5t40.5 23t45 9.5t45.5 -9q24 -10 41.5 -34.5t24.5 -53.5t1 -57t-31 -44q-18 -12 -30 -8t-20 16.5t-14 29t-11 31t-11 22t-15 0.5q-26 -19 -43 -53t-26.5 -75.5t-12 -88.5t1.5 -90.5
t14.5 -81.5t26.5 -63q11 -16 27.5 -15t34 10.5t32.5 23.5t21 24q3 5 6 12t6.5 13t8.5 10t12 4q13 -1 21 -7.5t12 -16t4 -20.5t-3 -21q-10 -35 -34 -66t-55 -50q9 -28 8 -61t-6 -62t-21 -46.5t-38.5 -27t-48.5 -10.5t-49 3t-41 13t-26 20q-9 14 -10 28.5t4.5 26t17.5 17
t30 0.5q11 -3 21 -6t19.5 -4.5t19.5 1t20 10.5q20 16 19 36t-7 40z" />
    <glyph glyph-name="egrave" unicode="&#xe8;" horiz-adv-x="380" 
d="M290 155q32 0 45.5 -12.5t10.5 -29t-21.5 -33.5t-52.5 -26q-25 -7 -45.5 -11t-39.5 -7t-39 -5.5l-44 -5.5q-23 -2 -40.5 9.5t-25.5 25.5q-6 10 -3.5 19.5t7.5 18.5t9.5 17t4.5 16q-2 70 -4.5 132t-4 120.5t-2.5 117t0 122.5q0 11 4 22.5t12 19t19.5 10t26.5 -3.5
q18 -7 34.5 -8.5t33 -0.5t32.5 2.5t32 -0.5q27 -3 44 -15t20.5 -26.5t-9 -27.5t-45.5 -19q-27 -5 -51.5 -2.5t-47.5 -5.5q-1 -15 -1.5 -27t-1.5 -24t-1.5 -24.5t-0.5 -29.5q14 -3 32 -3.5t37 0t37.5 0.5t33.5 -3q22 -3 32.5 -16.5t9 -28t-14.5 -26.5t-39 -13q-16 -1 -33 -1
t-33.5 -0.5t-31 -2.5t-25.5 -7q-1 -40 -1 -66v-48.5t-1.5 -47.5t-7.5 -64q16 -2 28 -1.5t23.5 2t25 4t31.5 3.5q11 2 21.5 6.5t20.5 4.5zM161 814q2 -3 11.5 -10.5t21 -16.5t22.5 -18t17 -15q21 -21 16.5 -33.5t-21.5 -15.5t-40 3t-38 21q-2 2 -9 6.5t-16 10t-17 11t-13 8.5
q-11 7 -25.5 16.5t-24 21t-10 23t15.5 21.5q14 9 31 7t32.5 -9t28.5 -16t18 -15z" />
    <glyph glyph-name="eacute" unicode="&#xe9;" horiz-adv-x="380" 
d="M290 155q32 0 45.5 -12.5t10.5 -29t-21.5 -33.5t-52.5 -26q-25 -7 -45.5 -11t-39.5 -7t-39 -5.5l-44 -5.5q-23 -2 -40.5 9.5t-25.5 25.5q-6 10 -3.5 19.5t7.5 18.5t9.5 17t4.5 16q-2 70 -4.5 132t-4 120.5t-2.5 117t0 122.5q0 11 4 22.5t12 19t19.5 10t26.5 -3.5
q18 -7 34.5 -8.5t33 -0.5t32.5 2.5t32 -0.5q27 -3 44 -15t20.5 -26.5t-9 -27.5t-45.5 -19q-27 -5 -51.5 -2.5t-47.5 -5.5q-1 -15 -1.5 -27t-1.5 -24t-1.5 -24.5t-0.5 -29.5q14 -3 32 -3.5t37 0t37.5 0.5t33.5 -3q22 -3 32.5 -16.5t9 -28t-14.5 -26.5t-39 -13q-16 -1 -33 -1
t-33.5 -0.5t-31 -2.5t-25.5 -7q-1 -40 -1 -66v-48.5t-1.5 -47.5t-7.5 -64q16 -2 28 -1.5t23.5 2t25 4t31.5 3.5q11 2 21.5 6.5t20.5 4.5zM283 771q-4 -2 -15 -9t-24 -15l-26 -16t-22 -13q-22 -11 -36 -5.5t-19.5 17.5t-1 26.5t19.5 22.5q3 2 10 7t15 11.5t15.5 13t11.5 9.5
q10 8 22.5 17.5t26.5 15.5t28.5 5.5t29.5 -12.5q13 -10 12 -21.5t-8.5 -22t-18.5 -19t-20 -12.5z" />
    <glyph glyph-name="ecircumflex" unicode="&#xea;" horiz-adv-x="380" 
d="M290 155q32 0 45.5 -12.5t10.5 -29t-21.5 -33.5t-52.5 -26q-25 -7 -45.5 -11t-39.5 -7t-39 -5.5l-44 -5.5q-23 -2 -40.5 9.5t-25.5 25.5q-6 10 -3.5 19.5t7.5 18.5t9.5 17t4.5 16q-2 70 -4.5 132t-4 120.5t-2.5 117t0 122.5q0 11 4 22.5t12 19t19.5 10t26.5 -3.5
q18 -7 34.5 -8.5t33 -0.5t32.5 2.5t32 -0.5q27 -3 44 -15t20.5 -26.5t-9 -27.5t-45.5 -19q-27 -5 -51.5 -2.5t-47.5 -5.5q-1 -15 -1.5 -27t-1.5 -24t-1.5 -24.5t-0.5 -29.5q14 -3 32 -3.5t37 0t37.5 0.5t33.5 -3q22 -3 32.5 -16.5t9 -28t-14.5 -26.5t-39 -13q-16 -1 -33 -1
t-33.5 -0.5t-31 -2.5t-25.5 -7q-1 -40 -1 -66v-48.5t-1.5 -47.5t-7.5 -64q16 -2 28 -1.5t23.5 2t25 4t31.5 3.5q11 2 21.5 6.5t20.5 4.5zM309 733q-2 -5 -7.5 -9t-12 -6.5t-13 -3t-10.5 0.5q-14 5 -24 14t-21 17q-12 9 -23.5 16.5t-20.5 11.5q-10 -7 -16.5 -11.5t-11 -9.5
t-9 -11t-12.5 -15q-10 -12 -24 -17.5t-27 -4t-21 9t-6 20.5q2 14 2.5 22t10.5 20q8 11 15.5 19t15 15t15 15t16.5 18q23 27 51 24.5t45 -22.5q9 -12 27 -24.5t34 -26t25.5 -29t1.5 -33.5z" />
    <glyph glyph-name="edieresis" unicode="&#xeb;" horiz-adv-x="380" 
d="M290 155q-10 0 -20.5 -4.5t-21.5 -6.5q-18 -1 -31.5 -3.5t-25 -4t-23.5 -2t-28 1.5q6 39 7.5 64t1.5 47.5v48.5t1 66q11 5 25.5 7t31 2.5t33.5 0.5t33 1q26 1 39 13t14.5 26.5t-9 28t-32.5 16.5q-15 3 -33.5 3t-37.5 -0.5t-37 0t-32 3.5q0 17 0.5 29.5t1.5 24.5t1.5 24
t1.5 27q23 8 47.5 5.5t51.5 2.5q33 6 45.5 19t9 27.5t-20.5 26.5t-44 15q-16 2 -32 0.5t-32.5 -2.5t-33 0.5t-34.5 8.5q-15 6 -26.5 3.5t-19.5 -10t-12 -19t-4 -22.5q-1 -64 0 -122.5t2.5 -117t4 -120.5t4.5 -132q0 -8 -4.5 -16t-9.5 -17t-7.5 -18.5t3.5 -19.5
q8 -14 25.5 -25.5t40.5 -9.5l44 5.5t39 5.5t39.5 7t45.5 11q34 9 52.5 26t21.5 33.5t-10.5 29t-45.5 12.5zM151 743q-12 -20 -35 -24t-49 15q-12 9 -17 19.5t-5 21.5t3.5 21.5t9.5 19.5q12 18 30 23.5t45 -12.5q26 -18 27.5 -42.5t-9.5 -41.5zM331 737q-12 -19 -34.5 -23.5
t-48.5 14.5q-12 9 -17.5 19.5t-5.5 21.5t3.5 21.5t9.5 19.5q12 18 30 24t45 -13q26 -17 27.5 -42t-9.5 -42z" />
    <glyph glyph-name="igrave" unicode="&#xec;" horiz-adv-x="206" 
d="M156 163q4 -17 9.5 -35.5t5.5 -35.5t-9.5 -29.5t-36.5 -17.5q-12 -2 -20.5 3.5t-14.5 14.5t-10.5 20.5t-8.5 20.5q-9 21 -12.5 44.5t-4.5 49t-0.5 51.5t0.5 51q-1 45 1.5 90t3.5 88.5t-0.5 85t-10.5 79.5q-3 11 9.5 18.5t29.5 9.5t33.5 -3.5t22.5 -21.5q19 -53 19 -115.5
t-5 -126t-9 -126t8 -115.5zM61 821q2 -3 9.5 -10t16.5 -16t18 -17.5t14 -14.5q17 -21 13 -33t-17.5 -15t-31.5 3t-30 20q-1 2 -7 6.5t-13 10t-13.5 10.5t-10.5 8q-9 7 -20.5 16.5t-19 20.5t-8 22t12.5 21q11 9 24.5 7t26 -8.5t22.5 -15.5t14 -15z" />
    <glyph glyph-name="iacute" unicode="&#xed;" horiz-adv-x="206" 
d="M156 163q4 -17 9.5 -35.5t5.5 -35.5t-9.5 -29.5t-36.5 -17.5q-12 -2 -20.5 3.5t-14.5 14.5t-10.5 20.5t-8.5 20.5q-9 21 -12.5 44.5t-4.5 49t-0.5 51.5t0.5 51q-1 45 1.5 90t3.5 88.5t-0.5 85t-10.5 79.5q-3 11 9.5 18.5t29.5 9.5t33.5 -3.5t22.5 -21.5q19 -53 19 -115.5
t-5 -126t-9 -126t8 -115.5zM191 777q-3 -2 -11.5 -9t-19 -16t-20.5 -17t-17 -13q-24 -16 -38 -12.5t-17.5 16.5t3 30t23.5 29q2 1 7.5 6.5t12 12.5t12.5 13.5t9 9.5l19 19t24 18.5t26 8t25 -11.5q10 -11 7.5 -24t-10 -25t-18 -21.5t-17.5 -13.5z" />
    <glyph glyph-name="icircumflex" unicode="&#xee;" horiz-adv-x="206" 
d="M156 163q4 -17 9.5 -35.5t5.5 -35.5t-9.5 -29.5t-36.5 -17.5q-12 -2 -20.5 3.5t-14.5 14.5t-10.5 20.5t-8.5 20.5q-9 21 -12.5 44.5t-4.5 49t-0.5 51.5t0.5 51q-1 45 1.5 90t3.5 88.5t-0.5 85t-10.5 79.5q-3 11 9.5 18.5t29.5 9.5t33.5 -3.5t22.5 -21.5q19 -53 19 -115.5
t-5 -126t-9 -126t8 -115.5zM204 725q-3 -11 -14.5 -16t-16.5 -2q-10 5 -17.5 14t-15.5 17q-9 9 -17 16.5t-16 11.5l-11.5 -11.5t-8 -9.5t-7 -11t-8.5 -15q-7 -12 -17.5 -17t-20 -3.5t-15 8.5t-4.5 20q2 14 2 21.5t7 20.5q12 21 22.5 33.5t23.5 32.5q17 27 37.5 25t32.5 -23
q7 -12 20 -24t24.5 -25.5t18.5 -29t1 -33.5z" />
    <glyph glyph-name="idieresis" unicode="&#xef;" horiz-adv-x="206" 
d="M156 163q-12 53 -8 115.5t9 126t5 126t-19 115.5q-6 16 -22.5 21.5t-33.5 3.5t-29.5 -9.5t-9.5 -18.5q9 -38 10.5 -79.5t0.5 -85t-3.5 -88.5t-1.5 -90q0 -25 -0.5 -51t0.5 -51.5t4.5 -49t12.5 -44.5q4 -9 8.5 -20.5t10.5 -20.5t14.5 -14.5t20.5 -3.5q27 5 36.5 17.5
t9.5 29.5t-5.5 35.5t-9.5 35.5zM72 754q-9 -20 -24.5 -24.5t-33.5 15.5q-17 18 -15.5 41.5t9.5 41.5t20 24t31 -13q18 -18 19 -43t-6 -42zM196 748q-8 -20 -24 -24.5t-34 15.5q-17 18 -15.5 42t9.5 42t20 23.5t31 -13.5q18 -18 19.5 -42.5t-6.5 -42.5z" />
    <glyph glyph-name="ntilde" unicode="&#xf1;" horiz-adv-x="521" 
d="M468 149q6 -14 9.5 -31.5t2.5 -33.5t-6 -28.5t-16 -16.5q-28 -10 -48.5 -8t-34 12.5t-20.5 28t-9 36.5q-20 32 -44 70t-49.5 78.5t-51.5 81.5t-51 80q-4 -52 -6 -96t-0.5 -88t6 -91.5t11.5 -106.5q2 -17 -13.5 -22.5t-35 -2.5t-36 13t-15.5 23q4 52 3 114t-2.5 128
t-2.5 132.5t3 127.5q1 14 -1.5 29t-3.5 28.5t2.5 25.5t16.5 19q27 16 50.5 3t43.5 -40.5t36.5 -63.5t29.5 -66q14 -33 32 -64t36 -59.5t34.5 -53.5t27.5 -44q5 24 6.5 48.5t1.5 51.5t-0.5 56.5t-0.5 63.5q0 15 -3 44.5t-3 59t7.5 52t28.5 23.5q22 2 34.5 -12t19 -35t8 -43.5
t1.5 -38.5q-1 -91 3 -190t-1 -194zM417 832q18 -16 16.5 -35.5t-13.5 -38t-30.5 -33.5t-34.5 -22q-5 -2 -16.5 -4.5t-24.5 -4t-25.5 -1t-18.5 4.5q-20 12 -35 24t-28.5 18t-27.5 3.5t-34 -19.5q-7 -6 -17.5 -9t-20 -2.5t-16.5 3.5t-8 8q-11 42 11 70t59 39q31 10 54 0.5
t40 -28.5q26 -29 57 -25t48 34q11 20 29.5 27.5t35.5 -9.5z" />
    <glyph glyph-name="ograve" unicode="&#xf2;" horiz-adv-x="451" 
d="M423 385q-2 -66 -17 -131t-40.5 -117t-60 -84.5t-75.5 -34.5q-44 -2 -76 17t-54.5 51t-36 74t-20.5 86.5t-9 88.5t-1 79q1 40 14 82t34 77.5t47.5 61.5t54.5 33q55 15 100 -5t77 -61.5t48.5 -98.5t14.5 -118zM321 385q0 33 -11 66t-29 57.5t-41 37.5t-46 7
q-19 -6 -33 -24.5t-23 -42.5t-13.5 -49t-5.5 -43q-2 -28 2 -61.5t12.5 -65.5t20.5 -61t26.5 -49t31.5 -28t34 1q32 17 48 41t22 56.5t5.5 72t-0.5 85.5zM179 810q3 -3 12 -10.5t20.5 -16t22.5 -17.5t17 -15q21 -22 16.5 -34.5t-21.5 -15.5t-40 3t-38 21q-1 2 -8.5 7
t-16 10.5t-17 10.5t-13.5 8q-11 7 -25 17t-24 21t-10.5 23t15.5 22q14 9 31 7t32.5 -9t28.5 -16.5t18 -15.5z" />
    <glyph glyph-name="oacute" unicode="&#xf3;" horiz-adv-x="451" 
d="M423 385q-2 -66 -17 -131t-40.5 -117t-60 -84.5t-75.5 -34.5q-44 -2 -76 17t-54.5 51t-36 74t-20.5 86.5t-9 88.5t-1 79q1 40 14 82t34 77.5t47.5 61.5t54.5 33q55 15 100 -5t77 -61.5t48.5 -98.5t14.5 -118zM321 385q0 33 -11 66t-29 57.5t-41 37.5t-46 7
q-19 -6 -33 -24.5t-23 -42.5t-13.5 -49t-5.5 -43q-2 -28 2 -61.5t12.5 -65.5t20.5 -61t26.5 -49t31.5 -28t34 1q32 17 48 41t22 56.5t5.5 72t-0.5 85.5zM297 772q-4 -2 -15 -9t-24 -15.5t-26 -16.5t-22 -12q-31 -16 -49 -12.5t-22.5 16t4 29.5t30.5 28q3 1 10 6t15 11.5
t15.5 13t11.5 9.5q10 8 24.5 19t31 18t33 7.5t31.5 -11.5q13 -10 10 -22.5t-13 -24.5t-23 -21t-22 -13z" />
    <glyph glyph-name="ocircumflex" unicode="&#xf4;" horiz-adv-x="451" 
d="M423 385q-2 -66 -17 -131t-40.5 -117t-60 -84.5t-75.5 -34.5q-44 -2 -76 17t-54.5 51t-36 74t-20.5 86.5t-9 88.5t-1 79q1 40 14 82t34 77.5t47.5 61.5t54.5 33q55 15 100 -5t77 -61.5t48.5 -98.5t14.5 -118zM321 385q0 33 -11 66t-29 57.5t-41 37.5t-46 7
q-19 -6 -33 -24.5t-23 -42.5t-13.5 -49t-5.5 -43q-2 -28 2 -61.5t12.5 -65.5t20.5 -61t26.5 -49t31.5 -28t34 1q32 17 48 41t22 56.5t5.5 72t-0.5 85.5zM348 723q-5 -10 -20 -15.5t-23 -2.5q-14 5 -24 14t-21 17q-12 10 -23.5 17.5t-21.5 11.5q-10 -7 -16 -12t-10.5 -10
t-9 -11t-12.5 -15q-10 -12 -24 -17t-27 -3.5t-21 9t-6 20.5q2 14 2.5 21.5t10.5 20.5q16 21 30.5 33.5t31.5 32.5q23 27 51 25t44 -23q10 -12 28 -24.5t34 -26t25.5 -29t1.5 -33.5z" />
    <glyph glyph-name="otilde" unicode="&#xf5;" horiz-adv-x="451" 
d="M423 385q-2 -66 -17 -131t-40.5 -117t-60 -84.5t-75.5 -34.5q-44 -2 -76 17t-54.5 51t-36 74t-20.5 86.5t-9 88.5t-1 79q1 40 14 82t34 77.5t47.5 61.5t54.5 33q55 15 100 -5t77 -61.5t48.5 -98.5t14.5 -118zM321 385q0 33 -11 66t-29 57.5t-41 37.5t-46 7
q-19 -6 -33 -24.5t-23 -42.5t-13.5 -49t-5.5 -43q-2 -28 2 -61.5t12.5 -65.5t20.5 -61t26.5 -49t31.5 -28t34 1q32 17 48 41t22 56.5t5.5 72t-0.5 85.5zM390 846q18 -16 16.5 -35.5t-13.5 -38t-30.5 -33.5t-34.5 -22q-5 -2 -16.5 -4.5t-24.5 -4t-25 -1t-18 4.5
q-21 12 -36 24t-28.5 18t-27.5 3.5t-34 -19.5q-7 -6 -17.5 -9t-20 -2.5t-16.5 3.5t-8 8q-11 42 11 70t59 39q31 10 54 0.5t40 -28.5q26 -29 57 -25t48 34q11 20 29.5 27.5t35.5 -9.5z" />
    <glyph glyph-name="odieresis" unicode="&#xf6;" horiz-adv-x="451" 
d="M423 385q2 61 -14.5 118t-48.5 98.5t-77 61.5t-100 5q-28 -7 -54.5 -33t-47.5 -61.5t-34 -77.5t-14 -82q-1 -35 1 -79t9 -88.5t20.5 -86.5t36 -74t54.5 -51t76 -17q41 2 75.5 34.5t60 84.5t40.5 117t17 131zM321 385q0 -46 0.5 -85.5t-5.5 -72t-22 -56.5t-48 -41
q-17 -9 -34 -1t-31.5 28t-26.5 49t-20.5 61t-12.5 65.5t-2 61.5q1 18 5.5 43t13.5 49t23 42.5t33 24.5q23 6 46 -7t41 -37.5t29 -57.5t11 -66zM186 738q-12 -20 -35 -24t-49 15q-12 9 -17 19.5t-5 21.5t3.5 21.5t9.5 19.5q12 18 30 23.5t45 -12.5q26 -18 27.5 -42.5
t-9.5 -41.5zM366 732q-12 -19 -34.5 -23.5t-48.5 14.5q-12 9 -17.5 19.5t-5.5 21.5t3.5 21.5t9.5 19.5q12 18 30 24t45 -13q26 -17 27.5 -42t-9.5 -42z" />
    <glyph glyph-name="divide" unicode="&#xf7;" horiz-adv-x="422" 
d="M269 507q-14 -19 -39 -23t-54 14q-13 9 -19 19t-6 21t4.5 21t10.5 19q13 17 32.5 23t50.5 -12q14 -9 21 -19.5t8.5 -22t-1 -22t-8.5 -18.5zM280 151q-14 -19 -39 -23.5t-54 14.5q-13 9 -19 19t-6 21t4.5 21t10.5 19q13 17 33 22.5t50 -12.5q29 -17 30.5 -40.5
t-10.5 -40.5zM382 332q5 13 1 25.5t-13 23.5t-22 18.5t-26 10.5q-20 4 -43 4.5t-47.5 0t-50 -1t-49.5 0.5q-9 0 -19 3t-19.5 5.5t-17.5 2.5t-14 -5q-15 -15 -17 -31.5t4.5 -31t18.5 -25.5t26 -15q20 -5 46 -5.5t55.5 1t60 5t58.5 5.5q11 1 22 0t20.5 -1t16 2t9.5 8z" />
    <glyph glyph-name="oslash" unicode="&#xf8;" horiz-adv-x="451" 
d="M135 292q18 61 39 120.5t44 119.5q8 19 12.5 37.5t8.5 38.5q-32 19 -54.5 2.5t-37 -48.5t-21 -68t-7.5 -56q-2 -37 3 -74t13 -72zM315 484q-13 -42 -26.5 -82.5l-27.5 -82.5q-14 -44 -25 -88t-22 -89q8 -4 16 -3t16 5q35 17 51 51.5t21.5 76t4 83.5t-1.5 73q0 28 -6 56z
M362 665q34 -51 48.5 -114t12.5 -123q-1 -29 -6.5 -74.5t-17.5 -95.5t-30.5 -98.5t-45.5 -83.5t-63 -50t-83 2q-18 -34 -36.5 -39.5t-32.5 6.5t-21.5 36.5t-3.5 50.5q2 8 3 16t3 16q-18 35 -29.5 78.5t-18 90t-8.5 92.5t0 85q1 32 11.5 76.5t29.5 86.5t46.5 75.5t62.5 43.5
q44 14 87 0q3 9 7 18.5t9 17.5q11 16 24.5 16.5t27.5 -10.5q14 -10 20 -24.5t8 -30.5t0.5 -32.5t-4.5 -31.5z" />
    <glyph glyph-name="ugrave" unicode="&#xf9;" horiz-adv-x="439" 
d="M391 538q4 -29 7 -68.5t4 -83t0.5 -88.5t-2.5 -86t-5.5 -74.5t-8.5 -54.5q-4 -18 -13.5 -34.5t-21.5 -23.5t-25 -1.5t-24 30.5q-19 -21 -39.5 -35t-42 -19t-45 0.5t-50.5 24.5q-25 18 -39 57t-22 84t-11 87.5t-5 67.5q-3 36 -4 77t0 83t4 82.5t6 73.5q2 18 17.5 30.5
t33 17t31.5 0t12 -19.5q-6 -45 -9 -98t-3.5 -109t3 -114t10.5 -112q2 -14 4.5 -32t7 -35t13 -30t21.5 -16q19 -4 35.5 0.5t29 14t20.5 21.5t10 23q8 36 11.5 80t4 92t-2.5 97.5t-9 96.5q-1 12 -1.5 25t3.5 26.5t13.5 26t26.5 22.5q24 14 35 5t14.5 -28t3 -42.5t2.5 -40.5z
M197 807q3 -3 12.5 -10.5t21 -16.5t22.5 -18t17 -15q21 -21 16.5 -33.5t-21.5 -15.5t-40 2.5t-38 20.5q-2 2 -9 7t-16 10.5t-17 10.5t-13 8q-11 7 -25.5 17t-24 21t-10 23t15.5 22q14 9 30.5 7t32.5 -9t28.5 -16t17.5 -15z" />
    <glyph glyph-name="uacute" unicode="&#xfa;" horiz-adv-x="439" 
d="M391 538q4 -29 7 -68.5t4 -83t0.5 -88.5t-2.5 -86t-5.5 -74.5t-8.5 -54.5q-4 -18 -13.5 -34.5t-21.5 -23.5t-25 -1.5t-24 30.5q-19 -21 -39.5 -35t-42 -19t-45 0.5t-50.5 24.5q-25 18 -39 57t-22 84t-11 87.5t-5 67.5q-3 36 -4 77t0 83t4 82.5t6 73.5q2 18 17.5 30.5
t33 17t31.5 0t12 -19.5q-6 -45 -9 -98t-3.5 -109t3 -114t10.5 -112q2 -14 4.5 -32t7 -35t13 -30t21.5 -16q19 -4 35.5 0.5t29 14t20.5 21.5t10 23q8 36 11.5 80t4 92t-2.5 97.5t-9 96.5q-1 12 -1.5 25t3.5 26.5t13.5 26t26.5 22.5q24 14 35 5t14.5 -28t3 -42.5t2.5 -40.5z
M335 774q-4 -2 -15 -9t-24 -15l-26 -16t-22 -13q-31 -15 -49 -12t-22.5 15.5t4 29.5t30.5 28q2 2 9 7t15 11.5l16 13t12 9.5q10 8 24.5 18.5t31 17.5t33 7.5t31.5 -11.5q13 -10 10 -22.5t-13 -24.5t-23 -21t-22 -13z" />
    <glyph glyph-name="ucircumflex" unicode="&#xfb;" horiz-adv-x="439" 
d="M391 538q4 -29 7 -68.5t4 -83t0.5 -88.5t-2.5 -86t-5.5 -74.5t-8.5 -54.5q-4 -18 -13.5 -34.5t-21.5 -23.5t-25 -1.5t-24 30.5q-19 -21 -39.5 -35t-42 -19t-45 0.5t-50.5 24.5q-25 18 -39 57t-22 84t-11 87.5t-5 67.5q-3 36 -4 77t0 83t4 82.5t6 73.5q2 18 17.5 30.5
t33 17t31.5 0t12 -19.5q-6 -45 -9 -98t-3.5 -109t3 -114t10.5 -112q2 -14 4.5 -32t7 -35t13 -30t21.5 -16q19 -4 35.5 0.5t29 14t20.5 21.5t10 23q8 36 11.5 80t4 92t-2.5 97.5t-9 96.5q-1 12 -1.5 25t3.5 26.5t13.5 26t26.5 22.5q24 14 35 5t14.5 -28t3 -42.5t2.5 -40.5z
M351 732q-2 -5 -7.5 -9t-12 -6.5t-13 -3t-10.5 0.5q-14 5 -24 14t-21 17q-12 9 -23.5 16.5t-20.5 11.5q-10 -7 -16.5 -11.5t-11 -9.5t-9 -11t-12.5 -15q-10 -12 -24 -17t-27 -3.5t-21 8.5t-6 20q2 14 2.5 22t10.5 20q16 22 30.5 34.5t31.5 32.5q23 27 51 24.5t45 -22.5
q9 -12 27 -24.5t34 -26t25.5 -29t1.5 -33.5z" />
    <glyph glyph-name="udieresis" unicode="&#xfc;" horiz-adv-x="439" 
d="M391 538q-3 17 -2.5 40.5t-3 42.5t-14.5 28t-35 -5q-17 -10 -26.5 -22.5t-13.5 -26t-3.5 -26.5t1.5 -25q6 -47 9 -96.5t2.5 -97.5t-4 -92t-11.5 -80q-2 -11 -10 -23t-20.5 -21.5t-29 -14t-35.5 -0.5q-13 3 -21.5 16t-13 30t-7 35t-4.5 32q-7 54 -10.5 112t-3 114t3.5 109
t9 98q2 15 -12 19.5t-31.5 0t-33 -17t-17.5 -30.5q-3 -33 -6 -73.5t-4 -82.5t0 -83t4 -77q2 -25 5 -67.5t11 -87.5t22 -84t39 -57q27 -19 50.5 -24.5t45 -0.5t42 19t39.5 35q11 -25 24 -30.5t25 1.5t21.5 23.5t13.5 34.5q5 21 8.5 54.5t5.5 74.5t2.5 86t-0.5 88.5t-4 83
t-7 68.5zM179 752q-12 -20 -34.5 -24t-48.5 15q-25 18 -23 41.5t14 40.5q11 18 29 24t45 -13q13 -9 19.5 -20t8 -22t-1 -22t-8.5 -20zM359 747q-12 -20 -34.5 -24.5t-48.5 14.5q-12 9 -17 19.5t-5 22t3.5 22t9.5 19.5q11 18 29 23.5t45 -13.5q13 -9 19.5 -19.5t8 -22t-1 -22
t-8.5 -19.5z" />
    <glyph glyph-name="yacute" unicode="&#xfd;" 
d="M378 651q-7 -44 -20 -87t-28 -87t-30.5 -91t-27.5 -98q-5 -50 -7.5 -100.5t-0.5 -102.5q1 -10 4.5 -26t3 -31.5t-10 -27.5t-34.5 -13t-39 6.5t-20.5 20.5t-7.5 30.5t1 35t4.5 33.5t2.5 28q0 19 -0.5 31.5t-0.5 25v27.5v38q-7 21 -18 48.5t-21 47.5q-17 33 -30.5 62
t-24.5 57t-21.5 56.5t-21.5 60.5q-3 9 -1 28.5t9.5 37t20.5 27.5t32 1q12 -6 19.5 -22t13 -37t11.5 -43.5t15 -41.5t16.5 -34t14 -29l13 -28t14.5 -32q14 26 24 57.5t20 64.5t20.5 65t25.5 59q5 8 19.5 14t29 6t24.5 -8t7 -29zM322 771q-4 -2 -15 -9t-24 -15.5t-25.5 -16.5
t-21.5 -12q-31 -16 -49.5 -12.5t-23 16t4 29.5t30.5 28q3 1 10 6.5t15 12t15.5 12.5t11.5 9q10 8 24.5 19t31 18t33 7.5t31.5 -11.5q13 -10 10 -22.5t-13 -24.5t-23 -21t-22 -13z" />
    <glyph glyph-name="ydieresis" unicode="&#xff;" 
d="M378 651q3 21 -7 29t-24.5 8t-29 -6t-19.5 -14q-15 -27 -25.5 -59t-20.5 -65t-20 -64.5t-24 -57.5q-8 18 -14.5 32l-13 28t-14 29t-16.5 34t-15 41.5t-11.5 43.5t-13 37t-19.5 22q-19 9 -32 -1t-20.5 -27.5t-9.5 -37t1 -28.5q11 -32 21.5 -60.5t21.5 -56.5t24.5 -57
t30.5 -62q10 -20 21 -47.5t18 -48.5v-38v-27.5t0.5 -25t0.5 -31.5q0 -12 -2.5 -28t-4.5 -33.5t-1 -35t7.5 -30.5t20.5 -20.5t39 -6.5t34.5 13t10 27.5t-3 31.5t-4.5 26q-2 52 0.5 102.5t7.5 100.5q12 51 27.5 98t30.5 91t28 87t20 87zM165 758q-12 -20 -35 -24.5t-49 14.5
q-24 18 -22 41.5t13 41.5q12 17 29.5 23t45.5 -13q13 -9 19.5 -20t8 -22t-1.5 -22t-8 -19zM345 752q-12 -20 -35 -24.5t-49 15.5q-24 17 -22 40.5t13 41.5q12 18 30 23.5t45 -12.5q26 -18 27.5 -42.5t-9.5 -41.5z" />
    <glyph glyph-name="OE" unicode="&#x152;" horiz-adv-x="616" 
d="M285 420q-1 20 -7 57.5t-18.5 75t-31.5 65t-48 27.5q-13 0 -23.5 -16.5t-18 -42t-13 -56.5t-9 -60t-5 -52t-1.5 -34t1.5 -34.5t5.5 -51.5t11 -57t17.5 -52t25 -35t34.5 -7q23 6 38.5 24t24.5 42t13.5 53t6 57t0.5 53.5t-3 43.5zM305 86q-20 -29 -48.5 -47t-65.5 -14
t-64.5 28.5t-46.5 61t-31 81t-18 89.5t-7.5 85.5t-0.5 68.5q2 33 6.5 71t13 77t20 75.5t27.5 65.5q6 11 19.5 20t29.5 15t32 9.5t28 3.5q39 0 72 -25q4 2 18.5 3t34.5 1h43.5t44.5 -1t37.5 -1.5t22.5 -1.5q11 -1 25.5 0.5t24.5 -1.5q24 -7 35 -22t9 -30t-18 -26.5t-47 -11.5
q-32 0 -63.5 1.5t-63.5 -2.5q5 -43 12 -85t6 -85q14 -3 28.5 -4.5l29 -3t29 -4t27.5 -7.5q16 -6 26.5 -19t11.5 -26t-9 -23t-35 -10q-29 0 -56 -5.5t-56 -10.5q2 -63 5.5 -125.5t-7.5 -125.5q30 -2 60.5 0t59.5 4q15 1 30.5 5t29.5 2q19 -3 26.5 -17t5.5 -31t-13.5 -32
t-30.5 -20q-42 -10 -87.5 -15.5t-88.5 -7.5q-25 -1 -38.5 2t-20.5 12t-9.5 23.5t-4.5 35.5z" />
    <glyph glyph-name="oe" unicode="&#x153;" horiz-adv-x="654" 
d="M321 428q0 22 -8.5 57.5t-25 67.5t-40 51.5t-53.5 9.5q-20 -7 -34 -28.5t-23 -48t-13 -54t-5 -45.5q-1 -50 8 -105q2 -10 6.5 -30.5t11.5 -44.5t17.5 -48.5t23 -42t28 -25t32.5 1.5q35 19 51.5 53t21.5 74t3.5 81.5t-1.5 75.5zM317 70q-17 -19 -39 -33.5t-48 -16.5
q-46 -1 -79.5 22t-55.5 61t-35 86.5t-19.5 97.5t-7.5 95t0 78t11.5 76t30 86.5t47 76t61.5 43.5q40 12 76.5 3t67.5 -37q5 25 19.5 36t40.5 2q21 -7 37 -8.5t31 -0.5t30 2.5t34 -1.5q27 -4 44.5 -17t20.5 -29t-10 -30.5t-45 -21.5q-25 -5 -50 -2.5t-49 -6.5q-2 -29 -3 -58.5
t-2 -58.5q17 -4 35 -4t35.5 1t35 1t34.5 -4q23 -5 33 -19.5t8.5 -30t-15 -28.5t-38.5 -16q-13 -1 -29.5 -1h-33.5t-32.5 -2t-27.5 -8q-2 -64 -2 -126.5t-8 -125.5q26 -4 54 0.5t54 8.5q11 2 21 6.5t21 5.5q30 1 44.5 -12t12 -31.5t-21 -38t-53.5 -30.5q-40 -13 -83 -20.5
t-85 -11.5q-21 -2 -40 10t-27 32z" />
    <glyph glyph-name="Ydieresis" unicode="&#x178;" 
d="M378 651q3 21 -7 29t-24.5 8t-29 -6t-19.5 -14q-15 -27 -25.5 -59t-20.5 -65t-20 -64.5t-24 -57.5q-8 18 -14.5 32l-13 28t-14 29t-16.5 34t-15 41.5t-11.5 43.5t-13 37t-19.5 22q-19 9 -32 -1t-20.5 -27.5t-9.5 -37t1 -28.5q11 -32 21.5 -60.5t21.5 -56.5t24.5 -57
t30.5 -62q10 -20 21 -47.5t18 -48.5v-38v-27.5t0.5 -25t0.5 -31.5q0 -12 -2.5 -28t-4.5 -33.5t-1 -35t7.5 -30.5t20.5 -20.5t39 -6.5t34.5 13t10 27.5t-3 31.5t-4.5 26q-2 52 0.5 102.5t7.5 100.5q12 51 27.5 98t30.5 91t28 87t20 87zM156 758q-12 -20 -35 -24t-49 15
q-12 9 -17 19.5t-5 21.5t3.5 21.5t9.5 19.5q12 18 30 23.5t45 -12.5q26 -18 27.5 -42.5t-9.5 -41.5zM336 752q-12 -19 -34.5 -23.5t-48.5 14.5q-12 9 -17.5 19.5t-5.5 21.5t3.5 21.5t9.5 19.5q12 18 30 24t45 -13q26 -17 27.5 -42t-9.5 -42z" />
    <glyph glyph-name="florin" unicode="&#x192;" horiz-adv-x="544" 
d="M434 344q-3 -6 -9.5 -8t-16 -2t-20 1t-21.5 0q-13 -1 -25.5 -2t-26.5 -3q3 -48 3.5 -98t-4.5 -104q-2 -19 -9.5 -43.5t-20 -46t-30 -37.5t-40.5 -17q-25 -2 -52 11.5t-50 33t-39 41t-21 35.5q-5 13 -8.5 27t-5.5 30q-2 21 8.5 33t25 15t28 -2t16.5 -17q11 -39 28 -67
t55 -48q26 35 29 76.5t0 85.5q-2 23 -3.5 44t-3.5 41q-45 -2 -75 6q-13 4 -25.5 15t-18.5 25.5t-4 31t17 31.5q5 5 13 5t17.5 -2.5t19.5 -5.5t19 -3q7 0 13.5 -0.5t13.5 -0.5q-2 17 -2.5 33.5t-2.5 33.5q-1 17 -1 42.5t3.5 54t11 58t21.5 53.5t34.5 40t50.5 19q29 3 52 -2
t41 -16t32 -26.5t24 -33.5q9 -15 14 -25t8 -19.5t6 -20.5t7 -28q7 -27 -4.5 -41.5t-28.5 -20t-33 -2t-19 12.5q-7 25 -13.5 45.5t-14.5 37.5t-19.5 30.5t-29.5 23.5q-32 -29 -44.5 -62.5t-9.5 -69.5q3 -27 6 -56t6 -59q19 0 36 -1t32 -4q13 -3 26 -10.5t22 -18.5t13 -23.5
t-1 -25.5z" />
    <glyph glyph-name="circumflex" unicode="&#x2c6;" horiz-adv-x="374" 
d="M324 646q-4 -10 -19.5 -15.5t-23.5 -2.5q-14 5 -24 14t-21 17q-12 10 -23.5 17.5t-20.5 11.5q-10 -7 -16.5 -12t-11 -10t-9 -11t-12.5 -15q-10 -12 -24 -17t-27 -3.5t-21 9t-6 19.5q2 14 2.5 22t10.5 21q17 21 31 33.5t31 32.5q23 27 51 25t45 -23q9 -12 27 -24.5t34 -26
t25.5 -29t1.5 -33.5z" />
    <glyph glyph-name="caron" unicode="&#x2c7;" horiz-adv-x="394" 
d="M366 24q-3 -6 -9.5 -8t-16 -2t-20 1t-21.5 0q-28 -2 -59 -5.5t-60 -5t-55.5 -1t-46.5 5.5q-14 4 -26 15t-18 25.5t-4 31t17 31.5q5 5 13 5t17.5 -2.5t19.5 -5.5t19 -3q25 -1 50.5 -0.5t50 1t47.5 0t42 -4.5q13 -3 26 -10.5t22 -18.5t13 -24t-1 -25zM331 306
q-9 -25 -29 -45t-43 -34t-45.5 -22t-36.5 -10q-32 -6 -63.5 6.5t-48.5 50.5q-18 39 -19.5 90.5t6.5 98.5q9 49 31 78.5t50.5 41t60 4.5t59.5 -32q18 -16 36.5 -41.5t31.5 -56t17 -64t-7 -65.5zM248 350q4 19 -5 42.5t-23.5 43.5t-30 32t-24.5 9q-9 -4 -21 -33t-13 -70
q0 -23 3.5 -39t8.5 -25.5t10.5 -14t9.5 -4.5q11 0 25 4.5t26.5 12t21.5 18.5t12 24z" />
    <glyph glyph-name="ring" unicode="&#x2da;" horiz-adv-x="386" 
d="M342 652q-8 -35 -46 -52.5t-94 -25.5q-16 -2 -37 -1t-41 4.5t-37 10t-26 15.5q-20 19 -21.5 48.5t7.5 52.5q10 23 34.5 38.5t56.5 22.5t67 5t65 -14q19 -7 33.5 -19.5t24 -26.5t13.5 -29t1 -29zM252 660q4 9 -3 17.5t-19.5 14.5t-26.5 9t-23 1q-5 -1 -13 -2t-16 -4
t-14 -9t-6 -16q0 -11 5.5 -18t13.5 -11.5t16 -6t12 -1.5q25 1 46.5 7t27.5 19z" />
    <glyph glyph-name="ogonek" unicode="&#x2db;" 
d="M152 119q4 -19 10.5 -39.5t7.5 -39.5t-8 -33t-36 -19q-12 -2 -20.5 4t-14.5 16.5t-10.5 23t-8.5 22.5q-8 23 -13.5 55.5t-8.5 68t-4.5 70.5t-1.5 62q-1 58 -4 108.5t-4.5 99.5t2 99.5t15.5 108.5q2 8 17.5 16.5t33 11.5t30 -3t7.5 -27q-10 -47 -11 -101.5t5 -112.5
q3 -27 4 -49.5t8.5 -38.5t25 -25.5t52.5 -10.5q32 -2 52 19.5t23 57.5q2 18 2 40t-0.5 46t-2 48t-4.5 45q-2 17 -2 34t5 31.5t17.5 25.5t34.5 16q15 3 22 0.5t10 -9.5t4 -16.5t4 -20.5q5 -22 5.5 -50.5t-0.5 -57t-2.5 -54.5t-0.5 -43q1 -12 1.5 -37.5t1 -54t0.5 -55t1 -40.5
q1 -19 -9.5 -30.5t-25 -13.5t-30 7.5t-23.5 32.5q-49 -19 -94.5 -27t-77.5 -3q2 -40 5 -79.5t11 -78.5z" />
    <glyph glyph-name="tilde" unicode="&#x2dc;" horiz-adv-x="460" 
d="M411 775q19 -17 17.5 -38t-14.5 -40t-33 -34.5t-37 -22.5q-6 -2 -18.5 -4.5t-26.5 -4t-27 -1.5t-20 4q-22 13 -38.5 25.5t-31 18.5t-30 3.5t-36.5 -19.5q-8 -7 -19 -9.5t-21.5 -2.5t-18 3.5t-9.5 8.5q-6 21 -2 39.5t14.5 33t27.5 25t36 16.5q34 10 58.5 0t43.5 -30
q14 -15 30.5 -21t32 -4.5t29 10.5t22.5 25q12 20 32 28t39 -9z" />
    <glyph glyph-name="Delta" unicode="&#x394;" horiz-adv-x="382" 
d="M370 48q8 -20 2 -30t-18 -14t-27 -4t-24 -1q-28 -2 -59 -4t-60 -2t-55.5 2.5t-46.5 7.5q-7 2 -16.5 6.5t-17.5 10.5t-13 13.5t-4 16.5q6 48 12.5 107.5t14 123t15.5 127.5t16 121q4 24 9 60.5t14 70t23 58.5t36 26q21 1 37.5 -19.5t28.5 -49t20 -59t12 -50.5
q6 -26 12 -58t12 -66.5t13 -71t15 -72.5q8 -33 19 -68.5t20.5 -68.5t13.5 -62t-4 -51zM277 100q-16 52 -28 104.5t-22.5 104.5t-21.5 103.5t-26 101.5q-14 -46 -22 -98t-14 -105t-11 -106.5t-13 -104.5h1q40 -3 81 -0.5t76 0.5z" />
    <glyph glyph-name="Delta" unicode="&#x2206;" horiz-adv-x="382" 
d="M370 48q8 -20 2 -30t-18 -14t-27 -4t-24 -1q-28 -2 -59 -4t-60 -2t-55.5 2.5t-46.5 7.5q-7 2 -16.5 6.5t-17.5 10.5t-13 13.5t-4 16.5q6 48 12.5 107.5t14 123t15.5 127.5t16 121q4 24 9 60.5t14 70t23 58.5t36 26q21 1 37.5 -19.5t28.5 -49t20 -59t12 -50.5
q6 -26 12 -58t12 -66.5t13 -71t15 -72.5q8 -33 19 -68.5t20.5 -68.5t13.5 -62t-4 -51zM277 100q-16 52 -28 104.5t-22.5 104.5t-21.5 103.5t-26 101.5q-14 -46 -22 -98t-14 -105t-11 -106.5t-13 -104.5h1q40 -3 81 -0.5t76 0.5z" />
    <glyph glyph-name="Omega" unicode="&#x3a9;" horiz-adv-x="402" 
d="M174 110q4 -8 9.5 -16t10 -17.5t6.5 -20t-2 -24.5q-3 -12 -15.5 -20.5t-28 -13.5t-31.5 -6t-28 2q-13 4 -25.5 15t-18.5 25.5t-4 31t17 31.5q5 5 10.5 5.5t13.5 -1.5q-21 35 -34.5 80t-21 91.5t-9.5 90t0 76.5q5 80 21.5 154t45.5 135q5 11 18 19.5t28.5 14.5t32.5 10
t30 4q42 1 73.5 -26.5t53.5 -68t34.5 -86t15.5 -80.5q7 -69 6 -134t-7.5 -120t-16.5 -97.5t-22 -67.5q13 -3 24.5 -10t19 -18.5t9 -26t-5.5 -32.5q-2 -6 -9 -8t-16.5 -2t-20 1t-21.5 0q-24 -2 -43.5 3t-28.5 25q-7 17 -7.5 31t3 26t9 22t9.5 17q15 31 22 70t8.5 79.5t0 79
t-3.5 67.5q-3 48 -12.5 89t-23.5 71.5t-31.5 47.5t-37.5 17q-14 0 -24.5 -17t-18 -43.5t-13 -58.5t-8.5 -61t-4.5 -51t-1.5 -30q0 -28 5 -64.5t13 -74t19.5 -73t26.5 -62.5z" />
    <glyph glyph-name="Omega" unicode="&#x2126;" horiz-adv-x="402" 
d="M174 110q4 -8 9.5 -16t10 -17.5t6.5 -20t-2 -24.5q-3 -12 -15.5 -20.5t-28 -13.5t-31.5 -6t-28 2q-13 4 -25.5 15t-18.5 25.5t-4 31t17 31.5q5 5 10.5 5.5t13.5 -1.5q-21 35 -34.5 80t-21 91.5t-9.5 90t0 76.5q5 80 21.5 154t45.5 135q5 11 18 19.5t28.5 14.5t32.5 10
t30 4q42 1 73.5 -26.5t53.5 -68t34.5 -86t15.5 -80.5q7 -69 6 -134t-7.5 -120t-16.5 -97.5t-22 -67.5q13 -3 24.5 -10t19 -18.5t9 -26t-5.5 -32.5q-2 -6 -9 -8t-16.5 -2t-20 1t-21.5 0q-24 -2 -43.5 3t-28.5 25q-7 17 -7.5 31t3 26t9 22t9.5 17q15 31 22 70t8.5 79.5t0 79
t-3.5 67.5q-3 48 -12.5 89t-23.5 71.5t-31.5 47.5t-37.5 17q-14 0 -24.5 -17t-18 -43.5t-13 -58.5t-8.5 -61t-4.5 -51t-1.5 -30q0 -28 5 -64.5t13 -74t19.5 -73t26.5 -62.5z" />
    <glyph glyph-name="pi" unicode="&#x3c0;" horiz-adv-x="500" 
d="M401 156q4 -19 9.5 -39.5t5.5 -39.5t-9.5 -33t-36.5 -19q-12 -2 -20.5 4t-14.5 16.5t-10.5 23t-8.5 22.5q-9 23 -12.5 49t-4.5 54.5t-0.5 57.5t0.5 56q0 42 1.5 84.5t3 84t1.5 82t-4 77.5q-20 2 -37.5 3t-29.5 -1q-4 -48 -6.5 -106t-3 -122t1 -130.5t5.5 -131.5
q1 -16 3.5 -29.5t3.5 -25.5t-1 -21.5t-10 -17.5q-25 -25 -42 -33.5t-27.5 -5.5t-16 13.5t-8.5 21.5q-4 14 -4.5 35t0.5 44.5t2.5 45t-0.5 34.5q-5 53 -5 104t-0.5 103.5t-3 107.5t-11.5 114q-25 7 -41.5 7.5t-28 3t-19 10t-13.5 27.5q-7 25 1.5 36.5t28 15.5t46.5 3t56 -2
q38 -1 85.5 2t94 4.5t86.5 0t62 -11.5q10 -4 15 -18.5t5.5 -30t-3 -29.5t-10.5 -19q-12 -8 -31.5 -10t-42.5 -1q8 -56 5 -117t-7.5 -122.5t-6.5 -120.5t8 -110z" />
    <glyph glyph-name="endash" unicode="&#x2013;" horiz-adv-x="579" 
d="M552 324q-6 -27 -42.5 -36.5t-87.5 -6.5q-47 2 -96 8.5t-85 7.5q-13 0 -30.5 -1t-36 -2.5t-38 -2.5t-36.5 0q-42 1 -63.5 15t-3.5 49q8 16 24.5 25t38.5 13t48 4.5t52 -1.5q55 -4 111.5 -12t98.5 -12q20 -2 45.5 -0.5t47.5 -0.5q28 -2 43.5 -12.5t9.5 -34.5z" />
    <glyph glyph-name="emdash" unicode="&#x2014;" horiz-adv-x="750" 
d="M726 320q-7 -17 -21.5 -22.5t-30.5 -7.5t-32.5 -0.5t-31.5 2.5q-42 2 -85 8.5t-85 8.5q-49 2 -97.5 -1t-94.5 -6q-46 -2 -88.5 -1.5t-77.5 8.5q-12 3 -21.5 14t-12 24t5 24.5t29.5 13.5q110 13 206 16.5t197 -2.5q37 -2 78.5 -4t76.5 -10q16 -3 33.5 -9t31 -14t20 -18.5
t0.5 -23.5z" />
    <glyph glyph-name="quoteleft" unicode="&#x2018;" horiz-adv-x="260" 
d="M192 514q-22 -11 -47 -2t-43 23q-22 19 -34 45.5t-15.5 55t0.5 56t13.5 49t25 34t33.5 9.5q19 -3 27 -19.5t2 -41.5q-6 -21 -5 -40t5.5 -34t11.5 -25.5t14 -15.5q13 -8 22.5 -21t12.5 -26.5t-2 -26t-21 -20.5z" />
    <glyph glyph-name="quoteright" unicode="&#x2019;" horiz-adv-x="240" 
d="M146 531q-9 -11 -27 -21t-33 -12q-24 -3 -28.5 14t9.5 43q10 18 22 38t12 42q0 21 -3.5 30t-9.5 13t-14 7t-17 12q-15 14 -17.5 26.5t2 22.5t15 16.5t22.5 8.5q40 7 65 -3t38 -30.5t15.5 -48t-3.5 -56.5t-18.5 -56t-29.5 -46z" />
    <glyph glyph-name="quotesinglbase" unicode="&#x201a;" horiz-adv-x="260" 
d="M192 -16q-22 -11 -47 -2t-43 23q-22 19 -34 45.5t-15.5 55t0.5 56t13.5 49t25 34t33.5 9.5q19 -3 27 -19.5t2 -41.5q-6 -21 -5 -40t5.5 -34t11.5 -25.5t14 -15.5q13 -8 22.5 -21t12.5 -26.5t-2 -26t-21 -20.5z" />
    <glyph glyph-name="quotedblleft" unicode="&#x201c;" horiz-adv-x="396" 
d="M342 506q-21 -10 -41.5 0.5t-40.5 26.5q-18 16 -32 37.5t-20.5 47.5t-4.5 55t14 60q10 25 27 35t32.5 7t24.5 -18t2 -42q-5 -20 -4.5 -35.5t5.5 -29.5t12.5 -28t16.5 -30q5 -10 13.5 -21.5t13.5 -23t2 -22t-20 -19.5zM193 460q-18 -12 -35.5 -9t-34.5 16t-32 32t-27 40
q-15 27 -23.5 60t-8 64.5t10.5 57.5t31 38q11 6 23 5t21.5 -6.5t16.5 -14t7 -17.5q1 -22 -1 -43t-2.5 -41.5t2.5 -40.5t15 -40q5 -9 17 -22t21.5 -27.5t11.5 -28t-13 -23.5z" />
    <glyph glyph-name="quotedblright" unicode="&#x201d;" horiz-adv-x="398" 
d="M354 619q-4 -24 -16.5 -49t-29 -44.5t-35 -30t-33.5 -5.5q-14 5 -13 22t13 40q7 14 14 28.5t11.5 29t4.5 30t-8 30.5q-11 19 -18.5 33.5t-5.5 38.5q0 6 5.5 12.5t14 11t19 6.5t22.5 -2q23 -7 36 -23t18 -36.5t4.5 -44.5t-3.5 -47zM136 531q-9 -11 -27 -21t-33 -12
q-24 -3 -28.5 14t9.5 43q10 18 22 38t12 42q0 21 -3.5 30t-9.5 13t-14 7t-17 12q-15 14 -17.5 26.5t2 22.5t15 16.5t22.5 8.5q40 7 65 -3t38 -30.5t15.5 -48t-3.5 -56.5t-18.5 -56t-29.5 -46z" />
    <glyph glyph-name="quotedblbase" unicode="&#x201e;" horiz-adv-x="396" 
d="M342 26q-21 -10 -41.5 0.5t-40.5 26.5q-18 16 -32 37.5t-20.5 47.5t-4.5 55t14 60q10 25 27 35t32.5 7t24.5 -18t2 -42q-5 -20 -4.5 -35.5t5.5 -29.5t12.5 -28t16.5 -30q5 -10 13.5 -21.5t13.5 -23t2 -22t-20 -19.5zM193 -20q-18 -12 -35.5 -9t-34.5 16t-32 32t-27 40
q-15 27 -23.5 60t-8 64.5t10.5 57.5t31 38q11 6 23 5t21.5 -6.5t16.5 -14t7 -17.5q1 -22 -1 -43t-2.5 -41.5t2.5 -40.5t15 -40q5 -9 17 -22t21.5 -27.5t11.5 -28t-13 -23.5z" />
    <glyph glyph-name="dagger" unicode="&#x2020;" horiz-adv-x="401" 
d="M154 311q-14 0 -30 1t-30 5q-16 5 -28 17t-17.5 27t-2.5 30.5t16 28.5q5 5 14 5t19.5 -2.5t20 -5t16.5 -3.5q6 -1 11.5 -1h11.5q2 60 4.5 119t-2.5 119q-2 17 -4.5 32t-4.5 31q-2 12 10 21t28.5 11t33 -4t23.5 -24q11 -30 15.5 -69t4.5 -80.5t-3 -81.5t-5 -72
q17 0 33.5 -0.5t33.5 -4.5q11 -2 24 -9.5t23 -18.5t14.5 -24t-1.5 -26q-3 -6 -12 -8t-19.5 -2t-20.5 0.5t-16 0.5q-17 -1 -33 -2.5t-32 -3.5q-2 -34 -1 -68t8 -68q3 -17 9 -38t6 -40t-9.5 -33.5t-36.5 -19.5q-12 -2 -21 5t-15.5 17.5t-10.5 22.5l-7 21q-16 45 -16.5 96.5
t-0.5 98.5z" />
    <glyph glyph-name="daggerdbl" unicode="&#x2021;" horiz-adv-x="448" 
d="M174 223q-15 0 -30 1t-30 5q-16 5 -28 16.5t-17 26.5t-2 31t16 29q5 5 14 5t19 -2.5t20 -5.5t17 -3q5 -1 10.5 -1h10.5v43t1 43q-19 -1 -40 0t-39 6q-16 5 -28 16.5t-17 26.5t-2 31t16 28q5 5 14 5t19 -2t19.5 -5t16.5 -4q23 -1 45 0q2 52 -0.5 101t-10.5 100
q-2 12 10 20.5t28.5 11t33 -3.5t23.5 -24q8 -22 12 -47.5t6 -52.5t1.5 -54t-1.5 -50q11 -1 21.5 -2t21.5 -3t24 -9.5t23 -18t14.5 -23.5t-1.5 -27q-3 -6 -11.5 -8t-19 -2t-20.5 0.5t-16 0.5l-42 -3q-2 -23 -3.5 -46t-2.5 -46q18 0 37 -0.5t36 -4.5q12 -2 25 -9.5t22.5 -18.5
t14 -24t-1.5 -26q-3 -6 -11.5 -8t-19 -2t-20.5 0.5t-16 0.5q-17 -1 -32.5 -2.5t-32.5 -3.5q2 -24 6 -48q3 -18 9 -38.5t6 -39.5t-9.5 -33.5t-36.5 -19.5q-21 -4 -34.5 17.5t-21.5 51.5t-11.5 60.5t-3.5 43.5z" />
    <glyph glyph-name="bullet" unicode="&#x2022;" horiz-adv-x="290" 
d="M222 326q-17 -27 -50 -33t-70 20q-18 12 -25 27t-7 30.5t5.5 30t13.5 26.5t18.5 21t23.5 12t29.5 -1t35.5 -17q19 -12 28 -27t11.5 -31t-1.5 -31t-12 -27z" />
    <glyph glyph-name="ellipsis" unicode="&#x2026;" horiz-adv-x="812" 
d="M713 134q8 -12 7.5 -27t-6.5 -29.5t-16 -26.5t-22 -18t-30 -3t-32 13t-20.5 26t4.5 37q6 12 20.5 24.5t31.5 19.5t34 4.5t29 -20.5zM433 138q10 -7 16.5 -20t7 -27t-5.5 -27t-21 -20q-26 -12 -45.5 -11.5t-31.5 9.5t-17.5 24t-3.5 31q2 14 9.5 28t21 22.5t31.5 7.5
t39 -17zM145 132q31 -18 33.5 -41t-12 -39.5t-41 -21.5t-53.5 12t-30 40t9.5 40t38 22.5t55.5 -12.5z" />
    <glyph glyph-name="perthousand" unicode="&#x2030;" horiz-adv-x="1044" 
d="M322 479q-9 -25 -29 -44.5t-43 -33.5t-45.5 -22t-36.5 -11q-32 -5 -63.5 7.5t-48.5 50.5q-18 39 -19.5 90.5t6.5 98.5q9 49 31 78.5t50.5 41t60 4t59.5 -32.5q18 -16 36.5 -41.5t31.5 -56t17 -64t-7 -65.5zM239 524q4 19 -5.5 42.5t-23.5 43t-29.5 32t-24.5 9.5
q-9 -4 -21.5 -33t-12.5 -71q0 -23 3.5 -39t8.5 -25.5t10.5 -13.5t8.5 -4q12 0 25.5 4t26 12t22 19t12.5 24zM541 714q0 -16 -3.5 -39t-9.5 -50t-14.5 -56.5t-17.5 -59.5q-18 -61 -35.5 -113.5l-25.5 -76.5q-20 -60 -35 -126.5t-33 -124.5q-6 -19 -14 -36t-20 -31
q-14 -17 -31 -14.5t-28 16.5t-16.5 34.5t-0.5 44.5q9 48 24 108t34 121.5t39 119.5t38 101q12 29 18 60l12 62q7 34 15 66.5t22 57.5q10 17 25.5 16t27.5 -11t20.5 -28t8.5 -41zM1010 127q-4 -24 -24 -49t-49.5 -45t-64.5 -33.5t-68 -14.5t-61 12.5t-43 47.5
q-28 -24 -60.5 -37.5t-52.5 -17.5q-31 -5 -63 7.5t-49 50.5q-18 39 -19.5 90t6.5 99q9 48 31 78t50.5 41t60 4t59.5 -32q16 -14 31.5 -34.5t28.5 -46.5q25 42 59 71.5t67 39.5q26 7 49 -0.5t42 -25.5t34 -43.5t24 -53.5t12.5 -56t-0.5 -52zM923 133q6 15 2.5 36.5t-12 42
t-21 35.5t-24.5 17q-4 1 -11.5 -3.5t-15 -11t-14.5 -13.5t-10 -11q-10 -12 -23.5 -35.5t-20.5 -47t-3.5 -42.5t25.5 -24q8 -1 28 5t41.5 15t38.5 19.5t20 17.5zM658 145q4 20 -5 43.5t-23.5 43t-30 31.5t-24.5 9t-21 -32.5t-13 -70.5q0 -23 3.5 -39t8.5 -25.5t10.5 -14
t9.5 -4.5q12 0 25.5 4.5t26 12t21.5 18.5t12 24z" />
    <glyph glyph-name="guilsinglleft" unicode="&#x2039;" horiz-adv-x="370" 
d="M336 103q1 -9 -2 -16.5t-10 -17.5q-4 -7 -11.5 -8.5t-15 0t-14 5.5t-9.5 7q-40 54 -84.5 115t-81.5 122q-14 23 -35.5 42t-32.5 44q-4 8 1 21t13 27t17 26.5t13 19.5q15 23 29 48.5t28 51.5t27.5 50t26.5 43q8 11 21 14t26 -4q11 -6 18.5 -19t7.5 -31q0 -20 -10.5 -44.5
t-25.5 -49.5t-31.5 -49t-28.5 -43q-18 -29 -23 -45q4 -9 11.5 -21.5t18.5 -27.5q17 -23 39 -50t43 -55t38 -56t24 -52q4 -11 8 -23t5 -24z" />
    <glyph glyph-name="guilsinglright" unicode="&#x203a;" horiz-adv-x="343" 
d="M306 430q-5 -26 -15.5 -48t-21.5 -39q-27 -45 -54.5 -95.5t-45.5 -96.5q-6 -14 -14 -28t-20 -25q-13 -12 -28 -12.5t-26 10.5q-13 13 -13.5 34t7.5 46t21.5 52t28 52.5t28.5 47.5t22 37q9 16 17 32t14 33q-18 30 -41 56.5t-47.5 52.5t-49.5 51.5t-48 52.5q-14 15 -10 27
t24 15q14 2 34 -1.5t39 -11.5q23 -10 43 -27.5t38 -38.5t33.5 -42.5t30.5 -38.5q9 -10 20 -21t19 -22.5t13 -24.5t2 -27z" />
    <glyph glyph-name="fraction" unicode="&#x2044;" horiz-adv-x="414" 
d="M349 714q0 -16 -3.5 -39t-9.5 -50t-14.5 -56.5t-17.5 -59.5t-18.5 -59t-17.5 -54t-15 -45t-11 -32q-20 -60 -35 -126.5t-33 -124.5q-11 -39 -33 -67q-14 -17 -31 -14.5t-29 16.5q-11 14 -16 34.5t-1 44.5q9 48 24.5 108t34 121.5t39 119.5t38.5 101q12 29 18 60t11 62
q7 34 15.5 66.5t22.5 57.5q9 17 24.5 16t27.5 -11q13 -10 21.5 -28t8.5 -41z" />
    <glyph glyph-name="fraction" unicode="&#x2215;" horiz-adv-x="414" 
d="M349 714q0 -16 -3.5 -39t-9.5 -50t-14.5 -56.5t-17.5 -59.5t-18.5 -59t-17.5 -54t-15 -45t-11 -32q-20 -60 -35 -126.5t-33 -124.5q-11 -39 -33 -67q-14 -17 -31 -14.5t-29 16.5q-11 14 -16 34.5t-1 44.5q9 48 24.5 108t34 121.5t39 119.5t38.5 101q12 29 18 60t11 62
q7 34 15.5 66.5t22.5 57.5q9 17 24.5 16t27.5 -11q13 -10 21.5 -28t8.5 -41z" />
    <glyph glyph-name="Euro" unicode="&#x20ac;" horiz-adv-x="449" 
d="M341 441q-3 -6 -9.5 -8.5t-15.5 -3.5t-19.5 -1t-20.5 -2q-24 -4 -49.5 -8.5t-51.5 -9.5q-1 -17 -0.5 -33.5t2.5 -32.5v-4q32 3 63 6t56 1q12 -1 25 -7.5t22 -16.5t12.5 -22t-1.5 -25q-2 -6 -8.5 -8.5t-15.5 -3.5t-19.5 -1t-21.5 -2q-25 -5 -51.5 -9.5t-52.5 -9.5
q3 -23 8.5 -44t13 -37.5t18 -27.5t24.5 -14q11 -2 21.5 4.5t20 16t18.5 21t16 20.5q12 13 26 14.5t25 -5.5t17 -20t2 -30q-5 -19 -16.5 -38t-26 -35t-30 -27.5t-29.5 -15.5q-25 -7 -56 -4t-58 14q-15 6 -28.5 23.5t-24 44t-18.5 60.5t-13 72q-13 2 -20 3q-13 3 -24.5 12.5
t-17.5 23.5t-4 30t17 32q7 8 17.5 6.5t23.5 -3.5q0 15 -0.5 31.5t1.5 32.5h-13.5t-12.5 2q-13 3 -25 12.5t-17.5 23.5t-3.5 30.5t16 32.5q5 5 12.5 6t16 -0.5t18 -4t18.5 -2.5q7 46 19.5 87.5t29.5 75.5t38.5 58.5t47.5 34.5q27 11 54.5 7t51 -19t39 -40t18.5 -57
q2 -17 -8 -35.5t-24 -29.5t-30.5 -10t-28.5 22q-5 9 -8.5 22t-8 23.5t-11.5 15.5t-19 -1q-29 -14 -47 -54t-26 -93q27 3 52.5 5t47.5 0q12 -1 24.5 -7.5t21.5 -16.5t12.5 -22t-1.5 -25z" />
    <glyph glyph-name="glyph129" unicode="&#x2122;" horiz-adv-x="583" 
d="M528 433q3 -10 5 -20t-6 -19q-13 -14 -25 -14.5t-21 5.5t-15 15.5t-7 15.5q-5 28 -5 46.5t-1 38.5q-2 -10 -6 -23.5t-9.5 -26.5t-13 -23t-17.5 -14q-13 -5 -23.5 3.5t-18 22.5t-12.5 30t-8 25v-63q-1 -6 0.5 -12t1.5 -12q0 -7 -3 -13t-12 -10q-12 -6 -21.5 -4t-16.5 8
t-11 13.5t-5 12.5q-5 17 -3 33t4 33q2 28 4 53.5t3 52t1 54t-3 58.5q-1 12 6 22t17.5 15.5t22 5.5t18.5 -6q14 -12 22.5 -32.5t14.5 -44t10 -47t8 -40.5q10 26 13 53.5t14 53.5q6 14 12 31.5t22 25.5q15 7 25 6t16.5 -8t9.5 -17.5t3 -22.5q2 -17 1 -33t-2 -33
q0 -9 0.5 -37.5t2 -61t3.5 -60.5t5 -36zM256 695q-2 -16 -14.5 -25t-38.5 -4q-5 1 -9 2t-9 2q-3 -43 -3 -97.5t3 -108.5q1 -14 3 -28t-9 -25q-15 -15 -26 -19t-19 -2t-13 9t-8 16q-5 18 -2 36.5t1 37.5q-4 45 -2 89t-5 94q-9 1 -20 1t-21 2.5t-18 8t-11 17.5
q-4 15 -0.5 23.5t11.5 13t19 5.5t21 1q6 0 12 -0.5t11 -0.5q13 0 30.5 1t36 2t35 -0.5t28.5 -6.5q8 -4 13.5 -17.5t3.5 -26.5z" />
    <glyph glyph-name="partialdiff" unicode="&#x2202;" horiz-adv-x="419" 
d="M27 161q-4 37 2 76t33 73q15 18 38.5 33.5t54 24.5t67 8.5t77.5 -14.5q0 45 -7 91t-21.5 87t-36 73t-51.5 49q-4 3 -10 -3t-13.5 -15t-16.5 -19t-18.5 -14.5t-20 -2t-21.5 18.5q-16 24 -16 47.5t12 43t33.5 34t47.5 20t54 1.5t54 -22q29 -19 52 -62.5t39 -100.5
t24 -123.5t7 -132t-12.5 -126.5t-34.5 -107q-18 -35 -44.5 -61.5t-61 -38t-75.5 -4t-87 41.5q-15 11 -23.5 25.5t-13.5 31.5t-7 33.5t-4 33.5zM131 212q-5 -25 -3.5 -48t10.5 -40t24.5 -26t37.5 -6q18 2 32.5 17.5t26 39.5t20 53.5t13.5 59.5q-34 18 -65 21t-56 -16
q-14 -10 -24.5 -22.5t-15.5 -32.5z" />
    <glyph glyph-name="product" unicode="&#x220f;" horiz-adv-x="500" 
d="M401 156q4 -19 9.5 -39.5t5.5 -39.5t-9.5 -33t-36.5 -19q-12 -2 -20.5 4t-14.5 16.5t-10.5 23t-8.5 22.5q-9 23 -12.5 49t-4.5 54.5t-0.5 57.5t0.5 56q0 42 1.5 84.5t3 84t1.5 82t-4 77.5q-20 2 -37.5 3t-29.5 -1q-4 -48 -6.5 -106t-3 -122t1 -130.5t5.5 -131.5
q1 -16 3.5 -29.5t3.5 -25.5t-1 -21.5t-10 -17.5q-25 -25 -42 -33.5t-27.5 -5.5t-16 13.5t-8.5 21.5q-4 14 -4.5 35t0.5 44.5t2.5 45t-0.5 34.5q-5 53 -5 104t-0.5 103.5t-3 107.5t-11.5 114q-25 7 -41.5 7.5t-28 3t-19 10t-13.5 27.5q-7 25 1.5 36.5t28 15.5t46.5 3t56 -2
q38 -1 85.5 2t94 4.5t86.5 0t62 -11.5q10 -4 15 -18.5t5.5 -30t-3 -29.5t-10.5 -19q-12 -8 -31.5 -10t-42.5 -1q8 -56 5 -117t-7.5 -122.5t-6.5 -120.5t8 -110z" />
    <glyph glyph-name="summation" unicode="&#x2211;" horiz-adv-x="394" 
d="M145 645q23 -48 44.5 -94t45.5 -95q8 -14 23 -28.5t17 -31.5q1 -7 -3 -14t-9.5 -13t-11 -12.5t-8.5 -14.5q-18 -43 -37.5 -91t-32.5 -94q38 -2 71.5 1.5t70.5 11.5q7 1 16.5 1t19.5 -3t17.5 -9t10.5 -17q3 -12 0 -21.5t-9.5 -17t-15 -13t-17.5 -10.5q-29 -14 -64 -19.5
t-67 -10.5q-22 -3 -42.5 -15t-40.5 -21q-20 -10 -41 -10t-38 27q-10 17 -9 30.5t7 26t14.5 24.5t13.5 25q9 27 21 59t24.5 65.5t24.5 65t22 56.5q-29 60 -58 117t-60 117q-5 9 -11 18t-11 17q-26 42 -8 68t63 34q25 4 52 0.5t54 -9t53.5 -9t48.5 1.5q12 3 23 4t20 -1.5
t15.5 -9.5t10.5 -22q3 -9 5.5 -20.5t3 -22t-3 -19.5t-14.5 -13q-24 -9 -49 -8t-51 6t-51 10t-49 3z" />
    <glyph glyph-name="radical" unicode="&#x221a;" horiz-adv-x="464" 
d="M421 609q-12 -23 -31.5 -23.5t-38.5 9.5q-21 11 -32.5 16t-21 7.5t-20.5 3t-30 2.5q-7 -13 -7.5 -23t1 -19.5t4 -19.5t2.5 -23q23 -19 42.5 -26.5t39 -12t40 -8.5t45.5 -15q18 -8 22 -21.5t-1.5 -26t-19 -22t-31.5 -9.5q-7 0 -18.5 -0.5t-28 2t-38.5 9t-51 20.5
q-8 -40 -3 -82t12 -85.5t11 -88t-6 -89.5q-5 -23 -17.5 -35.5t-28.5 -20.5q-37 -17 -70 -11.5t-57 24t-37 46.5t-10 55q2 23 12.5 41t27.5 29t39.5 13.5t47.5 -5.5q-4 49 -6.5 97.5t-5 101.5t-6 113t-11.5 131q-1 8 -3.5 23t-5 31.5t-2.5 30t5 16.5q9 6 18.5 4.5t19 -7
t20 -11.5t20.5 -8q26 -4 45 -9.5t34.5 -12t30 -14t30.5 -15.5q15 -7 30.5 -14.5t27 -17.5t16 -22t-4.5 -28z" />
    <glyph glyph-name="infinity" unicode="&#x221e;" horiz-adv-x="628" 
d="M597 347q-4 -24 -24.5 -49t-49.5 -45t-64 -33.5t-68 -14.5t-61 12.5t-43 47.5q-28 -24 -60.5 -37.5t-52.5 -17.5q-32 -5 -63.5 7.5t-48.5 50.5q-19 39 -20 90.5t7 98.5q9 49 31 78.5t50.5 41t60 4t59.5 -32.5q15 -14 31 -34.5t29 -46.5q25 42 59 72t67 39q38 11 70 -10.5
t54 -59t32.5 -82t4.5 -79.5zM510 353q6 15 2.5 36.5t-12 42t-21 36t-25.5 17.5q-4 0 -11 -4.5t-15 -11t-15 -13.5t-10 -11q-10 -12 -23 -35.5t-20.5 -47t-4 -42.5t26.5 -23q8 -1 27.5 4.5t41 14.5t39 19.5t20.5 17.5zM245 366q4 19 -5.5 42.5t-23.5 43t-29.5 32t-24.5 9.5
q-9 -4 -21.5 -33t-12.5 -71q0 -23 3.5 -39t8.5 -25.5t10.5 -13.5t8.5 -4q12 0 25.5 4t26 12t22 19t12.5 24z" />
    <glyph glyph-name="integral" unicode="&#x222b;" horiz-adv-x="544" 
d="M326 759q29 3 52 -2t41 -16t32 -26.5t24 -33.5q9 -15 14 -25t8 -19.5t6 -20.5t7 -28q7 -27 -4.5 -41.5t-28.5 -20t-33 -2t-19 12.5q-7 25 -13.5 45.5t-14.5 37.5t-19.5 30.5t-29.5 23.5q-32 -29 -44.5 -62.5t-9.5 -69.5q4 -44 9.5 -92.5t10 -100.5t5.5 -107.5t-5 -113.5
q-2 -19 -9.5 -43.5t-20 -46t-30 -37.5t-40.5 -17q-25 -2 -52 11.5t-50 33t-39 41t-21 35.5q-5 13 -8.5 27t-5.5 30q-2 21 8.5 33t25 15t28 -2t16.5 -17q11 -39 28 -67t55 -48q26 35 29 76.5t0 85.5q-5 76 -11.5 136.5t-10.5 117.5q-1 17 -1 42.5t3.5 54t11 58t21.5 53.5
t34.5 40t50.5 19z" />
    <glyph glyph-name="approxequal" unicode="&#x2248;" horiz-adv-x="612" 
d="M546 650q24 -27 17.5 -62t-27.5 -68.5t-49.5 -61t-50.5 -38.5q-14 -7 -35.5 -9.5t-36.5 6.5q-24 15 -45 32t-41 37q-14 14 -30.5 27.5t-44.5 30.5q-10 -13 -16.5 -24.5t-12 -23t-10 -23t-11.5 -24.5q-5 -8 -10 -15.5t-13 -15.5q-7 -8 -18.5 -7t-22.5 6.5t-19 13.5t-9 15
q-6 27 -4 44t9 30.5t17.5 26.5t22.5 32t24.5 40t35.5 29q42 15 72.5 0t54.5 -46q37 -50 63.5 -73.5t52.5 -18.5q23 5 36.5 30t17.5 51q2 16 12.5 30.5t23 24t26 11.5t21.5 -7zM546 385q24 -26 17.5 -61t-27.5 -69t-49.5 -61t-50.5 -38q-14 -7 -35.5 -9.5t-36.5 6.5
q-24 15 -45 31.5t-41 36.5q-14 14 -30.5 28t-44.5 31q-10 -13 -16.5 -24.5t-12 -23t-10 -23.5t-11.5 -25q-5 -8 -10 -15t-13 -15q-7 -8 -18.5 -7t-22.5 6.5t-19 13.5t-9 14q-6 27 -4 44.5t9 31t17.5 26.5t22.5 32t24.5 40t35.5 29q42 15 72.5 0t54.5 -47q37 -49 63.5 -72.5
t52.5 -18.5q11 2 20.5 10t16 19.5t11 25t6.5 26.5q2 16 12.5 30.5t23 24t26 11t21.5 -7.5z" />
    <glyph glyph-name="notequal" unicode="&#x2260;" horiz-adv-x="448" 
d="M324 509q12 -2 25 -9.5t22.5 -18.5t14 -24t-1.5 -26q-2 -5 -14 -7t-27 -3t-29.5 -0.5t-20.5 -0.5l-36 -93h43t42 -5q12 -2 25 -9.5t22.5 -18.5t14 -24t-1.5 -26q-3 -6 -11.5 -8t-19 -2t-20.5 0.5t-16 0.5q-28 -2 -55 -5t-55 -5q-4 -16 -10 -37.5t-13.5 -43.5t-17 -41.5
t-21.5 -30.5q-13 -13 -27 -12.5t-27 13.5t-15 33t1.5 42t10.5 43.5t11 36.5q-17 4 -29.5 16t-18 27t-2.5 31.5t16 29.5q5 5 13.5 5t18 -2.5l19 -5t15.5 -3.5q8 22 16 43l16 42q-20 -1 -42.5 -0.5t-42.5 6.5q-16 5 -28 16.5t-17 26.5t-2 30.5t16 28.5q5 5 14 5t19 -2t19.5 -5
t16.5 -4q23 -2 45.5 -1t45.5 2q7 18 12 42.5t11 49.5t13 47.5t18 37.5q11 16 24 15t24.5 -11t19 -25.5t7.5 -28.5q0 -12 -3 -30t-8 -36.5t-10 -36t-9 -29.5z" />
    <glyph glyph-name="lessequal" unicode="&#x2264;" horiz-adv-x="394" 
d="M366 24q-3 -6 -9.5 -8t-16 -2t-20 1t-21.5 0q-28 -2 -59 -5.5t-60 -5t-55.5 -1t-46.5 5.5q-14 4 -26 15t-18 25.5t-4 31t17 31.5q5 5 13 5t17.5 -2.5t19.5 -5.5t19 -3q25 -1 50.5 -0.5t50 1t47.5 0t42 -4.5q13 -3 26 -10.5t22 -18.5t13 -24t-1 -25zM350 192
q1 -14 -13 -32q-5 -6 -12.5 -7.5t-15.5 0t-14.5 5.5t-9.5 7q-42 48 -88.5 103t-85.5 110q-7 11 -17 20l-20 18t-19 18.5t-15 21.5q-4 7 1 19t13.5 24.5t18 24t13.5 17.5q16 20 31 43.5t29 47t28 45t28 38.5q8 10 22 12.5t28 -3.5q25 -13 27 -45q0 -18 -10.5 -40t-26.5 -45
t-33.5 -44.5t-29.5 -38.5q-9 -12 -15.5 -22.5t-9.5 -18.5q4 -8 12.5 -19t19.5 -24q18 -21 40.5 -45.5t44.5 -50t39.5 -50.5t25.5 -47q4 -11 8.5 -21t5.5 -21z" />
    <glyph glyph-name="greaterequal" unicode="&#x2265;" horiz-adv-x="394" 
d="M366 24q-3 -6 -9.5 -8t-16 -2t-20 1t-21.5 0q-28 -2 -59 -5.5t-60 -5t-55.5 -1t-46.5 5.5q-14 4 -26 15t-18 25.5t-4 31t17 31.5q5 5 13 5t17.5 -2.5t19.5 -5.5t19 -3q25 -1 50.5 -0.5t50 1t47.5 0t42 -4.5q13 -3 26 -10.5t22 -18.5t13 -24t-1 -25zM334 484
q-5 -25 -15 -44t-21 -36q-26 -42 -53.5 -87.5t-44.5 -87.5q-6 -13 -14 -25t-19 -23q-13 -11 -27.5 -12t-25.5 10q-19 18 -11.5 51t26.5 69.5t42 70.5t35 54q9 15 16.5 29.5t13.5 30.5q-18 27 -40 51t-46.5 47.5l-49 47t-47.5 47.5q-13 14 -9 25t23 14q14 2 33.5 -1t38.5 -11
q23 -9 42.5 -25t37 -35t33 -39t29.5 -35q9 -9 19.5 -19t18.5 -20.5t13 -22t2 -24.5z" />
    <glyph glyph-name="lozenge" unicode="&#x25ca;" horiz-adv-x="524" 
d="M283 227q12 26 27 51t30 49.5t29 50t24 52.5q-28 46 -65 84l-74 76q-10 -22 -25 -45t-31 -46t-29.5 -45t-19.5 -42q8 -19 25 -43.5t36.5 -49t39.5 -48.5t33 -44zM335 113q3 -15 -2 -28t-14 -20t-21 -6t-24 14q-45 56 -86.5 116.5t-79.5 120.5q-7 11 -17 21.5t-19.5 21
t-18 21t-13.5 22.5q-3 8 1.5 21t12.5 27t17 26.5t13 19.5q15 22 28 47.5t26.5 51.5t27.5 50.5t29 43.5q12 14 29 14.5t29 -13.5q22 -3 41 -12q23 -10 42.5 -27t37 -37.5t33.5 -42.5t32 -40q9 -10 19 -20.5t18.5 -22t13.5 -24.5t3 -28q-5 -23 -15 -45t-22 -42
q-28 -47 -54 -94t-46 -98q-5 -10 -9.5 -20t-11.5 -18z" />
    <glyph glyph-name="fi" unicode="&#xfb01;" horiz-adv-x="622" 
d="M336 738q20 -7 30 -24t9 -34.5t-13 -31t-36 -14.5q-13 0 -28.5 2.5t-27.5 3.5q-35 1 -69 0t-66 -12q4 -23 6.5 -56t-1.5 -75q14 -10 33.5 -14t42 -5.5t47 -1t47.5 -0.5q56 -2 60.5 -24.5t-54.5 -49.5q-39 -18 -85 -26.5t-84 -3.5q-10 -32 -9 -69.5t4.5 -76.5t7 -79.5
t-1.5 -78.5q-2 -19 -15 -32.5t-28 -19.5t-27.5 -3.5t-15.5 14.5q-12 62 -11 136.5t4 154t3 159.5t-13 152q-2 11 -6.5 20.5t-7.5 20t-3.5 22.5t6.5 28q8 19 32 23.5t54 6.5q35 2 78.5 1.5t83.5 -8.5q12 -2 28 -1.5t26 -3.5zM561 181q4 -19 9.5 -39.5t5.5 -39.5t-9.5 -33
t-36.5 -19q-12 -2 -20.5 4t-14.5 16.5t-10.5 23t-8.5 22.5q-9 23 -12.5 49t-4.5 54.5t-0.5 57.5t0.5 56q-1 50 1.5 100t3.5 98.5t-0.5 94.5t-10.5 88q-3 12 9.5 20.5t29.5 11t33.5 -3.5t22.5 -24q19 -59 19 -128t-5 -140.5t-9 -140.5t8 -128z" />
    <glyph glyph-name="fl" unicode="&#xfb02;" horiz-adv-x="812" 
d="M336 738q20 -7 30 -24t9 -34.5t-13 -31t-36 -14.5q-13 0 -28.5 2.5t-27.5 3.5q-35 1 -69 0t-66 -12q4 -23 6.5 -56t-1.5 -75q14 -10 33.5 -14t42 -5.5t47 -1t47.5 -0.5q56 -2 60.5 -24.5t-54.5 -49.5q-39 -18 -85 -26.5t-84 -3.5q-10 -32 -9 -69.5t4.5 -76.5t7 -79.5
t-1.5 -78.5q-2 -19 -15 -32.5t-28 -19.5t-27.5 -3.5t-15.5 14.5q-12 62 -11 136.5t4 154t3 159.5t-13 152q-2 11 -6.5 20.5t-7.5 20t-3.5 22.5t6.5 28q8 19 32 23.5t54 6.5q35 2 78.5 1.5t83.5 -8.5q12 -2 28 -1.5t26 -3.5zM724 47q-19 -10 -43 -15.5t-51 -7t-55 0.5t-55 6
q-18 3 -28.5 8t-16 15t-7.5 26t-2 40q-1 72 0.5 143.5t1 144t-6 146.5t-20.5 150q-1 8 3.5 16t13.5 13t21 6t24 -5q25 -13 36.5 -36.5t16 -52t4 -59t-0.5 -57.5q0 -53 2 -105t4 -101.5t3 -94.5t-2 -84q20 -9 38.5 -11t35.5 -0.5t33.5 5t32.5 6.5q31 5 47 -4.5t17.5 -25.5
t-10 -34.5t-36.5 -32.5z" />
    <glyph glyph-name="trademark" horiz-adv-x="583" 
d="M528 433q3 -10 5 -20t-6 -19q-13 -14 -25 -14.5t-21 5.5t-15 15.5t-7 15.5q-5 28 -5 46.5t-1 38.5q-2 -10 -6 -23.5t-9.5 -26.5t-13 -23t-17.5 -14q-13 -5 -23.5 3.5t-18 22.5t-12.5 30t-8 25v-63q-1 -6 0.5 -12t1.5 -12q0 -7 -3 -13t-12 -10q-12 -6 -21.5 -4t-16.5 8
t-11 13.5t-5 12.5q-5 17 -3 33t4 33q2 28 4 53.5t3 52t1 54t-3 58.5q-1 12 6 22t17.5 15.5t22 5.5t18.5 -6q14 -12 22.5 -32.5t14.5 -44t10 -47t8 -40.5q10 26 13 53.5t14 53.5q6 14 12 31.5t22 25.5q15 7 25 6t16.5 -8t9.5 -17.5t3 -22.5q2 -17 1 -33t-2 -33
q0 -9 0.5 -37.5t2 -61t3.5 -60.5t5 -36zM256 695q-2 -16 -14.5 -25t-38.5 -4q-5 1 -9 2t-9 2q-3 -43 -3 -97.5t3 -108.5q1 -14 3 -28t-9 -25q-15 -15 -26 -19t-19 -2t-13 9t-8 16q-5 18 -2 36.5t1 37.5q-4 45 -2 89t-5 94q-9 1 -20 1t-21 2.5t-18 8t-11 17.5
q-4 15 -0.5 23.5t11.5 13t19 5.5t21 1q6 0 12 -0.5t11 -0.5q13 0 30.5 1t36 2t35 -0.5t28.5 -6.5q8 -4 13.5 -17.5t3.5 -26.5z" />
    <glyph glyph-name="apple" horiz-adv-x="1495" 
d="M1475 690v27l-10 -27h-3l-10 27h-1v-27h-3v31h6l10 -25l9 25h6v-31h-4zM1434 718v-28h-4v28h-9v3h23v-3h-10zM1407 713q11 -14 6.5 -32.5t-16.5 -28.5q-15 -14 -30 -17.5t-38 -4.5q4 2 9 8.5t6 11.5q-5 -8 -21 -14.5t-33 -11.5v-15h-36v-200h-21v-4q0 -91 -42.5 -163.5
t-125.5 -123.5q2 -18 -3.5 -39t-19 -41t-35.5 -36t-54 -23q-7 -2 -11 6q-3 7 3 12q10 6 17.5 17.5t10.5 24.5q2 7 2 16.5t-5 18.5q-123 -44 -283 -44q-111 0 -204 21t-164 63v-62q-45 17 -87 43.5t-75 64t-53 86.5t-20 111q0 31 7 60.5t18.5 55t26.5 46t30 33.5q-7 2 -18 7
t-19 10q5 -10 15 -15q-6 -1 -15 -1t-19.5 2.5t-21.5 7.5t-20 14q-18 19 -14.5 37.5t14.5 26.5q8 7 23.5 8.5t28.5 -8.5q11 8 24.5 8.5t24.5 -6.5q10 -5 12 -13.5t0.5 -17t-5.5 -15t-7 -8.5q2 -7 5 -13t8 -8q2 2 4.5 4t5.5 4q62 95 190 149t305 54q125 0 227.5 -26.5
t174.5 -77.5q20 1 41.5 2t39.5 1q38 0 72.5 1t45.5 1q-5 9 -2.5 21t12.5 19q14 9 27.5 7t23.5 -11q8 8 26 11t32 -14zM1396 690q-1 12 -8.5 16t-12.5 4t-11.5 -4.5t-6.5 -12.5q-1 -8 4 -14t12 -6q2 -11 -10 -21q10 4 17 10q6 5 11.5 12.5t4.5 15.5zM1345 690q0 13 -8.5 17
t-13.5 4t-11 -4.5t-7 -12.5q0 -9 5 -14.5t12 -6.5q2 -12 -11 -20q9 4 17 10q7 5 12.5 12t4.5 15zM1304 664q-9 4 -14 13v-30q6 5 9 8.5t5 8.5zM1174 606l-9 -1q2 -3 4.5 -6.5t4.5 -6.5v14zM1269 659h-111v-30h36v-201l39 -1v202h36v30zM1140 658l-79 -3v-233l36 2v57l40 2
v34l-40 -3l4 111l39 2v31zM997 650l-52 -4l-43 -243l37 6l6 33l60 5l9 -29l37 3zM901 496q-8 -26 -28 -44l15 -15l13 59v0zM845 451q14 12 25 27q9 13 16.5 31t5.5 41q-2 38 -19.5 55.5t-38.5 24.5q-25 8 -55 4v-253l35 7l-1 43l39 -36l40 7zM756 574q-29 -9 -47 -29.5
t-19 -50.5q-1 -27 18.5 -45t47.5 -19v144zM762 412q-25 0 -44 9q-17 8 -30.5 24.5t-15.5 49.5q-1 30 12 49.5t30 30.5q19 13 43 21v37q-36 -9 -63 -27q-23 -16 -42.5 -43.5t-18.5 -72.5q1 -40 18.5 -63t39.5 -34t42.5 -13.5t28.5 -1.5v34zM1215 405q0 1 -0.5 1.5t-0.5 2.5
h-40v149q-7 12 -15.5 23.5t-17.5 22.5l-21 -1v-69l37 2v-73l-40 -3v-56l-114 -10l-11 31l-25 -3l-8 -31q-20 -2 -53.5 -7.5t-56.5 -10.5l-12 10v-13q-10 -2 -21 -4q-9 -2 -20 -4l-22 -4q-20 -4 -41 -1.5t-40 10t-35 19.5t-25 28v-87l-144 -47v79l-17 -39l-18 36v-89l-76 -31
l1 38q-13 -27 -31 -46.5t-41 -19.5q-24 0 -41 15t-28 37.5t-16.5 49t-6.5 49.5q-1 17 3 44t14.5 52t28.5 43t45 18t44.5 -16.5t26.5 -41.5v74l62 21l30 -48l20 61l143 52v-52q17 36 54 59.5t81 28.5q121 14 146 -82l15 93l85 5l26 -108v110h5q2 0 5.5 0.5t7.5 0.5
q-69 43 -163 65t-207 22q-143 0 -256 -37t-182 -107l-4 -4l-4 -4q15 8 31 14.5t32 9.5v-98q-31 -6 -55.5 -24t-41 -43t-25.5 -55t-9 -60q0 -39 14 -71.5t35.5 -57.5t47.5 -43t49 -27v-17q69 -43 162.5 -65t205.5 -22q163 0 284 45q7 3 12 -4q15 -23 9 -55q-5 -15 -10 -25
q19 10 32 24t20.5 29.5t10 31t0.5 27.5q0 7 5 10q81 48 123 117t42 156zM611 586l-36 -12v-248l36 12v248zM545 565l-39 -14l-36 -95l-41 73l-32 -12v-252l36 13v161l39 -61l38 91l-1 -163l36 12v247zM163 614q-1 8 -7 12.5t-11 4.5t-12.5 -4t-8.5 -17q0 -8 5 -15t11 -12
q7 -6 17 -10q-13 8 -11 20q8 1 13 6.5t4 14.5zM112 613q-1 8 -7 12.5t-12 4.5q-5 0 -12.5 -4t-7.5 -16q0 -8 5 -15.5t11 -12.5q7 -6 16 -10q-12 10 -10 20q8 1 13 7t4 14zM378 354q0 19 -3 43.5t-11.5 46.5t-22.5 37t-35 15t-35.5 -16t-23 -37.5t-12 -44.5t-3.5 -38
q1 -17 6 -39.5t14 -43t23 -34.5t32 -14q15 0 27.5 12t22.5 31t15.5 41t5.5 41zM300 138q-26 9 -52.5 28t-48 46.5t-35 63t-12.5 76.5q2 60 22.5 98t45.5 61q29 26 65 39v54q-51 -19 -91 -53q-17 -15 -33.5 -34t-29 -44t-20 -55.5t-7.5 -67.5q0 -36 8.5 -66.5t22.5 -56
t31.5 -45.5t35.5 -36q43 -37 98 -61v53zM951 471l22 127l26 -123zM859 544q2 -14 -5.5 -27t-16.5 -23q-11 -11 -24 -20v116q12 -2 22 -8q8 -5 15.5 -14t8.5 -24zM341 365q0 -41 -9 -68t-26 -28q-9 0 -16 10.5t-12 25.5t-7.5 31t-2.5 27q0 14 2.5 31t7 32t11.5 25.5t16 10.5
q18 0 27 -28.5t9 -68.5zM975 516l-5 -28l11 1zM830 517q5 3 7.5 9t2.5 12t-2.5 11.5t-7.5 8.5v-41v0zM319 364q0 29 -3.5 48.5t-10.5 19.5q-4 0 -6.5 -7t-4.5 -17.5t-3 -22.5t-1 -22q0 -8 1 -19t3.5 -21.5t5 -17.5t5.5 -7q7 0 10.5 19t3.5 47z" />
    <glyph glyph-name="section" horiz-adv-x="422" 
d="M156 355q8 -18 26 -24.5t42 -14.5q18 -6 31 -8t20 5q24 25 27 44.5t-6.5 35t-27.5 27t-38 20.5q-12 1 -27 -7.5t-27 -21.5t-18.5 -28t-1.5 -28zM380 166q0 -18 -4.5 -39.5t-12.5 -42.5t-19 -39t-24 -28q-38 -29 -90.5 -36t-105.5 22q-7 4 -19.5 10t-27 14.5t-28 19.5
t-23.5 24q-8 11 -14 23t-7.5 24t4.5 24t22 22q33 21 62 5.5t37 -59.5q18 -19 39 -30t40 -14.5t34.5 -1t21.5 9.5q24 25 29 45.5t-2.5 38t-25 31t-38.5 23.5q-8 5 -16 8q-18 1 -40 7.5t-43.5 16.5t-40 23t-28.5 27q-12 17 -7 46t18.5 60t32.5 58t34 39q-24 11 -40 21t-24 23
q-11 19 -8 44t13.5 50.5t25 48.5t26.5 37q20 22 48 34.5t57 15.5t56 -3t44 -22q21 -20 35.5 -39t17.5 -36.5t-7.5 -33.5t-39.5 -30q-16 -7 -27.5 -4.5t-19.5 11t-12.5 20.5t-6.5 23q-1 6 -1 11.5t-2.5 10t-9.5 8.5t-23 5q-17 1 -32 -11t-25.5 -28.5t-15 -33t-1.5 -24.5
q10 -23 31 -35t45.5 -20t47.5 -15t36 -19q14 -13 25.5 -22t20 -19.5t13 -24.5t4.5 -35q0 -18 -4.5 -40t-12.5 -43t-18.5 -38.5t-23.5 -27.5l-5 -3q16 -10 26.5 -18t17 -17.5t9 -21.5t2.5 -30z" />
    </font>
</defs>
</svg>
